<svg width="244.130249" height="243.881104" viewBox="0 0 244.13 243.881" fill="none" xmlns="http://www.w3.org/2000/svg" xmlns:xlink="http://www.w3.org/1999/xlink">
	<desc>
			Created with Pixso.
	</desc>
	<defs/>
	<path id="Vector" d="M143.89 107.18L137.93 107.18C131.23 113.38 120.57 117.35 108.41 117.35C96.25 117.35 85.58 113.38 78.89 107.18L74.67 107.18C53.08 107.18 35.47 120.33 35.47 136.7L181.35 136.7C181.35 120.58 164.48 107.18 143.89 107.18L143.89 107.18Z" fill="#FFC501" fill-opacity="0.140000" fill-rule="nonzero"/>
	<path id="Vector" d="M108.41 22.08C84.1 22.08 64.5 41.68 64.5 66C64.5 90.31 84.1 109.91 108.41 109.91C132.72 109.91 152.32 90.31 152.32 66C152.07 41.68 132.47 22.08 108.41 22.08ZM108.41 99.99C89.56 99.99 74.42 84.6 74.42 66C74.42 63.02 74.92 60.29 75.41 57.81C79.38 59.8 86.58 62.52 95.01 62.52C100.97 62.52 107.42 61.04 113.37 56.82C114.12 56.32 129 45.66 140.91 56.32C141.9 59.3 142.4 62.77 142.4 66C142.4 84.6 127.02 99.99 108.41 99.99L108.41 99.99Z" fill="#FFC501" fill-opacity="0.140000" fill-rule="nonzero"/>
	<path id="Vector" d="M211.37 239.16L187.3 239.16C188.79 237.18 189.78 234.7 189.78 231.97L189.78 153.33C189.78 146.63 184.33 141.42 177.88 141.42L38.94 141.42C32.25 141.42 27.04 146.88 27.04 153.33L27.04 231.97C27.04 234.7 28.03 237.18 29.52 239.16L2.23 239.16C0.99 239.16 0 240.16 0 241.4L0 241.64C0 242.88 0.99 243.88 2.23 243.88L211.37 243.88C212.61 243.88 213.6 242.88 213.6 241.64L213.6 241.4C213.6 240.16 212.61 239.17 211.37 239.17L211.37 239.16ZM108.41 205.42C100.97 205.42 95.01 199.47 95.01 192.03C95.01 184.58 100.97 178.63 108.41 178.63C115.85 178.63 121.81 184.59 121.81 192.03C121.81 199.47 115.85 205.42 108.41 205.42Z" fill="#FFC501" fill-opacity="0.140000" fill-rule="nonzero"/>
	<path id="Vector" d="M202.43 42.43L199.21 39.2L195.74 42.68L202.19 48.88L202.43 49.38L212.85 38.96L213.35 38.46L209.88 34.99L202.43 42.43Z" fill="#FFC501" fill-opacity="0.140000" fill-rule="nonzero"/>
	<path id="Vector" d="M242.87 30.27C237.42 8.69 215.58 -4.21 194 1.25C172.42 6.7 159.52 28.54 164.97 50.12C167.7 60.29 173.91 68.48 182.09 73.94L171.42 90.06L213.85 79.15C235.43 73.69 248.33 51.85 242.88 30.27L242.87 30.27ZM221.79 42.18C220.3 48.88 216.33 57.81 204.92 63.02L203.93 63.52L202.93 63.02C191.52 58.06 187.55 49.13 186.06 42.18C184.58 35.23 185.57 29.53 185.82 28.78L186.31 26.55L188.8 26.55C190.28 26.55 198.22 26.3 201.94 20.35L204.18 16.88L206.16 20.6C209.63 26.3 217.82 26.8 219.3 26.8L221.79 26.8L222.28 29.03C222.28 29.53 223.27 35.23 221.79 42.18L221.79 42.18Z" fill="#FFC501" fill-opacity="0.140000" fill-rule="nonzero"/>
</svg>
