<svg width="206.130615" height="223.191406" viewBox="0 0 206.131 223.191" fill="none" xmlns="http://www.w3.org/2000/svg" xmlns:xlink="http://www.w3.org/1999/xlink">
	<desc>
			Created with Pixso.
	</desc>
	<defs/>
	<path id="Vector" d="M116.39 103.68L98.95 103.68C91.14 103.68 84.81 110 84.81 117.82L84.81 218.53C84.81 221.09 86.91 223.18 89.46 223.18L125.87 223.18C128.43 223.18 130.52 221.09 130.52 218.53L130.52 117.82C130.52 110 124.2 103.68 116.39 103.68L116.39 103.68Z" fill="#FFC501" fill-opacity="0.140000" fill-rule="nonzero"/>
	<path id="Vector" d="M191.99 45L172.55 45C164.74 45 158.42 51.37 158.42 59.14L158.42 218.54C158.42 221.09 160.46 223.19 163.07 223.19L201.48 223.19C204.03 223.19 206.13 221.09 206.13 218.54L206.13 59.14C206.13 51.37 199.8 45 191.99 45L191.99 45Z" fill="#FFC501" fill-opacity="0.140000" fill-rule="nonzero"/>
	<path id="Vector" d="M29.29 158.78L14.13 158.78C6.37 158.78 0 165.11 0 172.92L0 218.53C0 221.09 2.09 223.18 4.65 223.18L38.78 223.18C41.38 223.18 43.43 221.09 43.43 218.53L43.43 172.92C43.42 165.11 37.1 158.78 29.29 158.78L29.29 158.78Z" fill="#FFC501" fill-opacity="0.140000" fill-rule="nonzero"/>
	<path id="Vector" d="M169.98 21.3L166.26 26.73C164.81 28.85 165.34 31.74 167.46 33.19C168.27 33.75 169.18 34.01 170.09 34.01C171.57 34.01 173.03 33.3 173.93 31.99L183.98 17.33C184.07 17.21 184.08 17.06 184.15 16.93C184.38 16.53 184.59 16.12 184.69 15.67C184.81 15.11 184.8 14.54 184.72 13.98C184.71 13.94 184.73 13.9 184.72 13.86C184.72 13.85 184.72 13.85 184.72 13.85C184.61 13.26 184.38 12.69 184.04 12.17C183.71 11.65 183.28 11.21 182.78 10.87C182.78 10.87 182.78 10.86 182.78 10.86L168.12 0.81C166.01 -0.64 163.11 -0.1 161.66 2.01C160.2 4.13 160.74 7.02 162.86 8.48L168.23 12.16L157.71 14.1C145.93 16.26 135.42 23.26 128.87 33.28L115.76 53.33C109.45 62.99 99.32 69.75 87.97 71.86L75.34 74.22C64.83 76.18 55.6 82.04 49.36 90.73L10.31 145.06C8.81 147.14 9.28 150.05 11.37 151.55C12.19 152.14 13.14 152.42 14.08 152.42C15.53 152.42 16.95 151.75 17.86 150.48L56.91 96.15C61.75 89.42 68.9 84.88 77.05 83.36L89.67 81.01C103.5 78.42 115.85 70.19 123.54 58.42L136.65 38.37C141.82 30.46 150.1 24.95 159.39 23.24L169.98 21.3Z" fill="#FFC501" fill-opacity="0.140000" fill-rule="nonzero"/>
</svg>
