<svg width="186.999268" height="59.000000" viewBox="0 0 186.999 59" fill="none" xmlns="http://www.w3.org/2000/svg" xmlns:xlink="http://www.w3.org/1999/xlink">
	<desc>
			Created with Pixso.
	</desc>
	<defs/>
	<path id="МОНЕКС" d="M86.62 46.17Q88.63 47.43 92.03 47.43Q95.5 47.43 97.5 46.15Q98.2 45.69 98.77 45.1Q99.81 44.03 100.38 42.51Q101.27 40.16 101.27 36.96L101.27 24.94Q101.27 21.71 100.38 19.4Q99.82 17.92 98.8 16.89Q98.22 16.3 97.5 15.85Q95.5 14.63 92.03 14.63Q88.63 14.63 86.62 15.85Q85.83 16.33 85.22 16.98Q84.26 17.98 83.73 19.4Q82.86 21.71 82.86 24.94L82.86 36.92Q82.86 40.16 83.73 42.53Q84.29 44.05 85.32 45.12Q85.89 45.71 86.62 46.17ZM170.12 46.05Q172.12 47.43 175.64 47.43Q179.04 47.43 180.91 46.18Q181.73 45.64 182.34 44.92Q183.12 43.98 183.54 42.75Q184.29 40.55 184.29 37.71L184.29 35.14L178.68 35.14L178.68 38.02Q178.68 39.45 178.52 40.6Q178.36 41.74 177.74 42.43Q177.14 43.13 175.68 43.13Q174.42 43.13 173.68 42.56Q173.66 42.54 173.64 42.52Q172.94 41.95 172.67 40.85Q172.4 39.72 172.4 37.98L172.4 24.07Q172.4 22.62 172.59 21.45Q172.8 20.28 173.48 19.6Q174.17 18.9 175.68 18.9Q177.18 18.9 177.79 19.56Q178.41 20.21 178.54 21.32Q178.68 22.41 178.68 23.77L178.68 26.52L184.29 26.52L184.29 23.84Q184.29 21.07 183.5 18.98Q183.07 17.84 182.31 16.98Q181.69 16.27 180.83 15.76Q178.96 14.63 175.64 14.63Q172.12 14.63 170.12 15.94Q169.43 16.4 168.88 16.99Q167.86 18.09 167.34 19.66Q166.55 22.06 166.55 25.34L166.55 36.76Q166.55 39.89 167.34 42.28Q167.81 43.68 168.69 44.74Q169.3 45.48 170.12 46.05ZM56.82 14.99L56.27 47L60.65 47L61.08 24.67L65.72 47L69.23 47L73.77 24.75L74.24 47L78.59 47L78 14.99L72.15 14.99L67.41 37.16L62.87 14.99L56.82 14.99ZM105.66 14.99L105.66 47L111.47 47L111.47 32.53L118.03 32.53L118.03 47L123.83 47L123.83 14.99L118.03 14.99L118.03 28.39L111.47 28.39L111.47 14.99L105.66 14.99ZM128.74 14.99L128.74 47L142.25 47L142.25 42.96L134.58 42.96L134.58 32.37L140.56 32.37L140.56 28.31L134.58 28.31L134.58 19.1L142.17 19.1L142.17 14.99L128.74 14.99ZM145.73 14.99L145.73 47L151.53 47L151.53 32.25L152.72 32.25L158.25 47L164.18 47L157.62 30.08L163.71 14.99L157.9 14.99L152.72 28.42L151.53 28.42L151.53 14.99L145.73 14.99ZM94.18 42.5Q93.49 43.13 92.03 43.13Q90.61 43.13 89.9 42.5Q89.82 42.43 89.75 42.36Q89.16 41.74 88.96 40.75Q88.75 39.64 88.75 38.34L88.75 23.6Q88.75 22.26 88.98 21.2Q89.19 20.27 89.76 19.68Q89.84 19.6 89.93 19.52Q90.65 18.9 92.03 18.9Q93.49 18.9 94.18 19.52Q94.24 19.58 94.31 19.64Q94.9 20.23 95.11 21.2Q95.35 22.26 95.35 23.6L95.35 38.34Q95.35 39.64 95.11 40.75Q94.88 41.81 94.24 42.44Q94.21 42.47 94.18 42.5Z" fill="#FFFFFF" fill-opacity="1.000000" fill-rule="evenodd"/>
	<mask id="mask1_641" mask-type="alpha" maskUnits="userSpaceOnUse" x="53.941528" y="29.967896" width="133.057739" height="17.980713">
		<rect id="Rectangle 155" x="53.941528" y="29.967896" width="133.057693" height="17.980770" fill="#FFC501" fill-opacity="1.000000"/>
	</mask>
	<g mask="url(#mask1_641)">
		<path id="МОНЕКС" d="M86.62 46.17Q88.63 47.43 92.03 47.43Q95.5 47.43 97.5 46.15Q98.2 45.69 98.77 45.1Q99.81 44.03 100.38 42.51Q101.27 40.16 101.27 36.96L101.27 24.94Q101.27 21.71 100.38 19.4Q99.82 17.92 98.8 16.89Q98.22 16.3 97.5 15.85Q95.5 14.63 92.03 14.63Q88.63 14.63 86.62 15.85Q85.83 16.33 85.22 16.98Q84.26 17.98 83.73 19.4Q82.86 21.71 82.86 24.94L82.86 36.92Q82.86 40.16 83.73 42.53Q84.29 44.05 85.32 45.12Q85.89 45.71 86.62 46.17ZM170.12 46.05Q172.12 47.43 175.64 47.43Q179.04 47.43 180.91 46.18Q181.73 45.64 182.34 44.92Q183.12 43.98 183.54 42.75Q184.29 40.55 184.29 37.71L184.29 35.14L178.68 35.14L178.68 38.02Q178.68 39.45 178.52 40.6Q178.36 41.74 177.74 42.43Q177.14 43.13 175.68 43.13Q174.42 43.13 173.68 42.56Q173.66 42.54 173.64 42.52Q172.94 41.95 172.67 40.85Q172.4 39.72 172.4 37.98L172.4 24.07Q172.4 22.62 172.59 21.45Q172.8 20.28 173.48 19.6Q174.17 18.9 175.68 18.9Q177.18 18.9 177.79 19.56Q178.41 20.21 178.54 21.32Q178.68 22.41 178.68 23.77L178.68 26.52L184.29 26.52L184.29 23.84Q184.29 21.07 183.5 18.98Q183.07 17.84 182.31 16.98Q181.68 16.27 180.83 15.76Q178.96 14.63 175.64 14.63Q172.12 14.63 170.12 15.94Q169.43 16.4 168.88 16.99Q167.86 18.09 167.34 19.66Q166.55 22.06 166.55 25.34L166.55 36.76Q166.55 39.89 167.34 42.28Q167.81 43.68 168.69 44.74Q169.3 45.48 170.12 46.05ZM56.82 14.99L56.27 47L60.65 47L61.08 24.67L65.72 47L69.23 47L73.77 24.75L74.24 47L78.59 47L78 14.99L72.15 14.99L67.41 37.16L62.87 14.99L56.82 14.99ZM105.66 14.99L105.66 47L111.47 47L111.47 32.53L118.03 32.53L118.03 47L123.83 47L123.83 14.99L118.03 14.99L118.03 28.39L111.47 28.39L111.47 14.99L105.66 14.99ZM128.74 14.99L128.74 47L142.25 47L142.25 42.96L134.58 42.96L134.58 32.37L140.56 32.37L140.56 28.31L134.58 28.31L134.58 19.1L142.17 19.1L142.17 14.99L128.74 14.99ZM145.73 14.99L145.73 47L151.53 47L151.53 32.25L152.72 32.25L158.25 47L164.18 47L157.62 30.08L163.71 14.99L157.9 14.99L152.72 28.42L151.53 28.42L151.53 14.99L145.73 14.99ZM94.18 42.5Q93.49 43.13 92.03 43.13Q90.61 43.13 89.9 42.5Q89.82 42.43 89.75 42.36Q89.16 41.74 88.96 40.75Q88.75 39.64 88.75 38.34L88.75 23.6Q88.75 22.26 88.98 21.2Q89.19 20.27 89.76 19.68Q89.84 19.6 89.93 19.52Q90.65 18.9 92.03 18.9Q93.49 18.9 94.18 19.52Q94.24 19.58 94.31 19.64Q94.9 20.23 95.11 21.2Q95.35 22.26 95.35 23.6L95.35 38.34Q95.35 39.64 95.11 40.75Q94.88 41.81 94.24 42.44Q94.21 42.47 94.18 42.5Z" fill="#FFC501" fill-opacity="1.000000" fill-rule="evenodd"/>
	</g>
	<path id="Vector" d="M1.07 27.82L19.86 27.82C20.41 27.82 20.86 28.27 20.86 28.82L20.86 40.84C20.86 41.39 20.41 41.84 19.86 41.84L1.07 41.84C0.52 41.84 0.07 41.39 0.07 40.84L0.07 28.82C0.07 28.27 0.52 27.82 1.07 27.82Z" fill="#FFFFFF" fill-opacity="1.000000" fill-rule="nonzero"/>
	<path id="Vector" d="M23.45 27.82L42.24 27.82C42.79 27.82 43.24 28.27 43.24 28.82L43.24 40.84C43.24 41.39 42.79 41.84 42.24 41.84L23.45 41.84C22.9 41.84 22.45 41.39 22.45 40.84L22.45 28.82C22.45 28.27 22.9 27.82 23.45 27.82Z" fill="#FFFFFF" fill-opacity="1.000000" fill-rule="nonzero"/>
	<path id="Vector" d="M1.07 11.86L19.86 11.86C20.41 11.86 20.86 12.31 20.86 12.86L20.86 24.87C20.86 25.42 20.41 25.87 19.86 25.87L1.07 25.87C0.52 25.87 0.07 25.42 0.07 24.87L0.07 12.86C0.07 12.31 0.52 11.86 1.07 11.86Z" fill="#FFFFFF" fill-opacity="1.000000" fill-rule="nonzero"/>
	<path id="Vector" d="M23.45 11.86L42.24 11.86C42.79 11.86 43.24 12.31 43.24 12.86L43.24 24.87C43.24 25.42 42.79 25.87 42.24 25.87L23.45 25.87C22.9 25.87 22.45 25.42 22.45 24.87L22.45 12.86C22.45 12.31 22.9 11.86 23.45 11.86Z" fill="#FFFFFF" fill-opacity="1.000000" fill-rule="nonzero"/>
	<path id="Vector" d="M1 43.21L42.48 43.21C43.03 43.21 43.48 43.65 43.48 44.21L43.48 45.17L0 45.17L0 44.21C0 43.65 0.44 43.21 1 43.21Z" fill="#FFC501" fill-opacity="1.000000" fill-rule="nonzero"/>
	<path id="Vector" d="M0.03 45.12L6.64 45.12L6.64 47.99C6.64 48.26 6.42 48.49 6.14 48.49L0.53 48.49C0.26 48.49 0.03 48.26 0.03 47.99L0.03 45.12Z" fill="#FFC501" fill-opacity="1.000000" fill-rule="nonzero"/>
	<path id="Vector" d="M36.85 45.12L43.48 45.12L43.48 47.99C43.48 48.26 43.26 48.49 42.98 48.49L37.35 48.49C37.08 48.49 36.85 48.26 36.85 47.99L36.85 45.12Z" fill="#FFC501" fill-opacity="1.000000" fill-rule="nonzero"/>
	<path id="Vector" d="M19.8 45.12L23.82 45.12L23.82 47.99C23.82 48.26 23.59 48.49 23.32 48.49L20.3 48.49C20.02 48.49 19.8 48.26 19.8 47.99L19.8 45.12Z" fill="#FFC501" fill-opacity="1.000000" fill-rule="nonzero"/>
</svg>
