<svg width="115.000000" height="115.000000" viewBox="0 0 115 115" fill="none" xmlns="http://www.w3.org/2000/svg" xmlns:xlink="http://www.w3.org/1999/xlink">
	<desc>
			Created with Pixso.
	</desc>
	<defs>
		<clipPath id="clip1_751">
			<rect id="noun-delivery-4573027 1" rx="-0.082143" width="114.835716" height="114.835716" transform="translate(0.082143 0.082143)" fill="white" fill-opacity="0"/>
		</clipPath>
	</defs>
	<rect id="noun-delivery-4573027 1" rx="-0.082143" width="114.835716" height="114.835716" transform="translate(0.082143 0.082143)" fill="#FFFFFF" fill-opacity="0"/>
	<g clip-path="url(#clip1_751)">
		<path id="Vector" d="M29.95 35.64C29.16 35.65 28.52 36.29 28.52 37.08C28.52 37.87 29.16 38.51 29.95 38.51L69.58 38.51L69.58 71.26L51.5 71.26C51 67.83 48.06 65.17 44.53 65.17C40.99 65.17 38.06 67.83 37.56 71.26L31.39 71.26L31.39 65.03C31.39 64.64 31.24 64.28 30.97 64.01C30.7 63.73 30.33 63.58 29.95 63.58C29.57 63.59 29.2 63.74 28.93 64.01C28.67 64.28 28.52 64.65 28.52 65.03L28.52 72.7C28.52 73.49 29.16 74.13 29.95 74.13L37.72 74.13C38.53 77.17 41.27 79.44 44.53 79.44C47.78 79.44 50.53 77.17 51.33 74.13L77.56 74.13C78.36 77.17 81.11 79.44 84.36 79.44C87.62 79.44 90.36 77.17 91.16 74.13L97.7 74.13C98.49 74.13 99.13 73.49 99.13 72.7L99.13 59.35C99.13 59.17 99.1 58.98 99.03 58.81L93.65 45.47L93.65 45.47C93.43 44.93 92.91 44.57 92.32 44.57L72.46 44.57L72.46 37.08C72.46 36.29 71.81 35.65 71.02 35.65L29.95 35.64ZM23.69 44.74C23.31 44.74 22.94 44.89 22.67 45.16C22.41 45.43 22.26 45.8 22.26 46.18C22.26 46.97 22.9 47.61 23.69 47.61L45.38 47.61C45.76 47.62 46.13 47.47 46.4 47.2C46.67 46.93 46.82 46.56 46.82 46.18C46.82 45.8 46.67 45.43 46.4 45.16C46.13 44.89 45.76 44.74 45.38 44.74L23.69 44.74ZM72.46 47.45L91.35 47.45L95.57 57.92L72.46 57.92L72.46 47.45ZM17.21 53.91C16.82 53.9 16.46 54.05 16.19 54.32C15.92 54.59 15.76 54.96 15.76 55.34C15.77 55.72 15.92 56.09 16.19 56.36C16.46 56.62 16.83 56.77 17.21 56.77L45.38 56.77C45.76 56.77 46.13 56.62 46.4 56.36C46.67 56.09 46.82 55.72 46.82 55.34C46.82 54.96 46.67 54.59 46.4 54.32C46.13 54.05 45.76 53.9 45.38 53.91L17.21 53.91ZM72.46 60.79L96.26 60.79L96.26 71.26L91.33 71.26C90.83 67.83 87.9 65.17 84.36 65.17C80.83 65.17 77.9 67.83 77.4 71.26L72.46 71.26L72.46 60.79ZM44.42 68.04C44.46 68.04 44.49 68.04 44.53 68.04C46.84 68.04 48.7 69.91 48.7 72.3C48.7 74.68 46.84 76.56 44.53 76.56C42.22 76.56 40.36 74.68 40.36 72.3C40.36 69.95 42.17 68.1 44.42 68.04L44.42 68.04ZM84.26 68.04C84.29 68.04 84.33 68.04 84.36 68.04C86.67 68.04 88.54 69.91 88.54 72.3C88.54 74.68 86.67 76.56 84.36 76.56C82.06 76.56 80.2 74.68 80.2 72.3C80.2 69.95 82 68.1 84.26 68.04L84.26 68.04Z" fill="#000000" fill-opacity="1.000000" fill-rule="nonzero"/>
		<path id="Vector" d="M72.46 43.47L72.46 37.08C72.46 36.29 71.81 35.65 71.02 35.65L29.95 35.64C29.16 35.65 28.52 36.29 28.52 37.08C28.52 37.87 29.16 38.51 29.95 38.51L69.58 38.51L69.58 71.26L51.5 71.26C51 67.83 48.06 65.17 44.53 65.17C40.99 65.17 38.06 67.83 37.56 71.26L32.49 71.26L31.39 71.26L31.39 65.03C31.39 64.64 31.24 64.28 30.97 64.01C30.7 63.73 30.33 63.58 29.95 63.58C29.57 63.59 29.2 63.74 28.93 64.01C28.67 64.28 28.52 64.65 28.52 65.03L28.52 72.7C28.52 73.49 29.16 74.13 29.95 74.13L37.72 74.13C38.53 77.17 41.27 79.44 44.53 79.44C47.78 79.44 50.53 77.17 51.33 74.13L77.56 74.13C78.36 77.17 81.11 79.44 84.36 79.44C87.62 79.44 90.36 77.17 91.16 74.13L97.7 74.13C98.49 74.13 99.13 73.49 99.13 72.7L99.13 59.35C99.13 59.17 99.1 58.98 99.03 58.81L93.73 45.67L93.65 45.47L93.65 45.47L93.65 45.47L93.65 45.47C93.62 45.4 93.59 45.34 93.55 45.28C93.3 44.85 92.83 44.57 92.32 44.57L72.46 44.57L72.46 43.47ZM92.63 45.88L92.63 45.88Q92.59 45.78 92.51 45.73Q92.43 45.67 92.32 45.67L71.36 45.67L71.36 37.08Q71.36 36.91 71.28 36.83Q71.19 36.75 71.02 36.75L29.95 36.74Q29.79 36.75 29.7 36.83Q29.62 36.91 29.62 37.08Q29.62 37.24 29.7 37.32Q29.79 37.41 29.95 37.41L70.68 37.41L70.68 72.36L50.55 72.36L50.41 71.42Q50.03 68.8 48.52 67.51Q47.05 66.27 44.53 66.27Q42.01 66.27 40.54 67.51Q39.03 68.8 38.65 71.42L38.51 72.36L30.29 72.36L30.29 65.03Q30.29 64.95 30.26 64.88Q30.24 64.83 30.19 64.78Q30.15 64.73 30.09 64.71Q30.03 64.68 29.95 64.68Q29.89 64.68 29.83 64.71Q29.77 64.73 29.72 64.78Q29.66 64.83 29.64 64.9Q29.62 64.95 29.62 65.02L29.62 72.7Q29.62 72.86 29.7 72.95Q29.78 73.03 29.95 73.03L38.57 73.03L38.79 73.85Q39.4 76.15 40.89 77.28Q42.31 78.34 44.53 78.34Q46.75 78.34 48.16 77.28Q49.66 76.15 50.27 73.85L50.49 73.03L78.4 73.03L78.62 73.85Q79.23 76.15 80.73 77.28Q82.15 78.34 84.36 78.34Q86.58 78.34 87.99 77.28Q89.49 76.16 90.1 73.85L90.31 73.03L97.7 73.03Q97.87 73.03 97.95 72.95Q98.03 72.87 98.03 72.7L98.03 59.35Q98.03 59.31 98.03 59.28Q98.02 59.25 98.01 59.22L92.63 45.88L92.63 45.88ZM23.69 44.74C23.31 44.74 22.94 44.89 22.67 45.16C22.41 45.43 22.26 45.8 22.26 46.18C22.26 46.97 22.9 47.61 23.69 47.61L45.38 47.61C45.76 47.62 46.13 47.47 46.4 47.2C46.67 46.93 46.82 46.56 46.82 46.18C46.82 45.8 46.67 45.43 46.4 45.16C46.13 44.89 45.76 44.74 45.38 44.74L23.69 44.74ZM23.45 45.94L23.46 45.94Q23.51 45.88 23.58 45.86Q23.63 45.84 23.69 45.84L45.38 45.84Q45.45 45.84 45.51 45.86Q45.57 45.89 45.62 45.94Q45.67 45.99 45.69 46.04Q45.72 46.1 45.72 46.18Q45.72 46.25 45.7 46.31Q45.67 46.37 45.62 46.42Q45.58 46.46 45.52 46.48Q45.46 46.51 45.38 46.51L23.69 46.51Q23.53 46.51 23.44 46.43Q23.36 46.35 23.36 46.18Q23.36 46.11 23.38 46.05Q23.4 45.99 23.45 45.94L23.45 45.94ZM97.2 59.02L92.37 47.03L92.09 46.35L71.36 46.35L71.36 59.02L97.2 59.02ZM91.35 47.45L72.46 47.45L72.46 56.82L72.46 57.92L73.56 57.92L94.38 57.92L95.57 57.92L95.13 56.82L91.35 47.45ZM17.21 53.91C16.82 53.9 16.46 54.05 16.19 54.32C15.92 54.59 15.76 54.96 15.76 55.34C15.77 55.72 15.92 56.09 16.19 56.36C16.46 56.62 16.83 56.77 17.21 56.77L45.38 56.77C45.76 56.77 46.13 56.62 46.4 56.36C46.67 56.09 46.82 55.72 46.82 55.34C46.82 54.96 46.67 54.59 46.4 54.32C46.13 54.05 45.76 53.9 45.38 53.91L17.21 53.91ZM16.89 55.21Q16.91 55.15 16.96 55.1L16.96 55.1Q17.01 55.06 17.06 55.04Q17.13 55.01 17.21 55.01L45.38 55.01Q45.45 55.01 45.51 55.03Q45.57 55.05 45.62 55.1Q45.68 55.16 45.7 55.22Q45.72 55.28 45.72 55.34Q45.72 55.41 45.7 55.46Q45.67 55.52 45.62 55.57Q45.58 55.62 45.52 55.64Q45.46 55.67 45.38 55.67L17.2 55.67Q17.13 55.67 17.07 55.65Q17.01 55.63 16.96 55.57Q16.91 55.52 16.88 55.45Q16.86 55.4 16.86 55.34Q16.86 55.27 16.89 55.21ZM97.36 72.36L97.36 59.69L71.36 59.69L71.36 72.36L78.35 72.36L78.48 71.42Q78.87 68.8 80.38 67.51Q81.85 66.27 84.36 66.27Q86.88 66.27 88.34 67.51Q89.85 68.79 90.24 71.42L90.37 72.36L97.36 72.36ZM72.46 60.79L95.16 60.79L96.26 60.79L96.26 61.89L96.26 71.26L91.33 71.26C90.83 67.83 87.9 65.17 84.36 65.17C80.83 65.17 77.9 67.83 77.4 71.26L72.46 71.26L72.46 70.16L72.46 61.89L72.46 60.79ZM46.57 67.34Q45.63 66.94 44.53 66.94Q44.52 66.94 44.5 66.94Q44.44 66.94 44.42 66.94L44.41 66.94L44.4 66.94Q43.32 66.97 42.41 67.37Q41.5 67.77 40.75 68.55Q40.06 69.27 39.69 70.14Q39.26 71.12 39.26 72.3Q39.26 73.48 39.69 74.48Q40.08 75.36 40.79 76.09Q41.57 76.88 42.51 77.28Q43.44 77.66 44.53 77.66Q45.62 77.66 46.55 77.28Q47.49 76.88 48.27 76.09Q48.98 75.36 49.37 74.48Q49.8 73.48 49.8 72.3Q49.8 71.11 49.36 70.11Q48.98 69.23 48.26 68.5Q47.5 67.73 46.57 67.34ZM86.4 67.34Q85.47 66.94 84.36 66.94Q84.36 66.94 84.34 66.94Q84.28 66.94 84.26 66.94L84.24 66.94L84.23 66.94Q83.16 66.97 82.25 67.37Q81.34 67.77 80.59 68.55Q79.89 69.27 79.52 70.14Q79.1 71.12 79.1 72.3Q79.1 73.48 79.53 74.48Q79.91 75.36 80.63 76.09Q81.4 76.88 82.35 77.28Q83.27 77.66 84.36 77.66Q85.45 77.66 86.38 77.28Q87.32 76.88 88.1 76.09Q88.82 75.36 89.2 74.47Q89.64 73.48 89.64 72.3Q89.64 71.11 89.2 70.11Q88.82 69.23 88.1 68.5Q87.33 67.73 86.4 67.34ZM44.49 68.04L44.49 68.04C44.51 68.04 44.52 68.04 44.53 68.04C46.84 68.04 48.7 69.91 48.7 72.3C48.7 74.68 46.84 76.56 44.53 76.56C42.22 76.56 40.36 74.68 40.36 72.3C40.36 69.95 42.17 68.1 44.42 68.04L44.42 68.04C44.45 68.04 44.47 68.04 44.49 68.04ZM84.33 68.04L84.33 68.04C84.34 68.04 84.35 68.04 84.36 68.04C86.67 68.04 88.54 69.91 88.54 72.3C88.54 74.68 86.67 76.56 84.36 76.56C82.06 76.56 80.2 74.68 80.2 72.3C80.2 69.95 82 68.1 84.26 68.04C84.28 68.04 84.31 68.04 84.33 68.04Z" fill="#FFFFFF" fill-opacity="1.000000" fill-rule="evenodd"/>
	</g>
</svg>
