<svg width="67.398560" height="52.369263" viewBox="0 0 67.3986 52.3693" fill="none" xmlns="http://www.w3.org/2000/svg" xmlns:xlink="http://www.w3.org/1999/xlink">
	<desc>
			Created with Pixso.
	</desc>
	<defs/>
	<path id="Vector" d="M0 36.22L67.39 36.22L67.39 39.37L0 39.37L0 36.22Z" fill="#312C21" fill-opacity="1.000000" fill-rule="nonzero"/>
	<path id="Vector" d="M67.39 36.22L0 36.22L0 39.37L67.39 39.37L67.39 36.22ZM1.15 38.21L1.15 37.38L66.24 37.38L66.24 38.21L1.15 38.21Z" fill="#FFFFFF" fill-opacity="1.000000" fill-rule="evenodd"/>
	<path id="Vector" d="M0 49.21L67.39 49.21L67.39 52.36L0 52.36L0 49.21Z" fill="#312C21" fill-opacity="1.000000" fill-rule="nonzero"/>
	<path id="Vector" d="M67.39 49.21L0 49.21L0 52.36L67.39 52.36L67.39 49.21ZM1.15 51.21L1.15 50.37L66.24 50.37L66.24 51.21L1.15 51.21Z" fill="#FFFFFF" fill-opacity="1.000000" fill-rule="evenodd"/>
	<path id="Vector" d="M0 40.34L3.47 40.34L3.47 48.24L0 48.24L0 40.34Z" fill="#312C21" fill-opacity="1.000000" fill-rule="nonzero"/>
	<path id="Vector" d="M3.47 40.34L0 40.34L0 48.24L3.47 48.24L3.47 40.34ZM1.3 46.94L1.3 41.64L2.17 41.64L2.17 46.94L1.3 46.94Z" fill="#FFFFFF" fill-opacity="1.000000" fill-rule="evenodd"/>
	<path id="Vector" d="M31.95 40.34L35.43 40.34L35.43 48.24L31.95 48.24L31.95 40.34Z" fill="#312C21" fill-opacity="1.000000" fill-rule="nonzero"/>
	<path id="Vector" d="M35.43 40.34L31.95 40.34L31.95 48.24L35.43 48.24L35.43 40.34ZM33.25 46.94L33.25 41.64L34.13 41.64L34.13 46.94L33.25 46.94Z" fill="#FFFFFF" fill-opacity="1.000000" fill-rule="evenodd"/>
	<path id="Vector" d="M63.92 40.34L67.39 40.34L67.39 48.24L63.92 48.24L63.92 40.34Z" fill="#312C21" fill-opacity="1.000000" fill-rule="nonzero"/>
	<path id="Vector" d="M67.39 40.34L63.92 40.34L63.92 48.24L67.39 48.24L67.39 40.34ZM65.22 46.94L65.22 41.64L66.09 41.64L66.09 46.94L65.22 46.94Z" fill="#FFFFFF" fill-opacity="1.000000" fill-rule="evenodd"/>
	<path id="Vector" d="M0 18.11L67.39 18.11L67.39 21.26L0 21.26L0 18.11Z" fill="#312C21" fill-opacity="1.000000" fill-rule="nonzero"/>
	<path id="Vector" d="M67.39 18.11L0 18.11L0 21.26L67.39 21.26L67.39 18.11ZM1.15 20.1L1.15 19.26L66.24 19.26L66.24 20.1L1.15 20.1Z" fill="#FFFFFF" fill-opacity="1.000000" fill-rule="evenodd"/>
	<path id="Vector" d="M0 31.1L67.39 31.1L67.39 34.25L0 34.25L0 31.1Z" fill="#312C21" fill-opacity="1.000000" fill-rule="nonzero"/>
	<path id="Vector" d="M67.39 31.1L0 31.1L0 34.25L67.39 34.25L67.39 31.1ZM1.15 33.09L1.15 32.26L66.24 32.26L66.24 33.09L1.15 33.09Z" fill="#FFFFFF" fill-opacity="1.000000" fill-rule="evenodd"/>
	<path id="Vector" d="M0 22.23L3.47 22.23L3.47 30.13L0 30.13L0 22.23Z" fill="#312C21" fill-opacity="1.000000" fill-rule="nonzero"/>
	<path id="Vector" d="M3.47 22.23L0 22.23L0 30.13L3.47 30.13L3.47 22.23ZM1.3 28.83L1.3 23.53L2.17 23.53L2.17 28.83L1.3 28.83Z" fill="#FFFFFF" fill-opacity="1.000000" fill-rule="evenodd"/>
	<path id="Vector" d="M31.95 22.23L35.43 22.23L35.43 30.13L31.95 30.13L31.95 22.23Z" fill="#312C21" fill-opacity="1.000000" fill-rule="nonzero"/>
	<path id="Vector" d="M35.43 22.23L31.95 22.23L31.95 30.13L35.43 30.13L35.43 22.23ZM33.25 28.83L33.25 23.53L34.13 23.53L34.13 28.83L33.25 28.83Z" fill="#FFFFFF" fill-opacity="1.000000" fill-rule="evenodd"/>
	<path id="Vector" d="M63.92 22.23L67.39 22.23L67.39 30.13L63.92 30.13L63.92 22.23Z" fill="#312C21" fill-opacity="1.000000" fill-rule="nonzero"/>
	<path id="Vector" d="M67.39 22.23L63.92 22.23L63.92 30.13L67.39 30.13L67.39 22.23ZM65.22 28.83L65.22 23.53L66.09 23.53L66.09 28.83L65.22 28.83Z" fill="#FFFFFF" fill-opacity="1.000000" fill-rule="evenodd"/>
	<path id="Vector" d="M0 0L67.39 0L67.39 3.15L0 3.15L0 0Z" fill="#312C21" fill-opacity="1.000000" fill-rule="nonzero"/>
	<path id="Vector" d="M67.39 0L0 0L0 3.15L67.39 3.15L67.39 0ZM1.15 1.99L1.15 1.15L66.24 1.15L66.24 1.99L1.15 1.99Z" fill="#FFFFFF" fill-opacity="1.000000" fill-rule="evenodd"/>
	<path id="Vector" d="M0 12.99L67.39 12.99L67.39 16.14L0 16.14L0 12.99Z" fill="#312C21" fill-opacity="1.000000" fill-rule="nonzero"/>
	<path id="Vector" d="M67.39 12.99L0 12.99L0 16.14L67.39 16.14L67.39 12.99ZM1.15 14.98L1.15 14.15L66.24 14.15L66.24 14.98L1.15 14.98Z" fill="#FFFFFF" fill-opacity="1.000000" fill-rule="evenodd"/>
	<path id="Vector" d="M0 4.12L3.47 4.12L3.47 12.01L0 12.01L0 4.12Z" fill="#312C21" fill-opacity="1.000000" fill-rule="nonzero"/>
	<path id="Vector" d="M3.47 4.12L0 4.12L0 12.01L3.47 12.01L3.47 4.12ZM1.3 10.71L1.3 5.42L2.17 5.42L2.17 10.71L1.3 10.71Z" fill="#FFFFFF" fill-opacity="1.000000" fill-rule="evenodd"/>
	<path id="Vector" d="M31.95 4.12L35.43 4.12L35.43 12.01L31.95 12.01L31.95 4.12Z" fill="#312C21" fill-opacity="1.000000" fill-rule="nonzero"/>
	<path id="Vector" d="M35.43 4.12L31.95 4.12L31.95 12.01L35.43 12.01L35.43 4.12ZM33.25 10.71L33.25 5.42L34.13 5.42L34.13 10.71L33.25 10.71Z" fill="#FFFFFF" fill-opacity="1.000000" fill-rule="evenodd"/>
	<path id="Vector" d="M63.92 4.12L67.39 4.12L67.39 12.01L63.92 12.01L63.92 4.12Z" fill="#312C21" fill-opacity="1.000000" fill-rule="nonzero"/>
	<path id="Vector" d="M67.39 4.12L63.92 4.12L63.92 12.01L67.39 12.01L67.39 4.12ZM65.22 10.71L65.22 5.42L66.09 5.42L66.09 10.71L65.22 10.71Z" fill="#FFFFFF" fill-opacity="1.000000" fill-rule="evenodd"/>
</svg>
