<svg width="82.000000" height="82.000000" viewBox="0 0 82 82" fill="none" xmlns="http://www.w3.org/2000/svg" xmlns:xlink="http://www.w3.org/1999/xlink">
	<desc>
			Created with Pixso.
	</desc>
	<defs>
		<clipPath id="clip1_742">
			<rect id="noun-money-2796491 1" rx="-0.058571" width="81.882858" height="81.882858" transform="translate(0.058571 0.058571)" fill="white" fill-opacity="0"/>
		</clipPath>
	</defs>
	<rect id="noun-money-2796491 1" rx="-0.058571" width="81.882858" height="81.882858" transform="translate(0.058571 0.058571)" fill="#FFFFFF" fill-opacity="0"/>
	<g clip-path="url(#clip1_742)">
		<path id="Vector" d="M69.33 43.85C69.81 43.6 70 43.02 69.74 42.54C69.49 42.07 68.91 41.88 68.43 42.13L57.81 47.66L57.81 45.76L69.33 39.75C69.81 39.5 70 38.92 69.74 38.44C69.5 37.97 68.92 37.79 68.43 38.03L57.81 43.56L57.81 41.76L69.33 35.76C69.66 35.59 69.86 35.25 69.86 34.89C69.85 34.52 69.64 34.18 69.3 34.02L51.46 25.41C51.2 25.28 50.88 25.28 50.61 25.41L12.61 43.98C12.27 44.14 12.06 44.48 12.06 44.86C12.06 45.23 12.28 45.56 12.61 45.73L31.6 54.95C31.74 55.02 31.89 55.06 32.03 55.06C32.18 55.06 32.34 55.02 32.48 54.94L44.74 48.56L44.74 50.37L32.02 56.99L13.45 47.97C12.98 47.74 12.4 47.95 12.16 48.42C11.93 48.9 12.13 49.48 12.61 49.71L31.61 58.95C31.75 59.01 31.89 59.04 32.04 59.04C32.19 59.04 32.35 59 32.48 58.93L44.74 52.54L44.74 54.45L32.02 61.07L13.46 52.07C12.98 51.82 12.4 52.03 12.16 52.52C11.93 52.99 12.13 53.58 12.61 53.81L31.61 63.03C31.75 63.1 31.89 63.14 32.04 63.14C32.19 63.14 32.35 63.1 32.48 63.02L44.74 56.64L44.74 58.42L32.02 65.04L13.46 56.03C12.98 55.81 12.4 56 12.16 56.49C11.92 56.97 12.13 57.55 12.61 57.79L31.61 67.01C31.75 67.09 31.89 67.11 32.04 67.11C32.19 67.11 32.34 67.07 32.48 66.99L57.29 54.09L69.33 47.81C69.81 47.57 70 46.98 69.74 46.5C69.49 46.03 68.91 45.83 68.43 46.09L57.81 51.63L57.81 49.84L69.33 43.85ZM51.04 27.35L66.72 34.93L56.76 40.11L40.9 32.31L51.04 27.35ZM32.02 52.99L15.26 44.84L27.28 38.97L43.56 46.98L32.02 52.99ZM46.69 47.55L52.92 44.31C53.39 44.06 53.57 43.48 53.33 43C53.08 42.52 52.5 42.34 52.03 42.59L45.71 45.87L29.49 37.89L38.7 33.39L55.86 41.84L55.86 52.63L46.69 57.41L46.69 47.55Z" fill="#000000" fill-opacity="1.000000" fill-rule="nonzero"/>
		<path id="Vector" d="M57.81 41.76L57.81 43.56L58.47 43.22L68.43 38.03C68.92 37.79 69.5 37.97 69.74 38.44C70 38.92 69.81 39.5 69.33 39.75L57.81 45.76L57.81 47.66L58.47 47.32L68.43 42.13C68.91 41.88 69.49 42.07 69.74 42.54C70 43.02 69.81 43.6 69.33 43.85L57.81 49.84L57.81 51.63L58.47 51.29L68.43 46.09C68.91 45.83 69.49 46.03 69.74 46.5C70 46.98 69.81 47.57 69.33 47.81L57.29 54.09L32.48 66.99C32.34 67.07 32.19 67.11 32.04 67.11C31.89 67.11 31.75 67.09 31.61 67.01L12.61 57.79C12.13 57.55 11.92 56.97 12.16 56.49C12.4 56 12.98 55.81 13.46 56.03L32.02 65.04L44.74 58.42L44.74 56.64L44.09 56.98L32.48 63.02C32.35 63.1 32.19 63.14 32.04 63.14C31.89 63.14 31.75 63.1 31.61 63.03L12.61 53.81C12.13 53.58 11.93 52.99 12.16 52.52C12.4 52.03 12.98 51.82 13.46 52.07L32.02 61.07L44.74 54.45L44.74 52.54L44.09 52.88L32.48 58.93C32.35 59 32.19 59.04 32.04 59.04C31.89 59.04 31.75 59.01 31.61 58.95L12.61 49.71C12.13 49.48 11.93 48.9 12.16 48.42C12.4 47.95 12.98 47.74 13.45 47.97L32.02 56.99L44.74 50.37L44.74 48.56L44.08 48.9L32.48 54.94C32.34 55.02 32.18 55.06 32.03 55.06C31.89 55.06 31.74 55.02 31.6 54.95L12.61 45.73C12.28 45.56 12.06 45.23 12.06 44.86C12.06 44.48 12.27 44.14 12.61 43.98L50.61 25.41C50.88 25.28 51.2 25.28 51.46 25.41L69.3 34.02C69.64 34.18 69.85 34.52 69.86 34.89C69.86 35.25 69.66 35.59 69.33 35.76L57.81 41.76ZM12.9 45.14Q12.79 45.08 12.75 44.99Q12.72 44.93 12.72 44.86Q12.72 44.75 12.77 44.68Q12.81 44.61 12.89 44.57L50.89 26Q50.99 25.95 51.08 25.97Q51.13 25.98 51.18 26L69.01 34.61Q69.11 34.65 69.15 34.73Q69.2 34.8 69.2 34.9Q69.2 35.01 69.15 35.08Q69.11 35.14 69.04 35.17L69.03 35.17L57.15 41.36L57.15 44.65L68.73 38.62Q68.81 38.58 68.88 38.58Q68.93 38.58 68.98 38.59Q69.03 38.61 69.07 38.63Q69.13 38.68 69.16 38.75Q69.2 38.81 69.2 38.87Q69.21 38.93 69.19 38.98Q69.17 39.04 69.14 39.08Q69.1 39.14 69.03 39.17L57.15 45.36L57.15 48.75L68.73 42.71Q68.87 42.64 68.98 42.67Q69.09 42.7 69.16 42.85L69.16 42.85Q69.2 42.91 69.2 42.97Q69.21 43.03 69.19 43.08Q69.17 43.14 69.14 43.18Q69.1 43.24 69.03 43.27L57.15 49.44L57.15 52.72L68.74 46.67Q68.86 46.6 68.96 46.63Q69.08 46.66 69.17 46.82Q69.19 46.87 69.2 46.92Q69.21 46.98 69.19 47.04Q69.17 47.09 69.14 47.13Q69.1 47.19 69.03 47.23L56.98 53.5L32.17 66.41L32.16 66.42Q32.13 66.43 32.11 66.44Q32.08 66.45 32.04 66.45Q31.96 66.45 31.94 66.44L31.92 66.43L12.9 57.2Q12.83 57.16 12.79 57.11Q12.75 57.07 12.73 57.01Q12.71 56.96 12.72 56.9Q12.72 56.84 12.75 56.77Q12.82 56.63 12.92 56.6Q13.03 56.56 13.17 56.62L32.03 65.78L45.4 58.81L45.4 55.56L32.17 62.45L32.16 62.45Q32.14 62.46 32.11 62.47Q32.08 62.48 32.04 62.48Q31.98 62.48 31.9 62.44L12.89 53.22Q12.84 53.2 12.81 53.16Q12.76 53.11 12.74 53.04Q12.71 52.97 12.72 52.9Q12.73 52.85 12.75 52.81Q12.78 52.74 12.83 52.7Q12.88 52.66 12.94 52.64Q12.98 52.62 13.03 52.62Q13.1 52.62 13.17 52.66L32.03 61.81L45.4 54.85L45.4 51.46L32.19 58.35Q32.11 58.38 32.04 58.38Q31.95 58.38 31.9 58.36L12.89 49.12Q12.83 49.09 12.8 49.05Q12.76 49 12.74 48.95Q12.71 48.87 12.72 48.8Q12.73 48.75 12.75 48.71Q12.82 48.56 12.93 48.53Q13.03 48.5 13.17 48.56L32.03 57.73L45.39 50.76L45.39 47.48L32.16 54.36L32.15 54.37Q32.13 54.38 32.11 54.39Q32.07 54.4 32.03 54.4Q31.97 54.4 31.89 54.36L12.9 45.14ZM56.77 40.85L67.02 35.51L68.18 34.91L51.04 26.63L39.41 32.31L56.77 40.85ZM65.98 34.58L66.72 34.93L65.99 35.31L56.76 40.11L41.64 32.68L40.9 32.31L41.64 31.95L51.04 27.35L65.98 34.58ZM52.78 43.56Q52.75 43.66 52.62 43.72L52.61 43.72L46.04 47.15L46.04 58.49L56.52 53.03L56.52 41.43L38.7 32.66L28 37.89L45.72 46.6L52.33 43.17Q52.39 43.14 52.45 43.13Q52.5 43.13 52.56 43.15Q52.63 43.17 52.68 43.21Q52.72 43.25 52.75 43.3Q52.82 43.45 52.78 43.56ZM46.69 47.55L52.92 44.31C53.39 44.06 53.57 43.48 53.33 43C53.08 42.52 52.5 42.34 52.03 42.59L45.71 45.87L30.24 38.26L29.49 37.89L30.24 37.53L38.7 33.39L55.86 41.84L55.86 52.63L47.35 57.07L46.69 57.41L46.69 56.67L46.69 47.55ZM27.28 38.24L14.97 44.25L13.76 44.85L32.03 53.73L45.02 46.97L27.28 38.24ZM16.01 45.21L15.26 44.84L16.01 44.48L27.28 38.97L42.83 46.62L43.56 46.98L42.84 47.36L32.02 52.99L16.01 45.21Z" fill="#FFFFFF" fill-opacity="1.000000" fill-rule="evenodd"/>
		<path id="Vector" d="M29.42 27.86C37.26 27.86 43.18 25.07 43.18 21.37C43.18 17.67 37.27 14.87 29.42 14.87C21.58 14.87 15.67 17.67 15.67 21.37C15.67 25.07 21.58 27.86 29.42 27.86ZM29.42 16.81C36.38 16.81 41.23 19.21 41.23 21.36C41.23 23.51 36.38 25.91 29.42 25.91C22.46 25.91 17.62 23.51 17.62 21.36C17.62 19.21 22.47 16.81 29.42 16.81Z" fill="#000000" fill-opacity="1.000000" fill-rule="nonzero"/>
		<path id="Vector" d="M29.42 27.86C37.26 27.86 43.18 25.07 43.18 21.37C43.18 17.67 37.27 14.87 29.42 14.87C21.58 14.87 15.67 17.67 15.67 21.37C15.67 25.07 21.58 27.86 29.42 27.86ZM42.51 21.06Q42.52 21.21 42.52 21.37Q42.52 21.52 42.51 21.67Q42.4 22.63 41.64 23.51Q40.71 24.58 38.96 25.41Q37.16 26.26 34.76 26.72Q32.26 27.21 29.42 27.21Q26.59 27.21 24.09 26.72Q21.69 26.26 19.89 25.41Q18.14 24.58 17.22 23.51Q16.45 22.63 16.35 21.67Q16.33 21.52 16.33 21.37Q16.33 21.21 16.35 21.06Q16.45 20.1 17.22 19.22Q18.14 18.15 19.89 17.32Q21.69 16.47 24.09 16.01Q26.59 15.53 29.42 15.53Q32.26 15.53 34.76 16.01Q37.16 16.47 38.96 17.32Q40.71 18.15 41.64 19.22Q42.4 20.1 42.51 21.06ZM41.89 21.42Q41.89 21.39 41.89 21.36Q41.89 21.33 41.89 21.3Q41.87 20.76 41.59 20.24Q41.32 19.73 40.81 19.26Q39.86 18.37 38.19 17.67Q36.49 16.96 34.32 16.57Q32 16.15 29.42 16.15Q26.85 16.15 24.53 16.57Q22.36 16.96 20.66 17.67Q18.99 18.37 18.04 19.26Q17.53 19.73 17.26 20.24Q16.98 20.76 16.96 21.3Q16.96 21.33 16.96 21.36Q16.96 21.39 16.96 21.42Q16.98 21.96 17.26 22.48Q17.53 22.99 18.03 23.46Q18.99 24.35 20.66 25.05Q22.36 25.76 24.53 26.15Q26.85 26.57 29.42 26.57Q32 26.57 34.32 26.15Q36.49 25.76 38.19 25.05Q39.86 24.35 40.81 23.46Q41.32 22.99 41.59 22.48Q41.87 21.96 41.89 21.42ZM29.42 16.81C36.38 16.81 41.23 19.21 41.23 21.36C41.23 23.51 36.38 25.91 29.42 25.91C22.46 25.91 17.62 23.51 17.62 21.36C17.62 19.21 22.47 16.81 29.42 16.81Z" fill="#FFFFFF" fill-opacity="1.000000" fill-rule="evenodd"/>
		<path id="Vector" d="M42.95 27.01C43.17 26.52 42.95 25.94 42.46 25.73C41.97 25.51 41.4 25.73 41.17 26.22C40.51 27.71 35.83 29.32 29.43 29.32C23.04 29.32 18.36 27.71 17.68 26.22C17.46 25.73 16.88 25.51 16.4 25.73C15.9 25.95 15.69 26.53 15.91 27.01C17.23 29.93 23.84 31.26 29.43 31.26C35.02 31.26 41.64 29.93 42.94 27.01L42.95 27.01Z" fill="#000000" fill-opacity="1.000000" fill-rule="nonzero"/>
		<path id="Vector" d="M42.94 27.01L42.95 27.01C43.17 26.52 42.95 25.94 42.46 25.73C41.97 25.51 41.4 25.73 41.17 26.22C40.51 27.71 35.83 29.32 29.43 29.32C23.04 29.32 18.36 27.71 17.68 26.22C17.46 25.73 16.88 25.51 16.4 25.73C15.9 25.95 15.69 26.53 15.91 27.01C17.23 29.93 23.84 31.26 29.43 31.26C35.02 31.26 41.64 29.93 42.94 27.01ZM42.36 26.71Q42.38 26.67 42.38 26.63Q42.38 26.56 42.36 26.5Q42.33 26.43 42.28 26.39Q42.25 26.35 42.2 26.33L42.19 26.33L42.19 26.33Q42.13 26.3 42.06 26.3Q42.01 26.3 41.95 26.32Q41.89 26.34 41.85 26.38Q41.8 26.42 41.77 26.49Q41.43 27.25 40.28 27.9Q39.23 28.5 37.63 28.96Q35.97 29.43 33.95 29.69Q31.79 29.97 29.43 29.97Q27.08 29.97 24.91 29.69Q22.89 29.43 21.23 28.96Q19.63 28.5 18.58 27.9Q17.43 27.25 17.09 26.49Q17.06 26.43 17.01 26.38Q16.97 26.35 16.91 26.32Q16.84 26.3 16.78 26.3Q16.73 26.31 16.67 26.33Q16.59 26.37 16.54 26.43Q16.52 26.46 16.5 26.51Q16.48 26.57 16.48 26.63Q16.48 26.68 16.51 26.74Q16.9 27.61 18.13 28.34Q19.35 29.07 21.24 29.6Q23.03 30.09 25.22 30.35Q27.31 30.6 29.43 30.6Q31.55 30.6 33.64 30.35Q35.83 30.09 37.62 29.6Q39.52 29.07 40.73 28.34Q41.96 27.61 42.35 26.75L42.36 26.71Z" fill="#FFFFFF" fill-opacity="1.000000" fill-rule="evenodd"/>
		<path id="Vector" d="M30.4 33.96C30.4 33.42 29.97 32.99 29.43 32.99C23.04 32.99 18.36 31.38 17.68 29.89C17.46 29.4 16.88 29.18 16.4 29.4C15.9 29.62 15.69 30.2 15.91 30.69C17.23 33.6 23.84 34.93 29.43 34.93C29.96 34.93 30.4 34.5 30.4 33.96L30.4 33.96Z" fill="#000000" fill-opacity="1.000000" fill-rule="nonzero"/>
		<path id="Vector" d="M30.4 33.96L30.4 33.96C30.4 33.95 30.4 33.94 30.4 33.94C30.4 33.69 30.3 33.47 30.15 33.31C29.97 33.11 29.72 32.99 29.43 32.99C23.04 32.99 18.36 31.38 17.68 29.89C17.46 29.4 16.88 29.18 16.4 29.4C15.9 29.62 15.69 30.2 15.91 30.69C17.23 33.6 23.84 34.93 29.43 34.93C29.96 34.93 30.4 34.5 30.4 33.96ZM29.75 33.94Q29.74 33.88 29.72 33.83Q29.7 33.78 29.65 33.74Q29.61 33.69 29.56 33.67Q29.5 33.65 29.43 33.65Q27.08 33.65 24.91 33.37Q22.89 33.11 21.23 32.63Q19.63 32.17 18.58 31.57Q17.43 30.92 17.08 30.16Q17.06 30.11 17.02 30.07Q16.98 30.02 16.9 29.99Q16.84 29.97 16.77 29.97Q16.72 29.98 16.67 30Q16.59 30.03 16.55 30.09Q16.52 30.13 16.5 30.18Q16.48 30.23 16.48 30.28Q16.48 30.35 16.51 30.42Q16.9 31.28 18.13 32.02Q19.35 32.74 21.24 33.27Q23.03 33.76 25.22 34.03Q27.31 34.28 29.43 34.28Q29.49 34.28 29.55 34.25Q29.6 34.23 29.65 34.18Q29.7 34.14 29.72 34.08Q29.75 34.02 29.75 33.96L29.75 33.94Z" fill="#FFFFFF" fill-opacity="1.000000" fill-rule="evenodd"/>
		<path id="Vector" d="M23.39 37.68C23.86 37.68 24.27 37.34 24.35 36.85C24.42 36.32 24.06 35.82 23.53 35.75C19.45 35.14 17.9 34.11 17.65 33.65C17.39 33.17 16.8 33 16.33 33.26C15.86 33.52 15.68 34.11 15.94 34.58C16.93 36.38 20.46 37.25 23.24 37.67C23.29 37.67 23.34 37.68 23.39 37.68L23.39 37.68Z" fill="#000000" fill-opacity="1.000000" fill-rule="nonzero"/>
		<path id="Vector" d="M23.51 37.67C23.93 37.62 24.28 37.3 24.35 36.85C24.42 36.32 24.06 35.82 23.53 35.75C19.45 35.14 17.9 34.11 17.65 33.65C17.39 33.17 16.8 33 16.33 33.26C15.86 33.52 15.68 34.11 15.94 34.58C16.93 36.38 20.46 37.25 23.24 37.67C23.25 37.67 23.26 37.67 23.27 37.67C23.31 37.68 23.35 37.68 23.39 37.68L23.39 37.68L23.39 37.68L23.39 37.68C23.43 37.68 23.47 37.68 23.51 37.67ZM23.39 37.02L23.39 37.02Q23.45 37.02 23.5 37.01Q23.55 36.99 23.59 36.95Q23.63 36.92 23.66 36.88Q23.69 36.82 23.7 36.76L23.7 36.76Q23.71 36.69 23.69 36.62Q23.68 36.57 23.64 36.52Q23.6 36.46 23.55 36.43Q23.5 36.4 23.44 36.39Q20.64 35.98 18.9 35.24Q18.19 34.95 17.72 34.62Q17.25 34.29 17.07 33.96Q17.04 33.91 17 33.87Q16.95 33.83 16.88 33.81Q16.83 33.79 16.77 33.8Q16.71 33.8 16.64 33.84Q16.59 33.87 16.55 33.91Q16.51 33.96 16.49 34.03Q16.47 34.09 16.48 34.16Q16.49 34.21 16.51 34.26Q16.79 34.76 17.47 35.21Q18.13 35.65 19.14 36.02Q20.83 36.64 23.34 37.02L23.34 37.02Q23.38 37.02 23.39 37.02Z" fill="#FFFFFF" fill-opacity="1.000000" fill-rule="evenodd"/>
		<path id="Vector" d="M17.59 37.16C17.29 36.71 16.69 36.61 16.24 36.91C15.8 37.21 15.69 37.82 16 38.26C16.53 39.03 17.77 39.65 19.78 40.13C19.86 40.15 19.93 40.16 20.01 40.16C20.45 40.16 20.85 39.86 20.96 39.42C21.09 38.9 20.77 38.38 20.24 38.24C18 37.7 17.61 37.18 17.59 37.16L17.59 37.16Z" fill="#000000" fill-opacity="1.000000" fill-rule="nonzero"/>
		<path id="Vector" d="M17.59 37.16C17.29 36.71 16.69 36.61 16.24 36.91C15.8 37.21 15.69 37.82 16 38.26C16.53 39.03 17.77 39.65 19.78 40.13C19.86 40.15 19.93 40.16 20.01 40.16C20.45 40.16 20.85 39.86 20.96 39.42C21.09 38.9 20.77 38.38 20.24 38.24C18 37.7 17.61 37.18 17.59 37.16L17.59 37.16ZM16.61 37.45Q16.56 37.48 16.53 37.52Q16.5 37.58 16.48 37.65Q16.47 37.72 16.49 37.78Q16.5 37.83 16.54 37.88Q16.84 38.33 17.63 38.72Q18.5 39.15 19.94 39.5Q19.97 39.5 20.01 39.5Q20.06 39.5 20.1 39.49Q20.15 39.48 20.21 39.44Q20.25 39.4 20.28 39.36Q20.31 39.32 20.32 39.26Q20.34 39.2 20.33 39.14Q20.32 39.08 20.29 39.03Q20.25 38.98 20.21 38.94Q20.16 38.9 20.08 38.88Q18.65 38.53 17.83 38.11Q17.33 37.85 17.1 37.59L17.07 37.56L17.05 37.52Q17.01 37.47 16.97 37.44Q16.92 37.41 16.85 37.4Q16.8 37.39 16.74 37.39Q16.67 37.41 16.61 37.45ZM17.11 37.6Q17.11 37.6 17.11 37.6L17.11 37.6Z" fill="#FFFFFF" fill-opacity="1.000000" fill-rule="evenodd"/>
		<path id="Vector" d="M41.85 38.19C44.08 37.27 46.17 37.21 46.53 38.07C46.88 38.92 45.37 40.37 43.14 41.29C40.91 42.22 38.82 42.28 38.46 41.42C38.1 40.56 39.62 39.12 41.85 38.19Z" fill="#000000" fill-opacity="1.000000" fill-rule="nonzero"/>
		<path id="Vector" d="M41.85 38.19C39.62 39.12 38.1 40.56 38.46 41.42C38.82 42.28 40.91 42.22 43.14 41.29C45.37 40.37 46.88 38.92 46.53 38.07C46.17 37.21 44.08 37.27 41.85 38.19L41.85 38.19ZM42.12 38.79L42.1 38.8Q41.33 39.12 40.68 39.52Q40.06 39.91 39.64 40.31Q39.26 40.67 39.12 40.96Q39.07 41.07 39.06 41.14Q39.06 41.16 39.07 41.17Q39.07 41.18 39.09 41.19Q39.14 41.24 39.25 41.27Q39.55 41.38 40.08 41.37Q40.66 41.35 41.37 41.19Q42.12 41.01 42.89 40.69Q43.66 40.37 44.31 39.96Q44.93 39.58 45.35 39.18Q45.73 38.82 45.87 38.52Q45.92 38.42 45.92 38.35Q45.93 38.32 45.92 38.32Q45.92 38.31 45.9 38.29Q45.85 38.25 45.74 38.21Q45.43 38.1 44.91 38.12Q44.33 38.13 43.62 38.3Q42.88 38.47 42.12 38.79Z" fill="#FFFFFF" fill-opacity="1.000000" fill-rule="evenodd"/>
	</g>
</svg>
