<svg width="79.000000" height="79.000000" viewBox="0 0 79 79" fill="none" xmlns="http://www.w3.org/2000/svg" xmlns:xlink="http://www.w3.org/1999/xlink">
	<desc>
			Created with Pixso.
	</desc>
	<defs>
		<clipPath id="clip1_738">
			<rect id="noun-quality-3351471 1" rx="-0.056429" width="78.887146" height="78.887146" transform="translate(0.056429 0.056429)" fill="white" fill-opacity="0"/>
		</clipPath>
	</defs>
	<rect id="noun-quality-3351471 1" rx="-0.056429" width="78.887146" height="78.887146" transform="translate(0.056429 0.056429)" fill="#FFFFFF" fill-opacity="0"/>
	<g clip-path="url(#clip1_738)">
		<path id="Vector" d="M53.54 47.72C57.6 43.87 59.93 38.54 59.93 32.93C59.93 21.67 50.78 12.52 39.52 12.52C28.26 12.52 19.11 21.67 19.11 32.93C19.11 38.54 21.44 43.87 25.5 47.72L15.43 57.8C15.24 57.99 15.18 58.28 15.28 58.51C15.39 58.76 15.62 58.92 15.89 58.92L22.68 58.92L22.68 65.72C22.68 65.98 22.84 66.22 23.09 66.32C23.17 66.36 23.26 66.37 23.34 66.37C23.51 66.37 23.68 66.31 23.8 66.18L36.82 53.15C37.76 53.27 38.65 53.34 39.51 53.34C40.38 53.34 41.26 53.27 42.19 53.15L55.21 66.18C55.35 66.31 55.5 66.37 55.68 66.37C55.75 66.37 55.85 66.36 55.93 66.32C56.18 66.22 56.33 65.98 56.33 65.72L56.33 58.92L63.13 58.92C63.39 58.92 63.63 58.76 63.73 58.51C63.84 58.26 63.77 57.99 63.59 57.8L53.54 47.72ZM24 64.12L24 58.26C24 57.89 23.71 57.6 23.34 57.6L17.48 57.6L26.47 48.61C29.01 50.73 32.02 52.19 35.24 52.89L24 64.12ZM36.68 51.83C33.03 51.27 29.65 49.69 26.87 47.23C22.77 43.61 20.43 38.4 20.43 32.93C20.43 22.4 28.99 13.84 39.52 13.84C50.05 13.84 58.61 22.4 58.61 32.93C58.61 38.4 56.27 43.61 52.17 47.23C49.4 49.69 46.01 51.29 42.36 51.83C40.36 52.09 38.68 52.09 36.68 51.83L36.68 51.83ZM55.7 57.61C55.33 57.61 55.04 57.9 55.04 58.26L55.04 64.12L43.8 52.88C47.03 52.19 50.01 50.72 52.56 48.6L61.56 57.61L55.7 57.61Z" fill="#000000" fill-opacity="1.000000" fill-rule="nonzero"/>
		<path id="Vector" d="M53.8 47.47C57.69 43.65 59.93 38.42 59.93 32.93C59.93 21.67 50.78 12.52 39.52 12.52C28.26 12.52 19.11 21.67 19.11 32.93C19.11 38.42 21.35 43.65 25.25 47.47C25.33 47.56 25.41 47.64 25.5 47.72L25.25 47.96L15.43 57.8C15.24 57.99 15.18 58.28 15.28 58.51C15.39 58.76 15.62 58.92 15.89 58.92L22.33 58.92L22.68 58.92L22.68 65.72C22.68 65.98 22.84 66.22 23.09 66.32C23.17 66.36 23.26 66.37 23.34 66.37C23.51 66.37 23.68 66.31 23.8 66.18L36.82 53.15C37.76 53.27 38.65 53.34 39.51 53.34C40.38 53.34 41.26 53.27 42.19 53.15L55.21 66.18C55.35 66.31 55.5 66.37 55.68 66.37C55.75 66.37 55.85 66.36 55.93 66.32C56.18 66.22 56.33 65.98 56.33 65.72L56.33 58.92L56.68 58.92L63.13 58.92C63.39 58.92 63.63 58.76 63.73 58.51C63.84 58.26 63.77 57.99 63.59 57.8L53.79 47.96L53.54 47.72C53.63 47.64 53.71 47.56 53.8 47.47ZM59.38 30.07Q59.58 31.48 59.58 32.93Q59.58 33.96 59.47 34.98Q59.37 35.99 59.16 36.99Q58.98 37.87 58.72 38.73Q58.39 39.8 57.94 40.85Q57.57 41.68 57.14 42.47Q56.61 43.45 55.96 44.37Q55.45 45.11 54.87 45.8Q54.14 46.67 53.3 47.46L53.04 47.71L63.34 58.05Q63.38 58.09 63.41 58.14Q63.42 58.17 63.43 58.21Q63.44 58.25 63.43 58.29Q63.43 58.33 63.41 58.38Q63.39 58.44 63.34 58.48Q63.32 58.5 63.29 58.52Q63.26 58.55 63.22 58.56Q63.17 58.57 63.13 58.57L55.98 58.57L55.98 65.72Q55.98 65.76 55.97 65.8Q55.96 65.84 55.93 65.88Q55.91 65.91 55.89 65.93Q55.85 65.97 55.79 66L55.78 66L55.77 66.01Q55.74 66.02 55.68 66.02Q55.64 66.02 55.61 66.02Q55.53 66 55.46 65.93L42.32 52.79L42.15 52.81Q40.72 52.99 39.51 52.99Q38.3 52.99 36.86 52.81L36.69 52.79L23.55 65.94L23.54 65.94Q23.52 65.96 23.5 65.98Q23.43 66.02 23.34 66.02Q23.28 66.02 23.25 66.01L23.24 66L23.22 66Q23.17 65.97 23.12 65.93Q23.1 65.91 23.08 65.88Q23.06 65.85 23.04 65.8Q23.03 65.76 23.03 65.72L23.03 58.57L15.89 58.57Q15.84 58.57 15.8 58.56Q15.76 58.55 15.72 58.52Q15.71 58.51 15.69 58.5Q15.63 58.45 15.6 58.37Q15.6 58.36 15.59 58.35Q15.57 58.28 15.59 58.21Q15.6 58.16 15.63 58.11Q15.65 58.08 15.67 58.05L26 47.71L25.74 47.46Q24.91 46.67 24.17 45.8Q23.59 45.11 23.08 44.37Q22.43 43.45 21.89 42.46Q21.46 41.67 21.11 40.85Q20.65 39.8 20.32 38.72Q20.07 37.87 19.88 36.99Q19.67 35.99 19.57 34.98Q19.46 33.96 19.46 32.93Q19.46 31.49 19.67 30.07Q19.75 29.48 19.87 28.89Q20.06 27.95 20.35 27.03Q20.64 26.06 21.04 25.13Q21.35 24.39 21.72 23.68Q22.25 22.67 22.89 21.72Q23.38 20.99 23.93 20.31Q24.6 19.5 25.34 18.75Q26.09 18.01 26.9 17.34Q27.58 16.79 28.31 16.3Q29.26 15.66 30.28 15.13Q30.98 14.76 31.72 14.45Q32.66 14.05 33.62 13.76Q34.54 13.47 35.48 13.28Q36.07 13.16 36.66 13.07Q38.08 12.87 39.52 12.87Q40.96 12.87 42.38 13.07Q42.97 13.16 43.56 13.28Q44.5 13.47 45.42 13.76Q46.39 14.05 47.32 14.45Q48.06 14.76 48.77 15.13Q49.78 15.66 50.73 16.3Q51.46 16.79 52.14 17.34Q52.95 18.01 53.7 18.75Q54.44 19.5 55.11 20.31Q55.66 20.99 56.15 21.72Q56.79 22.67 57.32 23.69Q57.69 24.39 58 25.13Q58.4 26.06 58.69 27.02Q58.98 27.94 59.17 28.89Q59.29 29.48 59.38 30.07ZM26.63 47.49L26.64 47.49Q27.91 48.62 29.34 49.5Q30.28 50.09 31.3 50.56Q32.37 51.06 33.48 51.43Q34.96 51.91 36.51 52.15L36.52 52.16L36.63 52.17Q38.16 52.37 39.52 52.37Q40.89 52.37 42.42 52.17Q43.8 51.97 45.12 51.57Q46.46 51.17 47.74 50.57Q48.61 50.16 49.43 49.67Q51.01 48.73 52.41 47.49Q53.17 46.82 53.86 46.07Q54.57 45.29 55.19 44.44Q55.77 43.66 56.26 42.82Q56.81 41.9 57.25 40.92Q57.68 39.97 58 38.98Q58.31 38.03 58.52 37.04Q58.74 36.02 58.85 35Q58.96 33.97 58.96 32.93Q58.96 31.54 58.77 30.18Q58.69 29.59 58.57 29.02Q58.38 28.1 58.1 27.21Q57.82 26.27 57.43 25.37Q57.13 24.65 56.77 23.95Q56.26 22.98 55.64 22.07Q55.16 21.36 54.63 20.7Q53.99 19.91 53.26 19.19Q52.54 18.47 51.76 17.83Q51.1 17.29 50.39 16.81Q49.47 16.2 48.5 15.69Q47.81 15.33 47.08 15.02Q46.18 14.64 45.25 14.35Q44.36 14.07 43.44 13.88Q42.86 13.77 42.27 13.68Q40.91 13.49 39.52 13.49Q38.13 13.49 36.77 13.68Q36.18 13.77 35.61 13.88Q34.68 14.07 33.79 14.35Q32.86 14.64 31.96 15.02Q31.23 15.33 30.54 15.69Q29.57 16.2 28.65 16.81Q27.95 17.29 27.28 17.83Q26.5 18.47 25.78 19.19Q25.06 19.91 24.42 20.69Q23.88 21.36 23.4 22.07Q22.78 22.98 22.28 23.95Q21.91 24.64 21.61 25.37Q21.23 26.27 20.94 27.2Q20.66 28.1 20.47 29.02Q20.36 29.6 20.27 30.18Q20.08 31.54 20.08 32.93Q20.08 33.97 20.19 34.99Q20.3 36.02 20.52 37.04Q20.73 38.02 21.04 38.98Q21.36 39.96 21.79 40.92Q22.23 41.9 22.78 42.82Q23.27 43.66 23.85 44.44Q24.48 45.29 25.18 46.07Q25.87 46.82 26.63 47.49ZM36.68 51.83C33.03 51.27 29.65 49.69 26.87 47.23C22.77 43.61 20.43 38.4 20.43 32.93C20.43 22.4 28.99 13.84 39.52 13.84C50.05 13.84 58.61 22.4 58.61 32.93C58.61 38.4 56.27 43.61 52.17 47.23C49.4 49.69 46.01 51.29 42.36 51.83C40.36 52.09 38.68 52.09 36.68 51.83L36.68 51.83ZM55.39 64.97L55.39 58.26Q55.39 58.19 55.42 58.12Q55.45 58.08 55.48 58.04Q55.52 58.01 55.56 57.99Q55.62 57.96 55.7 57.96L62.41 57.96L52.58 48.13L52.33 48.33Q50.94 49.49 49.4 50.37Q48.85 50.68 48.28 50.96Q46.99 51.6 45.63 52.03Q44.69 52.33 43.73 52.54L43.1 52.67L55.39 64.97ZM23.62 58.12Q23.65 58.19 23.65 58.26L23.65 64.97L35.94 52.69L35.32 52.55Q33.98 52.26 32.71 51.8Q31.71 51.44 30.75 50.97Q29.74 50.48 28.8 49.88Q27.7 49.18 26.7 48.34L26.45 48.14L16.63 57.96L23.34 57.96Q23.42 57.96 23.48 57.99Q23.52 58.01 23.56 58.04Q23.6 58.08 23.62 58.12ZM55.7 57.61C55.33 57.61 55.04 57.9 55.04 58.26L55.04 64.12L54.69 63.77L44.09 53.17L43.8 52.88C43.93 52.85 44.07 52.82 44.2 52.79C47.28 52.07 50.12 50.63 52.56 48.6L61.56 57.61L55.7 57.61ZM24 63.63L24 58.26C24 57.89 23.71 57.6 23.34 57.6L17.48 57.6L17.83 57.25L26.47 48.61C28.91 50.64 31.77 52.07 34.84 52.8C34.97 52.83 35.11 52.86 35.24 52.89L34.95 53.18L24.35 63.77L24 64.12L24 63.63Z" fill="#FFFFFF" fill-opacity="1.000000" fill-rule="evenodd"/>
		<path id="Vector" d="M52.8 29.08C52.99 28.91 53.05 28.65 52.98 28.41C52.9 28.18 52.69 28.01 52.45 27.97L43.88 26.72L40.05 18.95C39.82 18.5 39.08 18.5 38.86 18.95L35.03 26.72L26.46 27.97C26.21 28.01 26.01 28.18 25.93 28.41C25.85 28.65 25.92 28.91 26.1 29.08L32.3 35.13L30.84 43.66C30.8 43.91 30.89 44.16 31.1 44.31C31.3 44.45 31.58 44.48 31.8 44.36L39.47 40.33L47.13 44.36C47.22 44.41 47.33 44.44 47.43 44.44C47.56 44.44 47.71 44.4 47.81 44.31C48.01 44.16 48.12 43.91 48.08 43.66L46.61 35.13L52.8 29.08ZM39.76 39C39.66 38.95 39.56 38.92 39.45 38.92C39.35 38.92 39.24 38.95 39.15 39L32.37 42.57L33.66 35.01C33.7 34.8 33.62 34.58 33.48 34.43L27.99 29.07L35.57 27.97C35.78 27.94 35.96 27.79 36.07 27.61L39.47 20.74L42.86 27.61C42.96 27.81 43.14 27.94 43.36 27.97L50.95 29.07L45.46 34.43C45.3 34.59 45.23 34.8 45.27 35.01L46.56 42.57L39.76 39Z" fill="#000000" fill-opacity="1.000000" fill-rule="nonzero"/>
		<path id="Vector" d="M46.61 35.13L52.8 29.08C52.99 28.91 53.05 28.65 52.98 28.41C52.9 28.18 52.69 28.01 52.45 27.97L43.88 26.72L40.05 18.95C39.82 18.5 39.08 18.5 38.86 18.95L35.03 26.72L26.46 27.97C26.21 28.01 26.01 28.18 25.93 28.41C25.85 28.65 25.92 28.91 26.1 29.08L32.3 35.13L30.84 43.66C30.8 43.91 30.89 44.16 31.1 44.31C31.3 44.45 31.58 44.48 31.8 44.36L39.47 40.33L47.13 44.36C47.22 44.41 47.33 44.44 47.43 44.44C47.56 44.44 47.71 44.4 47.81 44.31C48.01 44.16 48.12 43.91 48.08 43.66L46.61 35.13ZM52.62 28.47Q52.63 28.5 52.64 28.52L52.64 28.52Q52.66 28.56 52.66 28.6Q52.66 28.64 52.65 28.69Q52.64 28.73 52.62 28.77Q52.59 28.8 52.57 28.83L52.56 28.83L46.24 35.01L47.73 43.72Q47.74 43.76 47.73 43.8Q47.73 43.84 47.71 43.89Q47.69 43.94 47.65 43.98Q47.63 44 47.61 44.02L47.59 44.03L47.58 44.04Q47.53 44.09 47.43 44.09Q47.38 44.09 47.33 44.07Q47.32 44.06 47.3 44.05L47.3 44.05L39.47 39.93L31.64 44.05Q31.61 44.06 31.59 44.07Q31.53 44.09 31.47 44.08Q31.41 44.08 31.36 44.05Q31.34 44.04 31.31 44.02L31.31 44.02L31.3 44.02Q31.27 44 31.25 43.97Q31.22 43.93 31.2 43.89Q31.19 43.87 31.19 43.84Q31.18 43.78 31.19 43.72L32.68 35.01L26.34 28.83L26.34 28.83Q26.31 28.8 26.29 28.77Q26.27 28.73 26.26 28.69Q26.25 28.64 26.25 28.6Q26.25 28.56 26.26 28.52Q26.28 28.47 26.32 28.42Q26.34 28.4 26.36 28.38Q26.39 28.35 26.43 28.33Q26.47 28.32 26.51 28.31L35.26 27.04L39.17 19.1Q39.18 19.09 39.19 19.08Q39.22 19.03 39.27 19Q39.28 19 39.28 19Q39.36 18.96 39.45 18.96Q39.55 18.96 39.63 19Q39.63 19 39.63 19Q39.69 19.04 39.72 19.09Q39.73 19.09 39.73 19.1L43.64 27.04L52.39 28.31Q52.42 28.32 52.45 28.33Q52.5 28.35 52.55 28.38Q52.59 28.42 52.62 28.47ZM39.35 39.29Q39.4 39.27 39.45 39.27Q39.51 39.27 39.55 39.29Q39.57 39.3 39.58 39.3L39.59 39.31L47.03 43.21L45.62 34.95Q45.6 34.88 45.62 34.82Q45.64 34.74 45.7 34.68L51.7 28.83L43.41 27.62L43.4 27.62Q43.32 27.61 43.26 27.56Q43.21 27.52 43.18 27.46L43.18 27.46L39.47 19.95L35.76 27.44Q35.73 27.5 35.68 27.54Q35.67 27.55 35.65 27.56Q35.6 27.6 35.54 27.61Q35.53 27.62 35.52 27.62L27.23 28.83L33.23 34.68Q33.24 34.69 33.24 34.69Q33.28 34.74 33.3 34.8Q33.32 34.86 33.32 34.91Q33.32 34.93 33.32 34.95L31.91 43.21L39.32 39.31L39.32 39.3Q39.34 39.3 39.35 39.29ZM36.07 27.61C35.96 27.79 35.78 27.94 35.57 27.97L28.42 29.01L27.99 29.07L28.3 29.38L33.48 34.43C33.62 34.58 33.7 34.8 33.66 35.01L32.44 42.13L32.37 42.57L32.76 42.36L39.15 39C39.24 38.95 39.35 38.92 39.45 38.92C39.56 38.92 39.66 38.95 39.76 39L46.17 42.36L46.56 42.57L46.49 42.13L45.27 35.01C45.23 34.8 45.3 34.59 45.46 34.43L50.63 29.38L50.95 29.07L50.51 29.01L43.36 27.97C43.14 27.94 42.96 27.81 42.86 27.61L39.66 21.13L39.47 20.74L39.27 21.13L36.07 27.61Z" fill="#FFFFFF" fill-opacity="1.000000" fill-rule="evenodd"/>
	</g>
</svg>
