<svg width="98.000000" height="98.000000" viewBox="0 0 98 98" fill="none" xmlns="http://www.w3.org/2000/svg" xmlns:xlink="http://www.w3.org/1999/xlink">
	<desc>
			Created with Pixso.
	</desc>
	<defs>
		<clipPath id="clip1_756">
			<rect id="noun-logistics-4567487 1" rx="-0.070000" width="97.860001" height="97.860001" transform="translate(0.070000 0.070000)" fill="white" fill-opacity="0"/>
		</clipPath>
	</defs>
	<rect id="noun-logistics-4567487 1" rx="-0.070000" width="97.860001" height="97.860001" transform="translate(0.070000 0.070000)" fill="#FFFFFF" fill-opacity="0"/>
	<g clip-path="url(#clip1_756)">
		<path id="Vector" d="M60.72 46.48C59.93 46.48 59.17 46.16 58.62 45.6C58.06 45.05 57.75 44.3 57.76 43.52C57.76 42.7 57.1 42.04 56.28 42.04L51.84 42.04L51.84 39.08C51.84 38.26 51.18 37.6 50.36 37.6L37.04 37.6C36.22 37.6 35.56 38.26 35.56 39.08L35.56 53.88C35.56 54.7 36.22 55.36 37.04 55.36C37.04 56.94 37.88 58.41 39.26 59.2C40.63 60 42.33 60 43.7 59.2C45.07 58.41 45.92 56.94 45.92 55.36L51.84 55.36C51.84 56.94 52.69 58.41 54.06 59.2C55.43 60 57.13 60 58.5 59.2C59.87 58.41 60.72 56.94 60.72 55.36C61.54 55.36 62.2 54.7 62.2 53.88L62.2 47.96C62.2 47.14 61.54 46.48 60.72 46.48ZM54.98 45C55.24 46.02 55.78 46.96 56.54 47.7C57.28 48.45 58.22 48.99 59.24 49.25L59.24 52.4L51.84 52.4L51.84 45L54.98 45ZM41.48 56.84C40.66 56.84 40 56.17 40 55.36L42.96 55.36C42.96 56.17 42.3 56.84 41.48 56.84ZM44.02 52.4L38.52 52.4L38.52 40.56L48.88 40.56L48.88 52.4L44.02 52.4ZM56.28 56.84C55.46 56.84 54.8 56.17 54.8 55.36L57.76 55.36C57.76 56.17 57.1 56.84 56.28 56.84Z" fill="#000000" fill-opacity="1.000000" fill-rule="nonzero"/>
		<path id="Vector" d="M60.72 55.36C61.54 55.36 62.2 54.7 62.2 53.88L62.2 47.96C62.2 47.14 61.54 46.48 60.72 46.48C59.93 46.48 59.17 46.16 58.62 45.6C58.06 45.05 57.75 44.3 57.76 43.52C57.76 42.7 57.1 42.04 56.28 42.04L51.84 42.04L51.84 39.08C51.84 38.26 51.18 37.6 50.36 37.6L37.04 37.6C36.22 37.6 35.56 38.26 35.56 39.08L35.56 53.88C35.56 54.7 36.22 55.36 37.04 55.36L37.04 55.36C37.04 56.95 37.89 58.41 39.26 59.2C40.63 60 42.33 60 43.7 59.2C45.07 58.41 45.92 56.95 45.92 55.36L45.92 55.36L51.84 55.36C51.84 56.94 52.69 58.41 54.06 59.2C55.43 60 57.13 60 58.5 59.2C59.87 58.41 60.72 56.94 60.72 55.36ZM57.8 46.42Q57.19 45.82 56.89 45.09Q56.59 44.36 56.6 43.51Q56.6 43.36 56.52 43.28Q56.44 43.2 56.28 43.2L50.68 43.2L50.68 39.08Q50.68 39.01 50.65 38.95Q50.63 38.9 50.58 38.85Q50.54 38.8 50.48 38.78Q50.43 38.76 50.36 38.76L37.04 38.76Q36.88 38.76 36.8 38.84Q36.72 38.92 36.72 39.08L36.72 53.88Q36.72 54.04 36.8 54.12Q36.88 54.2 37.04 54.2L38.2 54.2L38.2 55.36Q38.2 56.3 38.61 57.01Q39.02 57.72 39.84 58.2Q40.66 58.67 41.48 58.67Q42.3 58.67 43.12 58.2Q43.94 57.72 44.35 57.01Q44.76 56.3 44.76 55.36L44.76 54.2L53 54.2L53 55.36Q53 56.3 53.41 57.01Q53.82 57.72 54.64 58.2Q55.46 58.67 56.28 58.67Q57.1 58.67 57.92 58.2Q58.74 57.72 59.15 57.02Q59.56 56.31 59.56 55.36L59.56 54.2L60.72 54.2Q60.88 54.2 60.96 54.12Q61.04 54.04 61.04 53.88L61.04 47.96Q61.04 47.8 60.96 47.72Q60.88 47.64 60.72 47.64Q59.86 47.64 59.13 47.33Q58.4 47.03 57.8 46.42ZM37.36 39.39L37.36 53.56L50.04 53.56L50.04 39.39L37.36 39.39ZM38.52 51.24L38.52 40.56L48.88 40.56L48.88 52.4L47.72 52.4L38.52 52.4L38.52 51.24ZM58.36 47.66Q57.82 47.34 57.36 46.88L57.35 46.87Q56.88 46.41 56.57 45.87Q56.27 45.33 56.11 44.71L55.89 43.83L50.68 43.83L50.68 53.56L60.4 53.56L60.4 48.35L59.53 48.13Q58.91 47.96 58.36 47.66ZM54.98 45C55.24 46.02 55.78 46.96 56.54 47.7C57.28 48.45 58.22 48.99 59.24 49.25L59.24 52.4L58.08 52.4L51.84 52.4L51.84 45L54.98 45ZM44.12 54.2L38.83 54.2L38.84 55.36Q38.84 56.68 39.5 57.34Q40.16 58 41.48 58Q42.8 58 43.46 57.34Q44.12 56.68 44.12 55.36L44.12 54.2ZM58.92 54.2L53.64 54.2L53.64 55.36Q53.64 56.68 54.3 57.34Q54.96 58 56.28 58Q57.6 58 58.26 57.34Q58.92 56.68 58.92 55.36L58.92 54.2ZM55.36 56.52C55.62 56.72 55.93 56.84 56.28 56.84C56.63 56.84 56.94 56.72 57.2 56.52C57.54 56.25 57.76 55.83 57.76 55.36L57.76 55.36L54.8 55.36C54.8 55.83 55.02 56.25 55.36 56.52ZM40.56 56.52C40.22 56.25 40 55.83 40 55.36L42.96 55.36C42.96 55.83 42.74 56.25 42.39 56.52C42.14 56.72 41.82 56.84 41.48 56.84C41.13 56.84 40.81 56.72 40.56 56.52Z" fill="#FFFFFF" fill-opacity="1.000000" fill-rule="evenodd"/>
		<path id="Vector" d="M60 69.73C54.35 72.28 47.94 72.57 42.09 70.52C36.23 68.48 31.39 64.27 28.57 58.75C25.74 53.24 25.14 46.85 26.89 40.9L28.7 44.57C29.06 45.3 29.95 45.6 30.69 45.24C31.42 44.88 31.72 43.99 31.36 43.26L28.01 36.5C27.98 36.45 27.93 36.39 27.89 36.34C27.79 36.16 27.64 36.02 27.45 35.92C27.4 35.88 27.35 35.85 27.3 35.81C27.28 35.8 27.25 35.8 27.23 35.8C27.13 35.76 27.03 35.74 26.92 35.73C26.84 35.71 26.75 35.69 26.66 35.69C26.57 35.7 26.48 35.71 26.4 35.74C26.3 35.75 26.2 35.78 26.1 35.81C26.08 35.82 26.05 35.82 26.03 35.83L19.28 39.17C18.55 39.54 18.25 40.42 18.61 41.15C18.97 41.89 19.86 42.19 20.59 41.83L24.03 40.12C22.45 45.54 22.59 51.31 24.44 56.63C26.29 61.96 29.76 66.57 34.36 69.83C38.97 73.09 44.47 74.83 50.11 74.81C53.94 74.81 57.72 74 61.22 72.43C61.96 72.09 62.29 71.21 61.95 70.47C61.62 69.73 60.74 69.39 60 69.73Z" fill="#000000" fill-opacity="1.000000" fill-rule="nonzero"/>
		<path id="Vector" d="M23.64 41.61C22.49 46.59 22.76 51.79 24.44 56.63C26.29 61.96 29.76 66.57 34.36 69.83C38.97 73.09 44.47 74.83 50.11 74.81C53.94 74.81 57.72 74 61.22 72.43C61.96 72.09 62.29 71.21 61.95 70.47C61.62 69.73 60.74 69.39 60 69.73C54.35 72.28 47.94 72.57 42.09 70.52C36.23 68.48 31.39 64.27 28.57 58.75C26.01 53.77 25.27 48.07 26.45 42.63C26.57 42.05 26.72 41.48 26.89 40.9L27.67 42.48L28.7 44.57C29.06 45.3 29.95 45.6 30.69 45.24C31.42 44.88 31.72 43.99 31.36 43.26L28.01 36.5C27.98 36.45 27.93 36.39 27.89 36.34C27.79 36.16 27.64 36.02 27.45 35.92C27.4 35.88 27.35 35.85 27.3 35.81C27.28 35.8 27.25 35.8 27.23 35.8C27.13 35.76 27.03 35.74 26.92 35.73C26.84 35.71 26.75 35.69 26.66 35.69C26.57 35.7 26.48 35.71 26.4 35.74C26.3 35.75 26.2 35.78 26.1 35.81C26.08 35.82 26.05 35.82 26.03 35.83L19.28 39.17C18.55 39.54 18.25 40.42 18.61 41.15C18.97 41.89 19.86 42.19 20.59 41.83L22.64 40.81L24.03 40.12C23.89 40.62 23.76 41.12 23.64 41.61ZM26.44 36.92Q26.48 36.91 26.52 36.9Q26.55 36.89 26.57 36.88L26.64 36.87L26.68 36.86L26.72 36.87L26.78 36.88L26.78 36.88L26.81 36.9L26.89 36.94L26.94 37.03L27.02 37.11L30.31 43.77Q30.39 43.92 30.35 44.02Q30.31 44.13 30.17 44.2Q30.11 44.23 30.05 44.23Q29.99 44.24 29.93 44.22Q29.86 44.2 29.82 44.16Q29.77 44.12 29.74 44.06L26.61 37.73L25.77 40.58Q24.34 45.43 24.78 50.11Q25.22 54.78 27.53 59.28Q29.84 63.79 33.39 66.87Q36.93 69.96 41.7 71.62Q46.49 73.29 51.18 73.08Q55.87 72.87 60.47 70.79Q60.62 70.72 60.72 70.76Q60.83 70.8 60.89 70.95Q60.96 71.09 60.92 71.2Q60.88 71.3 60.74 71.37Q58.23 72.5 55.6 73.07Q52.92 73.65 50.11 73.65Q45.96 73.66 42.2 72.48Q38.43 71.28 35.04 68.88Q31.65 66.48 29.27 63.32Q26.9 60.17 25.54 56.25Q24.18 52.34 24.08 48.39Q23.98 44.44 25.15 40.45L25.89 37.91L20.08 40.78Q19.94 40.85 19.83 40.82Q19.72 40.78 19.65 40.64Q19.58 40.5 19.62 40.39Q19.65 40.28 19.79 40.22L26.44 36.92Z" fill="#FFFFFF" fill-opacity="1.000000" fill-rule="evenodd"/>
		<path id="Vector" d="M79.16 56.24C78.98 55.88 78.68 55.61 78.3 55.49C77.93 55.36 77.53 55.39 77.17 55.56L73.73 57.27C75.68 50.6 74.99 43.43 71.81 37.25C68.63 31.08 63.2 26.36 56.63 24.07C50.07 21.78 42.88 22.1 36.55 24.97C35.8 25.31 35.47 26.18 35.81 26.93C36.15 27.67 37.02 28 37.77 27.66C43.41 25.11 49.83 24.83 55.68 26.87C61.53 28.91 66.37 33.13 69.2 38.64C72.03 44.16 72.63 50.55 70.87 56.49L69.06 52.82L69.06 52.82C68.7 52.09 67.81 51.79 67.08 52.16C66.35 52.52 66.05 53.4 66.41 54.14L69.75 60.89C69.89 61.18 70.13 61.41 70.41 61.55C70.43 61.56 70.44 61.57 70.46 61.58C70.49 61.59 70.51 61.59 70.53 61.6L70.53 61.6C70.7 61.67 70.88 61.71 71.06 61.71L71.07 61.72C71.28 61.71 71.48 61.66 71.66 61.58C71.68 61.57 71.71 61.57 71.73 61.56L78.49 58.22C79.22 57.86 79.52 56.97 79.16 56.24L79.16 56.24Z" fill="#000000" fill-opacity="1.000000" fill-rule="nonzero"/>
		<path id="Vector" d="M79.16 56.24L79.16 56.24C78.98 55.88 78.68 55.61 78.3 55.49C77.93 55.36 77.53 55.39 77.17 55.56L75.12 56.58L73.73 57.27C73.87 56.77 74 56.28 74.12 55.78C75.56 49.54 74.76 42.98 71.81 37.25C68.63 31.08 63.2 26.36 56.63 24.07C50.07 21.78 42.88 22.1 36.55 24.97C35.8 25.31 35.47 26.18 35.81 26.93C36.15 27.67 37.02 28 37.77 27.66C43.41 25.11 49.83 24.83 55.68 26.87C61.53 28.91 66.37 33.13 69.2 38.64C71.75 43.62 72.49 49.32 71.32 54.76C71.19 55.34 71.04 55.92 70.87 56.49L70.09 54.91L69.06 52.82L69.06 52.82C68.7 52.09 67.81 51.79 67.08 52.16C66.35 52.52 66.05 53.4 66.41 54.14L69.75 60.89C69.89 61.18 70.13 61.41 70.41 61.55C70.43 61.56 70.44 61.57 70.46 61.58C70.49 61.59 70.51 61.59 70.53 61.6L70.53 61.6C70.7 61.67 70.88 61.71 71.06 61.71L71.07 61.72C71.28 61.71 71.48 61.66 71.66 61.58C71.68 61.57 71.71 61.57 71.73 61.56L78.49 58.22C79.22 57.86 79.52 56.97 79.16 56.24ZM71.08 60.55Q71.1 60.55 71.12 60.54Q71.15 60.54 71.17 60.52L71.19 60.52L71.2 60.51Q71.26 60.48 71.33 60.46L77.97 57.18Q78.03 57.15 78.07 57.1Q78.11 57.06 78.13 56.99Q78.15 56.93 78.15 56.87Q78.15 56.81 78.12 56.75L78.11 56.74Q78.08 56.69 78.04 56.65Q77.99 56.61 77.93 56.59L77.93 56.59Q77.87 56.57 77.81 56.57Q77.75 56.58 77.69 56.61L71.87 59.48L72.61 56.94Q74.07 51.97 73.61 47.18Q73.15 42.39 70.78 37.79Q68.41 33.18 64.77 30.02Q61.14 26.87 56.25 25.17Q51.36 23.46 46.56 23.68Q41.75 23.89 37.03 26.03Q36.88 26.09 36.84 26.2Q36.8 26.3 36.87 26.45Q36.93 26.59 37.04 26.63Q37.14 26.67 37.29 26.61Q41.89 24.52 46.58 24.31Q51.28 24.1 56.06 25.77Q60.83 27.44 64.38 30.53Q67.92 33.61 70.23 38.11Q72.54 42.61 72.98 47.29Q73.42 51.96 71.99 56.82L71.15 59.67L68.08 53.46L68.02 53.34Q67.95 53.2 67.84 53.16Q67.74 53.13 67.59 53.2Q67.45 53.27 67.42 53.37Q67.38 53.48 67.45 53.62L70.79 60.38Q70.8 60.4 70.82 60.42Q70.86 60.47 70.92 60.5L70.99 60.53Q71.01 60.54 71.03 60.54Q71.06 60.55 71.08 60.55Z" fill="#FFFFFF" fill-opacity="1.000000" fill-rule="evenodd"/>
	</g>
</svg>
