<svg width="47.542358" height="55.000000" viewBox="0 0 47.5424 55" fill="none" xmlns="http://www.w3.org/2000/svg" xmlns:xlink="http://www.w3.org/1999/xlink">
	<desc>
			Created with Pixso.
	</desc>
	<defs/>
	<path id="Vector" d="M0.53 40.28C0.26 43.27 0.01 53.73 0 54.17C-0.01 54.39 0.08 54.6 0.23 54.75C0.39 54.91 0.61 55 0.84 55L46.7 55C46.92 55 47.14 54.91 47.3 54.75C47.46 54.59 47.55 54.38 47.54 54.16L47.01 40.74C47.03 40.25 47.03 36.98 43.03 35.34C40.08 34.12 33.06 31.34 30.34 30.26C32.21 28.51 33.65 26.38 34.55 24.02C35.63 21.26 36.3 18.37 36.56 15.43C36.88 15.32 37.1 15.04 37.12 14.72C37.68 5.53 32.88 2.16 29.97 0.97C25.34 -0.92 19.71 0.16 17.29 2.34C15.69 2.45 14.21 3.19 13.21 4.39C10.4 7.7 11.36 13.8 11.4 14.05C11.45 14.38 11.71 14.64 12.04 14.71C12.24 18.31 13.06 21.84 14.48 25.17C15.25 26.87 16.34 28.42 17.68 29.75L3.52 35.55C1.76 36.54 0.63 38.32 0.53 40.28ZM23.64 38.24L21.61 36.95L21.89 35.11L25.39 35.11L25.67 36.95L23.64 38.24ZM23.17 39.89C23.46 40.07 23.82 40.07 24.11 39.89L24.79 39.45L25.7 53.38L21.58 53.38L22.49 39.45L23.17 39.89ZM14.52 5.4C15.3 4.48 16.47 3.94 17.71 3.93C17.93 3.92 18.13 3.83 18.28 3.67C20.16 1.74 25.28 0.8 29.31 2.45C32.19 3.63 35.5 6.48 35.48 13.32C35.07 13.12 34.61 13.04 34.15 13.1C33.82 11.66 32.89 10.42 31.58 9.65C31.37 9.52 31.11 9.49 30.87 9.57C28.34 10.34 25.7 10.75 23.05 10.79C20.67 10.89 18.31 10.32 16.27 9.14C15.91 8.91 15.43 8.98 15.16 9.3C14.43 10.13 14 11.16 13.91 12.23C13.57 12.22 13.23 12.29 12.93 12.44C12.82 10.59 12.89 7.32 14.52 5.4ZM16.02 24.52C14.59 21.13 13.8 17.53 13.69 13.88C13.76 13.85 13.83 13.84 13.9 13.85L14.51 14.07C14.78 14.16 15.08 14.12 15.3 13.95C15.53 13.79 15.66 13.53 15.64 13.25L15.6 12.64C15.57 12.03 15.73 11.42 16.05 10.9C18.21 11.96 20.62 12.47 23.05 12.4C25.74 12.37 28.42 11.97 31 11.22C31.81 11.76 32.35 12.6 32.49 13.54L32.46 14.12C32.45 14.38 32.57 14.63 32.79 14.79C33.01 14.96 33.3 15 33.56 14.92L34.14 14.75C34.41 14.64 34.72 14.7 34.92 14.9C34.7 17.82 34.05 20.69 32.99 23.43C31.46 27.15 28.37 31.13 24.3 31.13C20.46 31.13 17.44 27.57 16.02 24.52ZM4.23 37.01L19.09 30.92C20.57 32.06 22.4 32.7 24.3 32.75C25.91 32.73 27.48 32.27 28.82 31.41C30.34 32.01 39 35.44 42.37 36.82C45.46 38.09 45.33 40.57 45.32 40.67C45.32 40.7 45.32 40.73 45.32 40.77L45.82 53.38L27.38 53.38L26.41 38.41L27.04 38.01C27.31 37.83 27.45 37.53 27.41 37.22L26.95 34.18C26.89 33.79 26.54 33.49 26.12 33.49L21.16 33.49C20.74 33.49 20.39 33.79 20.33 34.18L19.87 37.22C19.82 37.53 19.97 37.83 20.24 38.01L20.87 38.41L19.9 53.38L1.7 53.38C1.77 50.79 1.99 42.88 2.21 40.42C2.26 39.04 3.02 37.77 4.23 37.01L4.23 37.01Z" fill="#000000" fill-opacity="1.000000" fill-rule="nonzero"/>
	<path id="Vector" d="M0.53 40.28C0.26 43.27 0.01 53.73 0 54.17C-0.01 54.39 0.08 54.6 0.23 54.75C0.39 54.91 0.61 55 0.84 55L46.7 55C46.92 55 47.14 54.91 47.3 54.75C47.46 54.59 47.55 54.38 47.54 54.16L47.01 40.74C47.03 40.25 47.03 36.98 43.03 35.34C40.26 34.2 33.91 31.68 30.89 30.48C30.69 30.4 30.51 30.33 30.34 30.26C30.48 30.13 30.63 29.99 30.76 29.85C32.43 28.18 33.72 26.19 34.55 24.02C35.63 21.26 36.3 18.37 36.56 15.43C36.88 15.32 37.1 15.04 37.12 14.72C37.68 5.53 32.88 2.16 29.97 0.97C25.34 -0.92 19.71 0.16 17.29 2.34C15.69 2.45 14.21 3.19 13.21 4.39C10.4 7.7 11.36 13.8 11.4 14.05C11.45 14.38 11.71 14.64 12.04 14.71C12.24 18.31 13.06 21.84 14.48 25.17C15.17 26.69 16.12 28.1 17.27 29.33C17.41 29.47 17.54 29.61 17.68 29.75L17.14 29.97L3.52 35.55C1.76 36.54 0.63 38.32 0.53 40.28ZM3.76 36.04Q2.4 36.81 1.72 37.98Q1.14 39 1.07 40.31L1.07 40.32L1.07 40.33Q0.79 43.45 0.53 54.18L0.53 54.18Q0.53 54.22 0.54 54.26Q0.56 54.32 0.61 54.37Q0.65 54.4 0.68 54.42Q0.75 54.46 0.84 54.46L46.7 54.46Q46.78 54.46 46.84 54.42Q46.89 54.4 46.92 54.37Q46.97 54.32 46.99 54.26Q47 54.22 47 54.18L46.47 40.74L46.47 40.72Q46.52 39.57 46.11 38.64Q45.32 36.86 42.83 35.84L36.62 33.34L29.35 30.45L29.97 29.87Q31.59 28.35 32.72 26.52Q33.5 25.25 34.05 23.83Q34.97 21.45 35.49 18.99Q35.86 17.21 36.03 15.38L36.06 15.03L36.39 14.92Q36.5 14.88 36.55 14.81Q36.58 14.75 36.59 14.68Q37 7.88 33.8 4.26Q32.22 2.48 29.76 1.47Q29.14 1.21 28.49 1.03Q25.85 0.26 22.87 0.66Q19.45 1.12 17.65 2.74L17.51 2.87L17.33 2.88Q16.09 2.96 15.1 3.51Q14.27 3.96 13.62 4.73Q13.55 4.82 13.48 4.91Q10.97 8.06 11.93 13.97Q11.94 14.04 11.98 14.09Q12.04 14.16 12.16 14.19L12.56 14.27L12.58 14.68Q12.71 17.05 13.19 19.34Q13.8 22.21 14.97 24.95Q15.41 25.92 15.98 26.8Q16.86 28.18 18.06 29.36L18.64 29.93L3.76 36.04ZM17.71 3.93C16.47 3.94 15.3 4.48 14.52 5.4C13.05 7.13 12.85 9.97 12.9 11.86C12.91 12.06 12.92 12.26 12.93 12.44C13.1 12.36 13.27 12.3 13.46 12.26C13.61 12.24 13.76 12.23 13.91 12.23C14 11.16 14.43 10.13 15.16 9.3C15.43 8.98 15.91 8.91 16.27 9.14C18.31 10.32 20.67 10.89 23.05 10.79C25.7 10.75 28.34 10.34 30.87 9.57C31.11 9.49 31.37 9.52 31.58 9.65C32.89 10.42 33.82 11.66 34.15 13.1C34.41 13.06 34.68 13.08 34.94 13.13C35.13 13.18 35.31 13.24 35.48 13.32C35.48 13.12 35.48 12.93 35.48 12.73C35.31 6.32 32.11 3.6 29.31 2.45C25.28 0.8 20.16 1.74 18.28 3.67C18.13 3.83 17.93 3.92 17.71 3.93ZM23.06 11.33Q21.04 11.41 19.16 10.92Q17.52 10.48 16 9.61L15.99 9.6L15.98 9.6Q15.86 9.52 15.75 9.54Q15.65 9.55 15.57 9.65Q15 10.3 14.72 11.05Q14.5 11.63 14.45 12.27L14.41 12.79L13.89 12.77Q13.68 12.76 13.48 12.81Q13.32 12.85 13.17 12.92L12.44 13.28L12.39 12.47Q12.09 7.43 14.11 5.06Q14.76 4.29 15.58 3.87Q16.52 3.4 17.69 3.39Q17.76 3.38 17.82 3.35Q17.86 3.33 17.89 3.3Q19.51 1.64 22.92 1.18Q25.85 0.79 28.43 1.57Q28.98 1.74 29.51 1.95Q31.72 2.86 33.18 4.45Q36.04 7.57 36.02 13.33L36.02 14.19L35.24 13.81Q35.02 13.69 34.77 13.65Q34.5 13.6 34.21 13.63L33.73 13.69L33.62 13.22Q33.41 12.31 32.93 11.6Q32.33 10.71 31.31 10.12Q31.24 10.08 31.17 10.07Q31.1 10.06 31.04 10.08Q29.2 10.65 27.32 10.95Q25.21 11.3 23.06 11.33ZM13.73 13.32Q13.61 13.33 13.5 13.37L13.14 13.51L13.15 13.89Q13.23 16.44 13.72 18.89Q14.32 21.87 15.52 24.73L15.53 24.73L15.53 24.74Q17.97 29.99 21.75 31.27Q22.96 31.67 24.3 31.67Q25.55 31.67 26.68 31.31Q30.89 29.97 33.49 23.62Q34.41 21.23 34.92 18.76Q35.31 16.88 35.46 14.94L35.48 14.7L35.3 14.52Q35.01 14.24 34.68 14.16Q34.34 14.09 33.96 14.24L33.4 14.41Q33.31 14.43 33.23 14.42Q33.17 14.4 33.11 14.36Q33.04 14.31 33.01 14.24Q33 14.2 33 14.14L33.03 13.51L33.02 13.46Q32.91 12.67 32.53 12.03Q32.09 11.3 31.29 10.77L31.08 10.64L30.85 10.71Q29.28 11.16 27.68 11.44Q25.38 11.83 23.03 11.86Q21.1 11.92 19.28 11.49Q17.74 11.13 16.29 10.41L15.85 10.2L15.59 10.61Q15.28 11.11 15.15 11.66Q15.03 12.14 15.06 12.66L15.06 12.67L15.1 13.29Q15.1 13.35 15.09 13.39Q15.06 13.46 14.99 13.52Q14.93 13.56 14.86 13.57Q14.78 13.59 14.69 13.56L14.03 13.33L13.97 13.32Q13.85 13.3 13.73 13.32ZM34.14 14.75L33.56 14.92C33.3 15 33.01 14.96 32.79 14.79C32.57 14.63 32.45 14.38 32.46 14.12L32.49 13.54C32.35 12.6 31.81 11.76 31 11.22C28.42 11.97 25.74 12.37 23.05 12.4C20.62 12.47 18.21 11.96 16.05 10.9C15.73 11.42 15.57 12.03 15.6 12.64L15.64 13.25C15.66 13.53 15.53 13.79 15.3 13.95C15.08 14.12 14.78 14.16 14.51 14.07L14.23 13.97L13.95 13.87L13.9 13.85C13.83 13.84 13.76 13.85 13.69 13.88C13.8 17.53 14.59 21.13 16.02 24.52C17.44 27.57 20.46 31.13 24.3 31.13C28.37 31.13 31.46 27.15 32.99 23.43C34.05 20.69 34.7 17.82 34.92 14.9C34.72 14.7 34.41 14.64 34.14 14.75ZM21.49 31.66Q20.39 31.24 19.41 30.49L19.17 30.31L3.94 36.55L3.91 36.58Q2.78 37.29 2.22 38.31Q1.72 39.23 1.67 40.39Q1.43 43.09 1.16 53.37L1.15 53.92L20.4 53.92L21.43 38.13L20.53 37.55Q20.44 37.5 20.42 37.42Q20.39 37.37 20.4 37.3L20.86 34.26Q20.88 34.16 20.93 34.11Q21.01 34.03 21.16 34.03L26.12 34.03Q26.27 34.03 26.34 34.11Q26.4 34.16 26.42 34.26L26.87 37.3Q26.88 37.37 26.86 37.42Q26.84 37.5 26.75 37.55L25.85 38.13L26.88 53.92L46.38 53.92L45.86 40.75Q45.86 40.73 45.86 40.72L45.86 40.71L45.86 40.7Q45.93 39.73 45.59 38.93Q44.91 37.28 42.57 36.32L36.37 33.82L28.76 30.8L28.53 30.95Q27.66 31.51 26.7 31.82Q25.56 32.19 24.31 32.21Q22.81 32.17 21.49 31.66ZM2.21 40.42C2 42.73 1.8 49.83 1.71 52.84C1.71 53.04 1.7 53.22 1.7 53.38L2.24 53.38L19.9 53.38L20.87 38.41L20.24 38.01C19.97 37.83 19.82 37.53 19.87 37.22L20.33 34.18C20.39 33.79 20.74 33.49 21.16 33.49L26.12 33.49C26.54 33.49 26.89 33.79 26.95 34.18L27.41 37.22C27.45 37.53 27.31 37.83 27.04 38.01L26.41 38.41L27.38 53.38L45.28 53.38L45.82 53.38L45.8 52.84L45.32 40.77C45.32 40.73 45.32 40.7 45.32 40.67C45.33 40.57 45.46 38.09 42.37 36.82C39 35.44 30.34 32.01 28.82 31.41C27.48 32.27 25.91 32.73 24.3 32.75C22.4 32.7 20.57 32.06 19.09 30.92L4.23 37.01L4.23 37.01C3.02 37.77 2.26 39.04 2.21 40.42ZM21.43 34.57L21.08 36.87L21.03 37.21L23.64 38.88L26.25 37.21L25.85 34.57L21.43 34.57ZM21.61 36.95L21.89 35.11L25.39 35.11L25.67 36.95L23.64 38.24L21.61 36.95ZM25.27 38.5L23.82 39.43L23.82 39.43Q23.73 39.49 23.64 39.49Q23.55 39.49 23.46 39.43L22.01 38.5L21.01 53.92L26.27 53.92L25.27 38.5ZM24.83 40.07L25.66 52.84L25.7 53.38L21.58 53.38L21.62 52.84L22.45 40.07L22.49 39.45L23.01 39.78L23.17 39.89C23.46 40.07 23.82 40.07 24.11 39.89L24.27 39.78L24.79 39.45L24.83 40.07Z" fill="#FFFFFF" fill-opacity="1.000000" fill-rule="evenodd"/>
</svg>
