<svg width="91.000000" height="91.000000" viewBox="0 0 91 91" fill="none" xmlns="http://www.w3.org/2000/svg" xmlns:xlink="http://www.w3.org/1999/xlink">
	<desc>
			Created with Pixso.
	</desc>
	<defs>
		<clipPath id="clip1_753">
			<rect id="noun-contract-2358470 1" rx="-0.065000" width="90.870003" height="90.870003" transform="translate(0.065000 0.065000)" fill="white" fill-opacity="0"/>
		</clipPath>
	</defs>
	<rect id="noun-contract-2358470 1" rx="-0.065000" width="90.870003" height="90.870003" transform="translate(0.065000 0.065000)" fill="#FFFFFF" fill-opacity="0"/>
	<g clip-path="url(#clip1_753)">
		<path id="Vector" d="M71.48 24.11C70.36 21.94 67.72 21.13 65.6 22.22L63.08 23.52C61.14 24.52 60.28 26.76 60.94 28.77L57.64 30.3C55.18 31.17 52.9 30.89 50.59 30C47.65 28.87 46.97 29.9 45.73 30C45.72 30 45.72 30 45.71 30C44.31 30.34 41.91 30.91 40.79 31.18L39.03 30.07C35.51 27.87 32.33 28.57 31.43 28.5C31.65 26.73 30.83 25.18 29.48 24.31L27.1 22.77C25.09 21.48 22.38 22.03 21.06 24.08L11.15 39.47C9.84 41.49 10.42 44.19 12.45 45.5L14.83 47.04C16.29 47.98 18.23 48.02 19.81 46.83C20.11 47.24 20.44 47.64 20.84 47.97L22.37 49.25L22.19 49.44C20.84 50.89 20.92 53.18 22.36 54.54L23.44 55.56C24.07 56.15 24.87 56.48 25.73 56.52C25.88 57.25 26.25 57.95 26.83 58.5L27.67 59.28C28.37 59.95 29.29 60.31 30.26 60.31C30.32 60.31 30.37 60.3 30.43 60.29C30.61 60.96 30.97 61.57 31.48 62.05L32.28 62.8C32.88 63.37 33.64 63.7 34.45 63.8C34.59 64.28 34.84 64.71 35.21 65.06L37.52 67.24C38.04 67.72 38.71 67.99 39.42 67.99C40.18 67.99 40.92 67.67 41.44 67.12C43.09 68.65 43.28 68.82 43.91 69.12C44.5 69.39 45.13 69.52 45.75 69.52C46.94 69.52 48.11 69.04 48.96 68.11C49.73 67.29 50.09 66.24 50.1 65.2C51.14 65.1 52.16 64.66 52.92 63.83C53.68 63.01 54.05 61.97 54.06 60.93C55.1 60.83 56.11 60.39 56.87 59.56C57.63 58.74 58 57.69 58 56.64C59.04 56.55 60.05 56.1 60.8 55.28C61.8 54.2 62.14 52.74 61.85 51.39L67.27 47.04L69.82 46.1C71.06 47.99 73.5 48.6 75.46 47.59L77.98 46.29C80.12 45.19 80.96 42.55 79.86 40.41L71.48 24.11ZM16.41 44.59L14.03 43.06C13.35 42.62 13.16 41.72 13.59 41.04L23.51 25.66C23.94 24.98 24.84 24.78 25.52 25.22L27.9 26.76C28.58 27.19 28.77 28.09 28.34 28.77L18.42 44.15C18 44.81 17.06 45.01 16.41 44.59ZM24.36 52.42C24.08 52.16 24.06 51.71 24.33 51.42C24.49 51.24 26.44 49.16 26.3 49.3C26.87 48.7 27.79 48.71 28.35 49.24C28.93 49.79 28.96 50.71 28.41 51.29C28.27 51.44 26.31 53.55 26.44 53.4C26.17 53.7 25.71 53.7 25.44 53.44L24.36 52.42ZM29.66 57.16L28.82 56.38C28.49 56.06 28.47 55.54 28.76 55.19C28.89 55.04 31.93 51.8 31.79 51.94C32.31 51.39 33.2 51.3 33.84 51.9C34.42 52.44 34.44 53.35 33.9 53.93C34.05 53.77 31.72 56.25 30.9 57.12C30.58 57.46 30 57.48 29.66 57.16ZM33.48 59.93C33.15 59.62 33.08 59.09 33.42 58.7L35.5 56.48C36.07 55.87 36.99 55.88 37.55 56.41C38.14 56.97 38.16 57.89 37.62 58.46L35.55 60.65C35.22 60.99 34.63 61.01 34.27 60.68L33.48 59.93ZM39.42 65.02L37.31 63.04L38.13 62.17C38.65 61.61 39.57 61.55 40.18 62.13C40.45 62.39 40.62 62.74 40.63 63.13C40.64 63.51 40.5 63.87 40.24 64.15L39.42 65.02ZM58.66 53.31C58.15 53.86 57.26 53.98 56.58 53.36L56.58 53.36L52.14 49.56C51.54 49.04 50.62 49.11 50.09 49.72C49.57 50.33 49.64 51.25 50.25 51.77L54.64 55.53C54.64 55.54 54.64 55.54 54.65 55.54C55.23 56.08 55.27 57 54.73 57.59C54.19 58.18 53.28 58.21 52.72 57.71C52.71 57.7 52.7 57.69 52.7 57.69L48.91 54.04C48.41 53.55 47.47 53.44 46.86 54.07L46.86 54.07L46.85 54.07C46.26 54.69 46.38 55.64 46.89 56.13L46.89 56.13L46.91 56.15L50.7 59.81C50.71 59.82 50.71 59.82 50.71 59.82C51.28 60.37 51.32 61.27 50.78 61.86C50.24 62.45 49.32 62.48 48.75 61.96L45.98 59.29C45.45 58.77 44.3 58.45 43.6 59.21C43.05 59.8 43.09 60.72 43.68 61.27L46.74 64.09C47.33 64.63 47.37 65.55 46.83 66.14C46.39 66.61 45.71 66.74 45.13 66.47C44.93 66.38 44.87 66.33 43.36 64.93L43.22 64.8C43.44 64.25 43.56 63.65 43.54 63.04C43.5 61.88 43.02 60.8 42.15 59.98C41.7 59.56 41.17 59.27 40.61 59.09C41.28 57.4 40.85 55.52 39.55 54.29C38.89 53.67 38.05 53.32 37.17 53.21C37.24 51.96 36.8 50.69 35.81 49.76C34.66 48.67 32.93 48.39 31.45 48.86C31.23 48.22 30.87 47.62 30.34 47.12C28.73 45.6 26.01 45.63 24.39 47.13L22.71 45.73C22.26 45.36 21.94 44.89 21.76 44.35L30.07 31.46C32.36 31.52 34.2 30.89 36.78 32.16C34.05 32.92 32.39 35.73 33.08 38.51C33.78 41.28 36.54 42.98 39.42 42.33C39.42 42.33 39.43 42.33 39.43 42.33L45.59 40.95C46.12 40.81 46.69 40.94 47.12 41.28C62.83 54.95 57.41 50.23 58.58 51.25C59.17 51.8 59.21 52.72 58.66 53.31ZM65.63 44.62L60.31 48.89C46.95 36.6 59.3 47.87 48.94 39.01C47.8 38.1 46.28 37.77 44.91 38.12L38.8 39.49C38.8 39.49 38.79 39.49 38.79 39.49L38.79 39.49C37.32 39.82 36.18 38.89 35.91 37.8C35.59 36.54 36.36 35.26 37.59 34.94C39.4 34.51 37.56 34.94 45.06 33.15C45.1 33.15 45.14 33.16 45.18 33.15C45.18 33.14 45.19 33.14 45.19 33.14L46.34 32.85C48.42 32.35 48.16 32.19 49.55 32.72C52.6 33.88 55.5 34.15 58.74 32.99L62.21 31.38L68.45 43.5C66.05 44.41 65.95 44.36 65.63 44.62ZM76.64 43.7L74.13 45C73.43 45.36 72.52 45.06 72.17 44.37L64.2 28.87C64.19 28.87 64.19 28.86 64.19 28.86C64.19 28.85 64.18 28.85 64.18 28.84L63.78 28.07C63.42 27.36 63.7 26.48 64.41 26.11L66.93 24.81C67.65 24.44 68.53 24.73 68.89 25.44L77.27 41.74C77.64 42.45 77.36 43.33 76.64 43.7Z" fill="#000000" fill-opacity="1.000000" fill-rule="nonzero"/>
		<path id="Vector" d="M69.82 46.1C71.06 47.99 73.5 48.6 75.46 47.59L77.98 46.29C80.12 45.19 80.96 42.55 79.86 40.41L71.48 24.11C70.36 21.94 67.72 21.13 65.6 22.22L63.08 23.52C61.14 24.52 60.28 26.76 60.94 28.77L57.64 30.3C55.18 31.17 52.9 30.89 50.59 30C48.46 29.19 47.52 29.5 46.69 29.77C46.37 29.87 46.07 29.97 45.73 30C45.72 30 45.72 30 45.71 30C44.31 30.34 41.91 30.91 40.79 31.18L39.03 30.07C36.48 28.47 34.1 28.4 32.64 28.46C32.46 28.47 32.29 28.48 32.13 28.48C31.83 28.5 31.59 28.51 31.43 28.5C31.45 28.36 31.46 28.22 31.46 28.08C31.51 26.49 30.72 25.11 29.48 24.31L27.1 22.77C25.09 21.48 22.38 22.03 21.06 24.08L11.15 39.47C9.84 41.49 10.42 44.19 12.45 45.5L14.83 47.04C16.23 47.94 18.06 48.01 19.59 46.98C19.67 46.93 19.74 46.88 19.81 46.83C19.9 46.95 19.99 47.07 20.09 47.19C20.31 47.47 20.56 47.74 20.84 47.97L21.45 48.48L22.37 49.25L22.19 49.44C22.06 49.58 21.94 49.73 21.83 49.89C20.87 51.34 21.06 53.32 22.36 54.54L23.44 55.56C24.07 56.15 24.87 56.48 25.73 56.52C25.88 57.25 26.25 57.95 26.83 58.5L27.67 59.28C28.37 59.95 29.29 60.31 30.26 60.31C30.32 60.31 30.37 60.3 30.43 60.29C30.61 60.96 30.97 61.57 31.48 62.05L32.28 62.8C32.88 63.37 33.64 63.7 34.45 63.8C34.59 64.28 34.84 64.71 35.21 65.06L37.52 67.24C38.04 67.72 38.71 67.99 39.42 67.99C40.18 67.99 40.92 67.67 41.44 67.12C43.09 68.65 43.28 68.82 43.91 69.12C44.5 69.39 45.13 69.52 45.75 69.52C46.94 69.52 48.11 69.04 48.96 68.11C49.73 67.29 50.09 66.24 50.1 65.2C51.14 65.1 52.16 64.66 52.92 63.83C53.68 63.01 54.05 61.97 54.06 60.93C55.1 60.83 56.11 60.39 56.87 59.56C57.63 58.74 58 57.69 58 56.64C59.04 56.55 60.05 56.1 60.8 55.28C61.8 54.2 62.14 52.74 61.85 51.39L67.27 47.04L69.82 46.1ZM45.93 31.18L43.78 31.7L40.58 32.46L38.39 31.08Q38.32 31.04 38.25 31Q35.74 29.49 32.2 29.68Q31.58 29.72 31.34 29.7L30.09 29.6L30.24 28.36Q30.36 27.34 29.99 26.57Q29.63 25.83 28.83 25.32L26.45 23.78Q25.12 22.92 24.02 23.16Q22.93 23.4 22.07 24.73L12.15 40.12Q11.3 41.45 11.53 42.54Q11.77 43.64 13.1 44.5L15.48 46.03Q16.37 46.6 17.25 46.58Q18.18 46.56 19.09 45.87L20.07 45.13L20.79 46.13Q21.2 46.71 21.61 47.05L24.12 49.14L23.07 50.26Q22.25 51.14 22.28 51.99Q22.31 52.84 23.19 53.67L24.26 54.68Q24.52 54.93 24.83 55.08Q25.26 55.29 25.79 55.32L26.71 55.37L26.9 56.27Q26.99 56.72 27.21 57.08Q27.39 57.38 27.65 57.62L28.49 58.41Q28.87 58.76 29.31 58.94Q29.73 59.1 30.21 59.11Q30.3 59.1 30.38 59.09L31.33 59.05L31.59 59.97Q31.72 60.45 31.99 60.83Q32.13 61.02 32.3 61.18L33.1 61.93Q33.32 62.14 33.58 62.29Q34.03 62.54 34.59 62.61L35.39 62.7L35.61 63.47Q35.7 63.79 35.88 64.03Q35.95 64.11 36.03 64.19L38.35 66.36Q38.57 66.58 38.84 66.69Q39.11 66.79 39.42 66.79Q39.75 66.79 40.04 66.67Q40.33 66.55 40.57 66.3L41.39 65.43L42.26 66.24Q43.94 67.81 44.41 68.03Q44.77 68.19 45.14 68.26Q45.44 68.32 45.75 68.32Q46.42 68.32 46.99 68.08Q47.6 67.83 48.08 67.3Q48.43 66.92 48.63 66.48Q48.89 65.89 48.9 65.19L48.91 64.1L49.99 64Q50.74 63.94 51.32 63.6Q51.72 63.37 52.04 63.02Q52.38 62.64 52.58 62.21Q52.85 61.62 52.86 60.91L52.88 59.83L53.95 59.73Q54.69 59.66 55.27 59.33Q55.67 59.1 55.99 58.75Q56.34 58.37 56.54 57.91Q56.8 57.33 56.8 56.64L56.81 55.55L57.89 55.45Q58.63 55.38 59.21 55.04Q59.6 54.81 59.92 54.47Q60.46 53.89 60.65 53.21Q60.86 52.48 60.68 51.65L60.52 50.92L66.67 45.98L70.3 44.64L70.82 45.44Q71.6 46.63 72.63 46.9Q73.65 47.17 74.91 46.52L77.43 45.22Q78.84 44.5 79.18 43.43Q79.52 42.37 78.8 40.96L70.41 24.66Q70.1 24.06 69.62 23.66Q69.17 23.28 68.55 23.09Q67.93 22.89 67.32 22.94Q66.72 22.99 66.15 23.29L66.15 23.29L63.63 24.59Q62.44 25.2 62.05 26.14Q61.66 27.09 62.08 28.39L62.41 29.4L58.1 31.41L58.04 31.43Q57.28 31.7 56.49 31.85Q53.49 32.4 50.16 31.12Q48.45 30.46 47.08 30.9Q47.07 30.9 47.06 30.91Q46.39 31.13 45.93 31.18ZM74.68 46.06L74.68 46.06L77.19 44.77Q78.37 44.16 78.66 43.27Q78.95 42.38 78.34 41.19L69.96 24.89Q69.71 24.4 69.32 24.07Q68.93 23.75 68.41 23.58Q67.9 23.41 67.4 23.45Q66.88 23.49 66.38 23.75L63.86 25.04Q62.68 25.65 62.4 26.54Q62.11 27.44 62.72 28.62L63.11 29.38L63.11 29.39Q63.12 29.4 63.12 29.4L71.1 44.92Q71.33 45.36 71.68 45.67Q72.08 46.04 72.65 46.22Q73.22 46.4 73.76 46.35Q74.23 46.29 74.68 46.06ZM64.18 28.84L63.78 28.07C63.42 27.36 63.7 26.48 64.41 26.11L66.93 24.81C67.65 24.44 68.53 24.73 68.89 25.44L77.27 41.74C77.64 42.45 77.36 43.33 76.64 43.7L74.13 45C73.43 45.36 72.52 45.06 72.17 44.37L64.2 28.87C64.19 28.87 64.19 28.86 64.19 28.86C64.19 28.85 64.18 28.85 64.18 28.84ZM12.62 43.34Q12.91 43.76 13.38 44.06L13.38 44.06L15.76 45.6Q16.16 45.86 16.61 45.96Q17.16 46.08 17.76 45.95Q18.36 45.82 18.81 45.48Q19.17 45.21 19.43 44.8L29.34 29.42Q29.64 28.96 29.73 28.46Q29.82 27.96 29.71 27.42Q29.6 26.89 29.31 26.47Q29.02 26.05 28.55 25.75L26.17 24.21Q25.05 23.49 24.13 23.69Q23.22 23.89 22.5 25.01L12.59 40.39Q12.29 40.85 12.2 41.35Q12.1 41.85 12.22 42.39Q12.33 42.92 12.62 43.34ZM16.41 44.59L14.03 43.06C13.35 42.62 13.16 41.72 13.59 41.04L23.51 25.66C23.94 24.98 24.84 24.78 25.52 25.22L27.9 26.76C28.58 27.19 28.77 28.09 28.34 28.77L18.42 44.15C18 44.81 17.06 45.01 16.41 44.59ZM55.65 46.23Q57.86 48.27 59.5 49.77L60.26 50.47L66.38 45.56Q66.43 45.52 67.02 45.31Q67.98 44.96 68.87 44.62L70.13 44.15L62.75 29.81L58.29 31.88Q57.23 32.26 56.13 32.41Q53.17 32.82 49.98 31.6Q49.12 31.27 48.27 31.27Q47.65 31.27 47.03 31.43Q46.46 31.58 46.04 31.68L45 31.95Q44.93 31.96 44.86 31.97L44.82 31.98L38.25 33.55L37.3 33.78Q35.61 34.21 34.96 35.27Q34.31 36.36 34.74 38.09Q35.15 39.72 36.18 40.37Q37.23 41.04 38.92 40.69L38.94 40.69L39.08 40.65Q39.09 40.65 39.1 40.65L45.19 39.29L45.2 39.28Q45.96 39.09 46.66 39.22Q47.46 39.37 48.18 39.94Q51.43 42.73 52.43 43.48Q52.8 43.76 53.1 43.89Q53.62 44.36 55.65 46.23ZM54.43 43.48C54.45 43.5 54.48 43.52 54.5 43.54C54.95 43.95 55.58 44.53 56.46 45.34C57.41 46.22 58.67 47.38 60.31 48.89L65.63 44.62C65.89 44.41 66 44.41 67.31 43.92C67.62 43.81 67.99 43.67 68.45 43.5L67.89 42.43L62.21 31.38L58.74 32.99C55.5 34.15 52.6 33.88 49.55 32.72C48.44 32.3 48.38 32.31 47.34 32.59C47.08 32.66 46.76 32.75 46.34 32.85L45.19 33.14C45.19 33.14 45.18 33.14 45.18 33.15C45.16 33.15 45.14 33.15 45.12 33.15C45.1 33.15 45.08 33.15 45.06 33.15C39.72 34.43 39.11 34.57 38.55 34.71C38.33 34.77 38.11 34.82 37.59 34.94C36.36 35.26 35.59 36.54 35.91 37.8C36.18 38.89 37.32 39.82 38.79 39.49L38.79 39.49C38.79 39.49 38.8 39.49 38.8 39.49L44.91 38.12C46.28 37.77 47.8 38.1 48.94 39.01C50.64 40.47 51.73 41.38 52.42 41.94C52.48 41.99 52.54 42.04 52.6 42.08C53.75 43.02 53.6 42.8 53.51 42.68C53.49 42.66 53.48 42.63 53.48 42.63C53.49 42.62 53.67 42.78 54.43 43.48ZM55.77 54.25L51.36 50.47Q51.27 50.39 51.18 50.4Q51.09 50.4 51 50.5Q50.97 50.54 50.96 50.58Q50.94 50.63 50.94 50.69Q50.95 50.74 50.97 50.78Q50.99 50.83 51.03 50.86L55.39 54.6Q55.41 54.61 55.43 54.63L55.45 54.64L55.46 54.66Q56.43 55.56 56.47 56.5Q56.51 57.43 55.61 58.4Q54.72 59.37 53.79 59.42Q52.87 59.46 51.91 58.6Q51.87 58.56 51.84 58.53L48.08 54.9Q47.99 54.81 47.9 54.81Q47.86 54.81 47.82 54.83L47.75 54.97L47.64 55.02Q47.63 55.05 47.63 55.09Q47.63 55.17 47.71 55.26L47.74 55.28L51.5 58.92Q51.5 58.92 51.5 58.92L51.52 58.94L51.54 58.96Q52.49 59.86 52.52 60.79Q52.55 61.72 51.66 62.67Q50.76 63.65 49.82 63.69Q48.9 63.73 47.94 62.85L47.93 62.84L45.15 60.15Q45.13 60.13 45.11 60.11Q44.95 59.99 44.72 59.96Q44.56 59.94 44.49 60.01Q44.48 60.02 44.48 60.02Q44.44 60.06 44.42 60.12Q44.41 60.16 44.41 60.21Q44.41 60.26 44.43 60.3Q44.45 60.35 44.49 60.38L47.55 63.21Q48.53 64.11 48.57 65.05Q48.6 65.98 47.71 66.95Q47.05 67.67 46.28 67.82Q45.51 67.97 44.63 67.56Q44.23 67.38 42.54 65.81L41.79 65.11L42.1 64.35Q42.29 63.88 42.33 63.4Q42.34 63.24 42.34 63.07Q42.32 62.48 42.11 61.97Q41.86 61.36 41.33 60.86Q40.88 60.44 40.23 60.23L39.02 59.83L39.49 58.64Q39.89 57.63 39.7 56.76Q39.5 55.9 38.73 55.17Q38.58 55.03 38.42 54.91Q37.83 54.5 37.02 54.4L35.91 54.25L35.98 53.14Q36.02 52.34 35.74 51.69Q35.49 51.11 34.99 50.63Q34.47 50.14 33.84 49.94Q32.93 49.65 31.82 50.01L30.7 50.36L30.32 49.26Q30.08 48.58 29.63 48.1Q29.58 48.05 29.52 47.99Q28.48 47.01 27.42 47Q26.32 46.98 25.2 48.01L24.43 48.73L21.94 46.65Q21.49 46.28 21.16 45.82Q20.82 45.33 20.62 44.74L20.44 44.19L29.43 30.24L30.1 30.26Q30.67 30.27 31.77 30.21Q35.14 30.02 37.31 31.08L40.13 32.47L37.1 33.32Q35.2 33.85 34.48 35.07Q33.77 36.3 34.25 38.22Q34.72 40.09 35.9 40.84Q37.14 41.61 39.15 41.16L39.18 41.15L39.22 41.14Q39.23 41.14 39.24 41.14L45.31 39.78Q46.01 39.61 46.65 39.75Q47.29 39.89 47.87 40.35L47.89 40.36L59.28 50.27L59.37 50.35L59.37 50.35Q59.41 50.38 59.44 50.41Q60.37 51.29 60.41 52.21Q60.44 53.15 59.55 54.12Q58.67 55.07 57.75 55.12Q56.79 55.17 55.77 54.25L55.77 54.25ZM56.58 53.36L52.14 49.56C51.54 49.04 50.62 49.11 50.09 49.72C49.57 50.33 49.64 51.25 50.25 51.77L54.64 55.53C54.64 55.54 54.64 55.54 54.65 55.54C55.23 56.08 55.27 57 54.73 57.59C54.19 58.18 53.28 58.21 52.72 57.71C52.71 57.7 52.7 57.69 52.7 57.69L48.91 54.04C48.41 53.55 47.47 53.44 46.86 54.07L46.86 54.07L46.85 54.07C46.26 54.69 46.38 55.64 46.89 56.13L46.89 56.13L46.91 56.15L50.7 59.81C50.71 59.82 50.71 59.82 50.71 59.82C51.28 60.37 51.32 61.27 50.78 61.86C50.24 62.45 49.32 62.48 48.75 61.96L45.98 59.29C45.45 58.77 44.3 58.45 43.6 59.21C43.51 59.31 43.43 59.41 43.37 59.52C43.08 60.09 43.19 60.81 43.68 61.27L44.65 62.17L46.74 64.09C47.33 64.63 47.37 65.55 46.83 66.14C46.39 66.61 45.71 66.74 45.13 66.47C44.93 66.38 44.87 66.33 43.36 64.93L43.22 64.8C43.44 64.25 43.56 63.65 43.54 63.04C43.54 62.94 43.53 62.85 43.52 62.75C43.42 61.7 42.95 60.73 42.15 59.98C42.11 59.95 42.07 59.91 42.03 59.87C41.76 59.64 41.46 59.45 41.15 59.3C40.97 59.22 40.79 59.15 40.61 59.09C40.68 58.91 40.74 58.73 40.78 58.54C41.18 57.01 40.72 55.39 39.55 54.29C38.89 53.67 38.05 53.32 37.17 53.21C37.24 51.96 36.8 50.69 35.81 49.76C34.66 48.67 32.93 48.39 31.45 48.86C31.23 48.22 30.87 47.62 30.34 47.12C28.73 45.6 26.01 45.63 24.39 47.13L22.71 45.73C22.26 45.36 21.94 44.89 21.76 44.35L30.07 31.46C30.68 31.47 31.27 31.44 31.84 31.41C32.9 31.35 33.94 31.29 35.08 31.55C35.62 31.67 36.18 31.86 36.78 32.16C36.22 32.32 35.71 32.56 35.25 32.87C33.47 34.07 32.53 36.3 33.08 38.51C33.78 41.28 36.54 42.98 39.42 42.33C39.42 42.33 39.42 42.33 39.42 42.33C39.43 42.33 39.43 42.33 39.43 42.33L45.59 40.95C46.12 40.81 46.69 40.94 47.12 41.28C53.23 46.6 56.14 49.13 57.49 50.3C57.96 50.71 58.24 50.95 58.4 51.09C58.4 51.09 58.44 51.13 58.58 51.25C58.58 51.25 58.58 51.26 58.59 51.26C58.9 51.55 59.06 51.96 59.05 52.37C59.04 52.71 58.91 53.04 58.66 53.31C58.15 53.86 57.26 53.98 56.58 53.36L56.58 53.36ZM24.43 49.55L23.45 50.6L23.45 50.6Q22.8 51.3 22.82 51.97Q22.85 52.65 23.54 53.3L24.61 54.31Q24.89 54.57 25.22 54.7Q25.57 54.84 25.97 54.83Q26.37 54.82 26.7 54.67Q27.02 54.52 27.28 54.26Q27.3 54.24 27.31 54.23L27.32 54.22L27.32 54.22L28.3 53.16L29.28 52.11Q30.19 51.15 30.16 50.21Q30.13 49.27 29.17 48.37Q28.21 47.46 27.27 47.49Q26.35 47.51 25.45 48.46Q25.44 48.47 25.43 48.48L25.43 48.48L25.43 48.48L25.42 48.49L24.43 49.55ZM26.3 49.3C26.18 49.43 24.48 51.26 24.33 51.42C24.06 51.71 24.08 52.16 24.36 52.42L25.24 53.25L25.44 53.44C25.71 53.69 26.16 53.7 26.43 53.41C26.44 53.41 26.44 53.4 26.44 53.4C26.44 53.41 26.43 53.41 26.43 53.41L26.44 53.4L26.44 53.4C26.51 53.33 27.11 52.68 27.63 52.13C28.01 51.72 28.35 51.35 28.41 51.29C28.96 50.71 28.93 49.79 28.35 49.24C28.09 49 27.76 48.86 27.43 48.85C27.03 48.83 26.62 48.97 26.31 49.3C26.31 49.3 26.3 49.3 26.3 49.3C26.3 49.3 26.3 49.3 26.3 49.3ZM27.26 55.89Q27.31 56.59 28 57.25L28 57.25L28.84 58.04Q29.13 58.3 29.47 58.44Q29.86 58.6 30.33 58.59Q30.81 58.57 31.2 58.38Q31.52 58.22 31.77 57.95L33.14 56.49L34.78 54.75L34.78 54.75L34.78 54.74L34.78 54.74Q34.79 54.74 34.79 54.74Q35.68 53.78 35.65 52.86Q35.62 51.93 34.66 51.03Q34.2 50.6 33.66 50.42Q33.22 50.27 32.72 50.29Q32.19 50.32 31.74 50.52Q31.3 50.72 30.93 51.11Q30.93 51.11 30.93 51.11Q30.93 51.11 30.92 51.12L30.92 51.12L30.92 51.12L30.92 51.12L29.4 52.75L27.85 54.4L27.83 54.43Q27.21 55.18 27.26 55.89ZM31.79 51.94C31.66 52.08 28.89 55.05 28.76 55.19C28.47 55.54 28.49 56.06 28.82 56.38L29.66 57.16C30 57.48 30.58 57.46 30.9 57.12C31.67 56.3 33.77 54.07 33.9 53.93L33.9 53.93C33.9 53.93 33.91 53.92 33.91 53.92C33.91 53.92 33.91 53.92 33.91 53.92C34.21 53.6 34.33 53.18 34.28 52.78C34.24 52.45 34.09 52.14 33.84 51.9C33.56 51.64 33.24 51.51 32.92 51.49C32.5 51.47 32.09 51.63 31.8 51.94L31.8 51.94C31.8 51.94 31.79 51.94 31.79 51.94L31.79 51.94ZM34.63 55.65L32.54 57.87L32.52 57.89L32.5 57.92Q31.85 58.68 31.89 59.41Q31.93 60.13 32.65 60.81L33.45 61.56Q34.21 62.27 34.95 62.25Q35.7 62.23 36.42 61.47L38.49 59.28Q38.86 58.89 39.04 58.43Q39.22 57.95 39.21 57.39Q39.19 56.83 38.98 56.37Q38.77 55.91 38.37 55.54Q37.99 55.17 37.53 54.99Q37.06 54.81 36.51 54.82Q35.96 54.83 35.5 55.03Q35.02 55.24 34.63 55.65ZM33.48 59.93C33.15 59.62 33.08 59.09 33.42 58.7L35.5 56.48C36.07 55.87 36.99 55.88 37.55 56.41C38.14 56.97 38.16 57.89 37.62 58.46L35.55 60.65C35.22 60.99 34.63 61.01 34.27 60.68L33.48 59.93ZM37.25 61.34L36.43 62.21L35.61 63.09L39.47 66.72L41.11 64.97Q41.48 64.58 41.66 64.11Q41.84 63.64 41.83 63.09Q41.81 62.54 41.6 62.08Q41.39 61.62 41 61.25Q40.58 60.86 40.08 60.68Q39.62 60.51 39.08 60.52Q38.51 60.54 38.03 60.77Q37.6 60.97 37.25 61.34ZM38.18 63.86L37.31 63.04L38.13 62.17C38.13 62.17 38.13 62.16 38.13 62.16C38.65 61.61 39.57 61.55 40.18 62.13C40.45 62.39 40.62 62.74 40.63 63.13C40.64 63.51 40.5 63.87 40.24 64.15L39.42 65.02L38.18 63.86Z" fill="#FFFFFF" fill-opacity="1.000000" fill-rule="evenodd"/>
	</g>
</svg>
