<svg width="248.257568" height="209.366089" viewBox="0 0 248.258 209.366" fill="none" xmlns="http://www.w3.org/2000/svg" xmlns:xlink="http://www.w3.org/1999/xlink">
	<desc>
			Created with Pixso.
	</desc>
	<defs/>
	<path id="Vector" d="M243.02 198.89L230.97 198.89L230.97 48.57C230.97 46.48 229.92 44.38 227.83 43.86L126.22 0.39C124.65 -0.14 123.6 -0.14 122.03 0.39L20.42 43.86C18.33 44.91 17.28 46.48 17.28 48.57L17.28 198.89L5.23 198.89C2.61 198.89 0 201.51 0 204.12C0 206.74 2.61 209.36 5.23 209.36L41.9 209.36L41.9 63.24C41.9 60.62 44.51 58 47.13 58L201.12 58C203.73 58 206.35 60.62 206.35 63.24L206.35 209.36L243.02 209.36C245.63 209.36 248.25 206.74 248.25 204.12C248.25 201.51 246.16 198.89 243.02 198.89Z" fill="#FFC501" fill-opacity="0.140000" fill-rule="nonzero"/>
	<path id="Vector" d="M113.65 150.7L94.8 150.7L94.8 171.65C94.8 174.27 92.7 176.89 89.56 176.89C86.94 176.89 84.32 174.27 84.32 171.65L84.32 150.7L65.47 150.7C62.85 150.7 60.23 153.32 60.23 155.94L60.23 204.12C60.23 206.74 62.85 209.36 65.47 209.36L113.65 209.36C116.27 209.36 118.89 206.74 118.89 204.12L118.89 155.94C118.89 152.8 116.79 150.7 113.65 150.7Z" fill="#FFC501" fill-opacity="0.140000" fill-rule="nonzero"/>
	<path id="Vector" d="M182.79 150.7L163.93 150.7L163.93 171.65C163.93 174.27 161.31 176.89 158.69 176.89C156.08 176.89 153.46 174.27 153.46 171.65L153.46 150.7L134.6 150.7C131.46 150.7 129.36 153.32 129.36 155.94L129.36 204.12C129.36 206.74 131.46 209.36 134.6 209.36L182.79 209.36C185.41 209.36 188.02 206.74 188.02 204.12L188.02 155.94C188.02 152.8 185.93 150.7 182.79 150.7Z" fill="#FFC501" fill-opacity="0.140000" fill-rule="nonzero"/>
	<path id="Vector" d="M147.7 81.57L128.84 81.57L128.84 102.52C128.84 105.14 126.23 107.75 123.61 107.75C120.99 107.75 118.37 105.14 118.37 102.52L118.37 81.57L99.51 81.57C96.37 81.57 94.28 84.18 94.28 86.8L94.28 134.99C94.28 137.61 96.37 140.23 99.51 140.23L147.7 140.23C150.32 140.23 152.94 137.61 152.94 134.99L152.94 86.8C152.94 83.66 150.84 81.57 147.7 81.57Z" fill="#FFC501" fill-opacity="0.140000" fill-rule="nonzero"/>
</svg>
