<svg width="250.243774" height="138.946777" viewBox="0 0 250.244 138.947" fill="none" xmlns="http://www.w3.org/2000/svg" xmlns:xlink="http://www.w3.org/1999/xlink">
	<desc>
			Created with Pixso.
	</desc>
	<defs/>
	<path id="Vector" d="M245.86 95.86L245.86 65.8C245.85 59.99 243.63 54.4 239.65 50.16L216 25.06C211.66 20.52 205.65 17.96 199.36 17.98L152.19 17.98L152.19 0L47.25 0C44.01 0 40.91 1.28 38.62 3.56C36.32 5.85 35.03 8.95 35.02 12.19L35.02 24.42L8.35 24.42C5.36 24.42 2.6 26.01 1.11 28.59C-0.38 31.18 -0.38 34.36 1.11 36.94C2.6 39.53 5.36 41.12 8.35 41.12L70.68 41.12C74.5 41.39 77.9 43.65 79.62 47.08C81.35 50.5 81.14 54.58 79.08 57.81C77.02 61.04 73.41 62.95 69.58 62.84L45.61 62.84L45.61 63.03L29.23 63.03C26.09 63.22 23.26 65 21.74 67.76C20.22 70.52 20.22 73.86 21.74 76.62C23.26 79.37 26.09 81.16 29.23 81.34L61.41 81.34C64.46 81.86 67.04 83.88 68.27 86.72C69.5 89.56 69.21 92.83 67.5 95.4C65.79 97.98 62.89 99.52 59.8 99.49L45.61 99.49L45.61 107.18C43.53 107.96 42.14 109.95 42.13 112.17L42.13 121.28L68.52 121.28C68.28 114.47 70.81 107.85 75.54 102.95C80.27 98.05 86.79 95.28 93.61 95.28C100.42 95.28 106.94 98.05 111.67 102.95C116.4 107.85 118.93 114.47 118.69 121.28L179.35 121.28C179.11 114.47 181.64 107.85 186.37 102.95C191.1 98.05 197.62 95.28 204.43 95.28C211.25 95.28 217.77 98.05 222.5 102.95C227.23 107.85 229.76 114.47 229.52 121.28L250.24 121.28L250.24 101.1C250.24 98.53 248.4 96.32 245.86 95.86L245.86 95.86ZM214.33 60.46L173.4 60.46C170.62 60.46 168.38 58.21 168.38 55.44L168.38 38.71C168.38 35.93 170.62 33.68 173.4 33.68L198.56 33.68C199.95 33.69 201.28 34.27 202.23 35.29L217.87 52.19L217.87 52.19C219.2 53.63 219.58 55.72 218.82 57.53C218.07 59.35 216.32 60.55 214.36 60.62L214.33 60.46Z" fill="#FFC501" fill-opacity="0.140000" fill-rule="nonzero"/>
	<path id="Vector" d="M204.42 103.61C199.73 103.61 195.24 105.47 191.92 108.79C188.61 112.1 186.75 116.59 186.75 121.28C186.75 125.96 188.61 130.46 191.92 133.77C195.24 137.08 199.73 138.94 204.42 138.94C209.1 138.94 213.59 137.08 216.91 133.77C220.22 130.45 222.08 125.96 222.08 121.28C222.08 116.59 220.22 112.1 216.91 108.79C213.59 105.47 209.1 103.61 204.42 103.61ZM204.42 129.74C202.17 129.74 200.02 128.85 198.43 127.26C196.84 125.67 195.95 123.52 195.95 121.28C195.95 119.03 196.84 116.88 198.43 115.29C200.02 113.71 202.17 112.81 204.42 112.81C206.66 112.81 208.81 113.71 210.4 115.29C211.99 116.88 212.88 119.03 212.88 121.28C212.88 123.52 211.99 125.67 210.4 127.26C208.81 128.85 206.66 129.74 204.42 129.74Z" fill="#FFC501" fill-opacity="0.140000" fill-rule="nonzero"/>
	<path id="Vector" d="M93.59 103.61C88.91 103.62 84.42 105.49 81.11 108.8C77.81 112.12 75.95 116.61 75.96 121.3C75.96 125.98 77.83 130.47 81.14 133.78C84.46 137.09 88.95 138.95 93.63 138.94C98.32 138.94 102.81 137.08 106.12 133.77C109.43 130.45 111.29 125.96 111.29 121.28C111.29 116.59 109.42 112.09 106.1 108.77C102.78 105.46 98.28 103.6 93.59 103.61L93.59 103.61ZM93.59 129.74C91.35 129.74 89.2 128.85 87.61 127.26C86.02 125.67 85.13 123.52 85.13 121.28C85.13 119.03 86.02 116.88 87.61 115.29C89.2 113.71 91.35 112.81 93.59 112.81C95.84 112.81 97.99 113.71 99.58 115.29C101.16 116.88 102.06 119.03 102.06 121.28C102.06 123.52 101.16 125.67 99.58 127.26C97.99 128.85 95.84 129.74 93.59 129.74Z" fill="#FFC501" fill-opacity="0.140000" fill-rule="nonzero"/>
</svg>
