<svg width="225.156738" height="209.982666" viewBox="0 0 225.157 209.983" fill="none" xmlns="http://www.w3.org/2000/svg" xmlns:xlink="http://www.w3.org/1999/xlink">
	<desc>
			Created with Pixso.
	</desc>
	<defs/>
	<path id="Vector" d="M203.97 173.6L152.82 173.6C148.53 173.6 148.53 180.13 152.82 180.13L184.94 180.13C193.17 180.13 199.86 186.82 199.86 195.05C199.86 203.28 193.17 209.98 184.94 209.98L41.15 209.98L41.15 89.6L45.16 89.59C54.6 89.57 62.06 85.85 67.43 78.07C76.77 64.57 77.9 62.05 91.76 52.99C107.72 42.56 114.36 24.36 118.36 12.37C121.07 4.24 129.41 -2.9 135.31 3.31C145.97 14.51 141.56 51.07 128.97 65.6C127.15 67.7 128.66 71 131.44 71L200.28 71C208.51 71 215.2 77.69 215.2 85.92C215.2 94.15 208.51 100.84 200.28 100.84L152.83 100.84C148.53 100.84 148.53 107.37 152.83 107.37L210.23 107.37C218.46 107.37 225.15 114.07 225.15 122.3C225.15 130.53 218.46 137.22 210.23 137.22L152.83 137.22C148.53 137.22 148.53 143.75 152.83 143.75L203.98 143.75C212.21 143.75 218.9 150.44 218.9 158.67C218.9 166.91 212.21 173.6 203.98 173.6L203.97 173.6ZM0 89.66L27.07 89.61L27.07 209.98L0 209.98L0 89.66Z" fill="#FFC501" fill-opacity="0.140000" fill-rule="evenodd"/>
</svg>
