<svg width="66.406006" height="52.932373" viewBox="0 0 66.406 52.9324" fill="none" xmlns="http://www.w3.org/2000/svg" xmlns:xlink="http://www.w3.org/1999/xlink">
	<desc>
			Created with Pixso.
	</desc>
	<defs/>
	<path id="Vector" d="M65.3 47.84L61.98 47.84L61.98 1.01C61.98 0.45 61.48 0 60.87 0L54.23 0C53.62 0 53.12 0.45 53.12 1.01L53.12 47.84L49.8 47.84L49.8 11.19C49.8 10.63 49.31 10.17 48.69 10.17L42.05 10.17C41.44 10.17 40.95 10.63 40.95 11.19L40.95 47.84L37.63 47.84L37.63 6.1C37.63 5.54 37.13 5.08 36.52 5.08L29.88 5.08C29.27 5.08 28.77 5.54 28.77 6.1L28.77 47.84L25.45 47.84L25.45 19.34C25.45 18.77 24.96 18.32 24.35 18.32L17.7 18.32C17.09 18.32 16.6 18.77 16.6 19.34L16.6 47.84L13.28 47.84L13.28 11.19C13.28 10.63 12.78 10.17 12.17 10.17L5.53 10.17C4.92 10.17 4.42 10.63 4.42 11.19L4.42 47.84L1.1 47.84C0.49 47.84 0 48.29 0 48.86L0 51.91C0 52.47 0.49 52.93 1.1 52.93L65.29 52.93C65.9 52.93 66.4 52.47 66.4 51.91L66.4 48.86C66.4 48.29 65.91 47.84 65.3 47.84ZM55.34 2.03L59.76 2.03L59.76 47.84L55.34 47.84L55.34 2.03ZM43.16 12.21L47.59 12.21L47.59 47.84L43.16 47.84L43.16 12.21ZM30.99 7.12L35.41 7.12L35.41 47.84L30.99 47.84L30.99 7.12ZM18.81 20.35L23.24 20.35L23.24 47.84L18.81 47.84L18.81 20.35ZM6.64 12.21L11.06 12.21L11.06 47.84L6.64 47.84L6.64 12.21ZM64.19 50.89L2.21 50.89L2.21 49.87L64.19 49.87L64.19 50.89Z" fill="#000000" fill-opacity="1.000000" fill-rule="nonzero"/>
	<path id="Vector" d="M61.98 47.04L61.98 47.84L65.3 47.84C65.91 47.84 66.4 48.29 66.4 48.86L66.4 51.91C66.4 52.47 65.9 52.93 65.29 52.93L1.1 52.93C0.49 52.93 0 52.47 0 51.91L0 48.86C0 48.29 0.49 47.84 1.1 47.84L4.42 47.84L4.42 11.19C4.42 10.63 4.92 10.17 5.53 10.17L12.17 10.17C12.78 10.17 13.28 10.63 13.28 11.19L13.28 47.04L13.28 47.84L16.6 47.84L16.6 19.34C16.6 18.77 17.09 18.32 17.7 18.32L24.35 18.32C24.96 18.32 25.45 18.77 25.45 19.34L25.45 47.04L25.45 47.84L28.77 47.84L28.77 6.1C28.77 5.54 29.27 5.08 29.88 5.08L36.52 5.08C37.13 5.08 37.63 5.54 37.63 6.1L37.63 47.04L37.63 47.84L40.95 47.84L40.95 11.19C40.95 10.63 41.44 10.17 42.05 10.17L48.69 10.17C49.31 10.17 49.8 10.63 49.8 11.19L49.8 47.04L49.8 47.84L53.12 47.84L53.12 1.01C53.12 0.45 53.62 0 54.23 0L60.87 0C61.48 0 61.98 0.45 61.98 1.01L61.98 47.04L61.98 47.04ZM61.18 1.01L61.18 47.84L61.18 48.64L65.3 48.64Q65.4 48.64 65.48 48.69Q65.51 48.7 65.54 48.72Q65.59 48.77 65.6 48.83Q65.6 48.84 65.6 48.86L65.6 51.91Q65.6 51.98 65.57 52.03Q65.5 52.13 65.29 52.13L1.1 52.13Q0.9 52.13 0.83 52.03Q0.8 51.98 0.8 51.91L0.8 48.86Q0.8 48.78 0.83 48.73Q0.9 48.64 1.1 48.64L5.22 48.64L5.22 11.19Q5.22 11.12 5.26 11.07Q5.33 10.97 5.53 10.97L12.17 10.97Q12.37 10.97 12.44 11.07Q12.48 11.12 12.48 11.19L12.48 48.64L17.4 48.64L17.4 19.34Q17.4 19.26 17.43 19.21Q17.5 19.12 17.7 19.12L24.35 19.12Q24.55 19.12 24.62 19.21Q24.65 19.26 24.65 19.34L24.65 48.64L29.57 48.64L29.57 6.1Q29.57 6.03 29.61 5.98Q29.67 5.88 29.88 5.88L36.52 5.88Q36.72 5.88 36.79 5.98Q36.83 6.03 36.83 6.1L36.83 48.64L41.75 48.64L41.75 11.19Q41.75 11.12 41.78 11.07Q41.85 10.97 42.05 10.97L48.69 10.97Q48.8 10.97 48.88 11.02Q48.91 11.04 48.94 11.06Q48.99 11.11 49 11.17Q49 11.18 49 11.19L49 48.64L53.92 48.64L53.92 1.01Q53.92 0.94 53.96 0.89Q54.02 0.8 54.23 0.8L60.87 0.8Q61.07 0.8 61.14 0.89Q61.18 0.94 61.18 1.01ZM60.56 48.64L60.56 1.23L54.54 1.23L54.54 48.64L60.56 48.64ZM59.76 2.03L55.34 2.03L55.34 2.83L55.34 47.04L55.34 47.84L59.76 47.84L59.76 2.03ZM36.21 48.64L36.21 6.32L30.19 6.32L30.19 48.64L36.21 48.64ZM31.79 7.12L34.61 7.12L35.41 7.12L35.41 47.84L30.99 47.84L30.99 7.12L31.79 7.12ZM11.86 48.64L11.86 11.41L5.84 11.41L5.84 48.64L11.86 48.64ZM48.39 48.64L48.39 11.41L42.36 11.41L42.36 48.64L48.39 48.64ZM11.06 12.21L6.64 12.21L6.64 13.01L6.64 47.04L6.64 47.84L11.06 47.84L11.06 12.21ZM47.59 12.21L43.16 12.21L43.16 47.84L47.59 47.84L47.59 47.04L47.59 13.01L47.59 12.21ZM24.04 48.64L24.04 19.55L18.01 19.55L18.01 48.64L24.04 48.64ZM23.24 20.35L22.44 20.35L19.61 20.35L18.81 20.35L18.81 47.84L23.24 47.84L23.24 20.35ZM1.41 49.07L1.41 51.69L64.99 51.69L64.99 49.07L1.41 49.07ZM3.01 49.87L63.39 49.87L64.19 49.87L64.19 50.89L2.21 50.89L2.21 49.87L3.01 49.87Z" fill="#FFFFFF" fill-opacity="1.000000" fill-rule="evenodd"/>
</svg>
