<?xml version="1.0" encoding="utf-8"?><svg xmlns="http://www.w3.org/2000/svg" xmlns:xlink="http://www.w3.org/1999/xlink"><symbol fill="none" viewBox="0 0 127.917 55.702" id="angle" xmlns="http://www.w3.org/2000/svg"><path d="M109 .7L.78 54.45h126.44L109 .7z" fill="#FFF" fill-rule="evenodd"/><path d="M.78 54.45h126.44L109 .7.78 54.45z" stroke="#181818"/><path stroke="#FFF" stroke-width="3" d="M0 54.202h127"/></symbol><symbol viewBox="0 0 448 512" id="check-solid" xmlns="http://www.w3.org/2000/svg"><!--!Font Awesome Free 6.7.2 by @fontawesome - https://fontawesome.com License - https://fontawesome.com/license/free Copyright 2025 Fonticons, Inc.--><path d="M438.6 105.4c12.5 12.5 12.5 32.8 0 45.3l-256 256c-12.5 12.5-32.8 12.5-45.3 0l-128-128c-12.5-12.5-12.5-32.8 0-45.3s32.8-12.5 45.3 0L160 338.7l233.4-233.3c12.5-12.5 32.8-12.5 45.3 0z"/></symbol><symbol viewBox="0 0 320 512" id="chevron-left-solid" xmlns="http://www.w3.org/2000/svg"><!--!Font Awesome Free 6.7.2 by @fontawesome - https://fontawesome.com License - https://fontawesome.com/license/free Copyright 2025 Fonticons, Inc.--><path d="M9.4 233.4c-12.5 12.5-12.5 32.8 0 45.3l192 192c12.5 12.5 32.8 12.5 45.3 0s12.5-32.8 0-45.3L77.3 256 246.6 86.6c12.5-12.5 12.5-32.8 0-45.3s-32.8-12.5-45.3 0l-192 192z"/></symbol><symbol viewBox="0 0 320 512" id="chevron-right-solid" xmlns="http://www.w3.org/2000/svg"><!--!Font Awesome Free 6.7.2 by @fontawesome - https://fontawesome.com License - https://fontawesome.com/license/free Copyright 2025 Fonticons, Inc.--><path d="M310.6 233.4c12.5 12.5 12.5 32.8 0 45.3l-192 192c-12.5 12.5-32.8 12.5-45.3 0s-12.5-32.8 0-45.3L242.7 256 73.4 86.6c-12.5-12.5-12.5-32.8 0-45.3s32.8-12.5 45.3 0l192 192z"/></symbol><symbol viewBox="0 0 512 512" id="clock-solid" xmlns="http://www.w3.org/2000/svg"><!--!Font Awesome Free 6.7.2 by @fontawesome - https://fontawesome.com License - https://fontawesome.com/license/free Copyright 2025 Fonticons, Inc.--><path d="M256 0a256 256 0 110 512 256 256 0 110-512zm-24 120v136c0 8 4 15.5 10.7 20l96 64c11 7.4 25.9 4.4 33.3-6.7s4.4-25.9-6.7-33.3L280 243.2V120c0-13.3-10.7-24-24-24s-24 10.7-24 24z"/></symbol><symbol viewBox="0 0 512 512" id="envelope-solid" xmlns="http://www.w3.org/2000/svg"><!--!Font Awesome Free 6.7.2 by @fontawesome - https://fontawesome.com License - https://fontawesome.com/license/free Copyright 2025 Fonticons, Inc.--><path d="M48 64C21.5 64 0 85.5 0 112c0 15.1 7.1 29.3 19.2 38.4l217.6 163.2c11.4 8.5 27 8.5 38.4 0l217.6-163.2c12.1-9.1 19.2-23.3 19.2-38.4 0-26.5-21.5-48-48-48H48zM0 176v208c0 35.3 28.7 64 64 64h384c35.3 0 64-28.7 64-64V176L294.4 339.2a63.9 63.9 0 01-76.8 0L0 176z"/></symbol><symbol viewBox="0 0 448 512" fill="#eee" id="expand-solid" xmlns="http://www.w3.org/2000/svg"><path d="M32 32C14.3 32 0 46.3 0 64v96c0 17.7 14.3 32 32 32s32-14.3 32-32V96h64c17.7 0 32-14.3 32-32s-14.3-32-32-32H32zm32 320c0-17.7-14.3-32-32-32S0 334.3 0 352v96c0 17.7 14.3 32 32 32h96c17.7 0 32-14.3 32-32s-14.3-32-32-32H64v-64zM320 32c-17.7 0-32 14.3-32 32s14.3 32 32 32h64v64c0 17.7 14.3 32 32 32s32-14.3 32-32V64c0-17.7-14.3-32-32-32h-96zm128 320c0-17.7-14.3-32-32-32s-32 14.3-32 32v64h-64c-17.7 0-32 14.3-32 32s14.3 32 32 32h96c17.7 0 32-14.3 32-32v-96z"/></symbol><symbol fill="none" viewBox="0 0 244.13 243.881" id="f1" xmlns="http://www.w3.org/2000/svg"><path d="M143.89 107.18h-5.96c-6.7 6.2-17.36 10.17-29.52 10.17s-22.83-3.97-29.52-10.17h-4.22c-21.59 0-39.2 13.15-39.2 29.52h145.88c0-16.12-16.87-29.52-37.46-29.52z" fill="#FFC501" fill-opacity=".14"/><path d="M108.41 22.08C84.1 22.08 64.5 41.68 64.5 66c0 24.31 19.6 43.91 43.91 43.91 24.31 0 43.91-19.6 43.91-43.91-.25-24.32-19.85-43.92-43.91-43.92zm0 77.91C89.56 99.99 74.42 84.6 74.42 66c0-2.98.5-5.71.99-8.19 3.97 1.99 11.17 4.71 19.6 4.71 5.96 0 12.41-1.48 18.36-5.7.75-.5 15.63-11.16 27.54-.5.99 2.98 1.49 6.45 1.49 9.68 0 18.6-15.38 33.99-33.99 33.99zM211.37 239.16H187.3c1.49-1.98 2.48-4.46 2.48-7.19v-78.64c0-6.7-5.45-11.91-11.9-11.91H38.94c-6.69 0-11.9 5.46-11.9 11.91v78.64c0 2.73.99 5.21 2.48 7.19H2.23c-1.24 0-2.23 1-2.23 2.24v.24c0 1.24.99 2.24 2.23 2.24h209.14c1.24 0 2.23-1 2.23-2.24v-.24c0-1.24-.99-2.23-2.23-2.23v-.01zm-102.96-33.74c-7.44 0-13.4-5.95-13.4-13.39 0-7.45 5.96-13.4 13.4-13.4s13.4 5.96 13.4 13.4-5.96 13.39-13.4 13.39zM202.43 42.43l-3.22-3.23-3.47 3.48 6.45 6.2.24.5 10.42-10.42.5-.5-3.47-3.47-7.45 7.44z" fill="#FFC501" fill-opacity=".14"/><path d="M242.87 30.27C237.42 8.69 215.58-4.21 194 1.25c-21.58 5.45-34.48 27.29-29.03 48.87 2.73 10.17 8.94 18.36 17.12 23.82l-10.67 16.12 42.43-10.91c21.58-5.46 34.48-27.3 29.03-48.88h-.01zm-21.08 11.91c-1.49 6.7-5.46 15.63-16.87 20.84l-.99.5-1-.5c-11.41-4.96-15.38-13.89-16.87-20.84-1.48-6.95-.49-12.65-.24-13.4l.49-2.23h2.49c1.48 0 9.42-.25 13.14-6.2l2.24-3.47 1.98 3.72c3.47 5.7 11.66 6.2 13.14 6.2h2.49l.49 2.23c0 .5.99 6.2-.49 13.15z" fill="#FFC501" fill-opacity=".14"/></symbol><symbol fill="none" viewBox="0 0 248.258 209.366" id="f2" xmlns="http://www.w3.org/2000/svg"><path d="M243.02 198.89h-12.05V48.57c0-2.09-1.05-4.19-3.14-4.71L126.22.39c-1.57-.53-2.62-.53-4.19 0L20.42 43.86c-2.09 1.05-3.14 2.62-3.14 4.71v150.32H5.23c-2.62 0-5.23 2.62-5.23 5.23 0 2.62 2.61 5.24 5.23 5.24H41.9V63.24c0-2.62 2.61-5.24 5.23-5.24h153.99c2.61 0 5.23 2.62 5.23 5.24v146.12h36.67c2.61 0 5.23-2.62 5.23-5.24 0-2.61-2.09-5.23-5.23-5.23z" fill="#FFC501" fill-opacity=".14"/><path d="M113.65 150.7H94.8v20.95c0 2.62-2.1 5.24-5.24 5.24-2.62 0-5.24-2.62-5.24-5.24V150.7H65.47c-2.62 0-5.24 2.62-5.24 5.24v48.18c0 2.62 2.62 5.24 5.24 5.24h48.18c2.62 0 5.24-2.62 5.24-5.24v-48.18c0-3.14-2.1-5.24-5.24-5.24zM182.79 150.7h-18.86v20.95c0 2.62-2.62 5.24-5.24 5.24-2.61 0-5.23-2.62-5.23-5.24V150.7H134.6c-3.14 0-5.24 2.62-5.24 5.24v48.18c0 2.62 2.1 5.24 5.24 5.24h48.19c2.62 0 5.23-2.62 5.23-5.24v-48.18c0-3.14-2.09-5.24-5.23-5.24zM147.7 81.57h-18.86v20.95c0 2.62-2.61 5.23-5.23 5.23-2.62 0-5.24-2.61-5.24-5.23V81.57H99.51c-3.14 0-5.23 2.61-5.23 5.23v48.19c0 2.62 2.09 5.24 5.23 5.24h48.19c2.62 0 5.24-2.62 5.24-5.24V86.8c0-3.14-2.1-5.23-5.24-5.23z" fill="#FFC501" fill-opacity=".14"/></symbol><symbol fill="none" viewBox="0 0 250.244 138.947" id="f3" xmlns="http://www.w3.org/2000/svg"><path d="M245.86 95.86V65.8a22.91 22.91 0 00-6.21-15.64L216 25.06a22.91 22.91 0 00-16.64-7.08h-47.17V0H47.25a12.224 12.224 0 00-12.23 12.19v12.23H8.35c-2.99 0-5.75 1.59-7.24 4.17a8.358 8.358 0 000 8.35 8.345 8.345 0 007.24 4.18h62.33c3.82.27 7.22 2.53 8.94 5.96a10.85 10.85 0 01-.54 10.73 10.898 10.898 0 01-9.5 5.03H45.61v.19H29.23a9.177 9.177 0 00-7.49 13.59 9.17 9.17 0 007.49 4.72h32.18c3.05.52 5.63 2.54 6.86 5.38 1.23 2.84.94 6.11-.77 8.68a9.136 9.136 0 01-7.7 4.09H45.61v7.69a5.365 5.365 0 00-3.48 4.99v9.11h26.39a25.118 25.118 0 017.02-18.33 25.112 25.112 0 0136.13 0c4.73 4.9 7.26 11.52 7.02 18.33h60.66a25.118 25.118 0 017.02-18.33 25.106 25.106 0 0136.13 0c4.73 4.9 7.26 11.52 7.02 18.33h20.72V101.1c0-2.57-1.84-4.78-4.38-5.24zm-31.53-35.4H173.4c-2.78 0-5.02-2.25-5.02-5.02V38.71c0-2.78 2.24-5.03 5.02-5.03h25.16c1.39.01 2.72.59 3.67 1.61l15.64 16.9a5.018 5.018 0 01.95 5.34 5.011 5.011 0 01-4.46 3.09l-.03-.16z" fill="#FFC501" fill-opacity=".14"/><path d="M204.42 103.61a17.665 17.665 0 00-17.67 17.67c0 4.68 1.86 9.18 5.17 12.49 3.32 3.31 7.81 5.17 12.5 5.17 4.68 0 9.17-1.86 12.49-5.17 3.31-3.32 5.17-7.81 5.17-12.49 0-4.69-1.86-9.18-5.17-12.49a17.66 17.66 0 00-12.49-5.18zm0 26.13c-2.25 0-4.4-.89-5.99-2.48a8.461 8.461 0 010-11.97 8.503 8.503 0 015.99-2.48c2.24 0 4.39.9 5.98 2.48a8.461 8.461 0 010 11.97 8.455 8.455 0 01-5.98 2.48zM93.59 103.61c-4.68.01-9.17 1.88-12.48 5.19-3.3 3.32-5.16 7.81-5.15 12.5 0 4.68 1.87 9.17 5.18 12.48a17.64 17.64 0 0012.49 5.16c4.69 0 9.18-1.86 12.49-5.17 3.31-3.32 5.17-7.81 5.17-12.49 0-4.69-1.87-9.19-5.19-12.51a17.67 17.67 0 00-12.51-5.16zm0 26.13c-2.24 0-4.39-.89-5.98-2.48a8.461 8.461 0 010-11.97 8.497 8.497 0 015.98-2.48c2.25 0 4.4.9 5.99 2.48a8.503 8.503 0 012.48 5.99c0 2.24-.9 4.39-2.48 5.98a8.461 8.461 0 01-5.99 2.48z" fill="#FFC501" fill-opacity=".14"/></symbol><symbol fill="none" viewBox="0 0 225.157 209.983" id="f4" xmlns="http://www.w3.org/2000/svg"><path d="M203.97 173.6h-51.15c-4.29 0-4.29 6.53 0 6.53h32.12c8.23 0 14.92 6.69 14.92 14.92s-6.69 14.93-14.92 14.93H41.15V89.6l4.01-.01c9.44-.02 16.9-3.74 22.27-11.52 9.34-13.5 10.47-16.02 24.33-25.08 15.96-10.43 22.6-28.63 26.6-40.62 2.71-8.13 11.05-15.27 16.95-9.06 10.66 11.2 6.25 47.76-6.34 62.29-1.82 2.1-.31 5.4 2.47 5.4h68.84c8.23 0 14.92 6.69 14.92 14.92s-6.69 14.92-14.92 14.92h-47.45c-4.3 0-4.3 6.53 0 6.53h57.4c8.23 0 14.92 6.7 14.92 14.93s-6.69 14.92-14.92 14.92h-57.4c-4.3 0-4.3 6.53 0 6.53h51.15c8.23 0 14.92 6.69 14.92 14.92 0 8.24-6.69 14.93-14.92 14.93h-.01zM0 89.66l27.07-.05v120.37H0V89.66z" fill="#FFC501" fill-opacity=".14" fill-rule="evenodd"/></symbol><symbol fill="none" viewBox="0 0 206.131 223.191" id="f5" xmlns="http://www.w3.org/2000/svg"><path d="M116.39 103.68H98.95c-7.81 0-14.14 6.32-14.14 14.14v100.71c0 2.56 2.1 4.65 4.65 4.65h36.41a4.66 4.66 0 004.65-4.65V117.82c0-7.82-6.32-14.14-14.13-14.14zM191.99 45h-19.44c-7.81 0-14.13 6.37-14.13 14.14v159.4c0 2.55 2.04 4.65 4.65 4.65h38.41c2.55 0 4.65-2.1 4.65-4.65V59.14c0-7.77-6.33-14.14-14.14-14.14zM29.29 158.78H14.13C6.37 158.78 0 165.11 0 172.92v45.61a4.66 4.66 0 004.65 4.65h34.13c2.6 0 4.65-2.09 4.65-4.65v-45.61c-.01-7.81-6.33-14.14-14.14-14.14zM169.98 21.3l-3.72 5.43c-1.45 2.12-.92 5.01 1.2 6.46.81.56 1.72.82 2.63.82 1.48 0 2.94-.71 3.84-2.02l10.05-14.66c.09-.12.1-.27.17-.4.23-.4.44-.81.54-1.26.12-.56.11-1.13.03-1.69-.01-.04.01-.08 0-.12v-.01c-.11-.59-.34-1.16-.68-1.68-.33-.52-.76-.96-1.26-1.3v-.01L168.12.81a4.653 4.653 0 00-6.46 1.2 4.647 4.647 0 001.2 6.47l5.37 3.68-10.52 1.94c-11.78 2.16-22.29 9.16-28.84 19.18l-13.11 20.05c-6.31 9.66-16.44 16.42-27.79 18.53l-12.63 2.36c-10.51 1.96-19.74 7.82-25.98 16.51l-39.05 54.33a4.646 4.646 0 003.77 7.36c1.45 0 2.87-.67 3.78-1.94l39.05-54.33a31.896 31.896 0 0120.14-12.79l12.62-2.35c13.83-2.59 26.18-10.82 33.87-22.59l13.11-20.05c5.17-7.91 13.45-13.42 22.74-15.13l10.59-1.94z" fill="#FFC501" fill-opacity=".14"/></symbol><symbol viewBox="0 0 512 512" id="headset-solid" xmlns="http://www.w3.org/2000/svg"><!--!Font Awesome Free 6.7.2 by @fontawesome - https://fontawesome.com License - https://fontawesome.com/license/free Copyright 2025 Fonticons, Inc.--><path d="M256 48C141.1 48 48 141.1 48 256v40c0 13.3-10.7 24-24 24S0 309.3 0 296v-40C0 114.6 114.6 0 256 0s256 114.6 256 256v144.1c0 48.6-39.4 88-88.1 88l-110.3-.1c-8.3 14.3-23.8 24-41.6 24h-32c-26.5 0-48-21.5-48-48s21.5-48 48-48h32c17.8 0 33.3 9.7 41.6 24l110.4.1c22.1 0 40-17.9 40-40V256c0-114.9-93.1-208-208-208zM144 208h16c17.7 0 32 14.3 32 32v112c0 17.7-14.3 32-32 32h-16c-35.3 0-64-28.7-64-64v-48c0-35.3 28.7-64 64-64zm224 0c35.3 0 64 28.7 64 64v48c0 35.3-28.7 64-64 64h-16c-17.7 0-32-14.3-32-32V240c0-17.7 14.3-32 32-32h16z"/></symbol><symbol viewBox="0 0 384 512" id="location-dot-solid" xmlns="http://www.w3.org/2000/svg"><!--!Font Awesome Free 6.7.2 by @fontawesome - https://fontawesome.com License - https://fontawesome.com/license/free Copyright 2025 Fonticons, Inc.--><path d="M215.7 499.2C267 435 384 279.4 384 192 384 86 298 0 192 0S0 86 0 192c0 87.4 117 243 168.3 307.2 12.3 15.3 35.1 15.3 47.4 0zM192 128a64 64 0 110 128 64 64 0 110-128z"/></symbol><symbol viewBox="0 0 448 512" id="lock-solid" xmlns="http://www.w3.org/2000/svg"><!--!Font Awesome Free 6.7.2 by @fontawesome - https://fontawesome.com License - https://fontawesome.com/license/free Copyright 2025 Fonticons, Inc.--><path d="M144 144v48h160v-48c0-44.2-35.8-80-80-80s-80 35.8-80 80zm-64 48v-48C80 64.5 144.5 0 224 0s144 64.5 144 144v48h16c35.3 0 64 28.7 64 64v192c0 35.3-28.7 64-64 64H64c-35.3 0-64-28.7-64-64V256c0-35.3 28.7-64 64-64h16z"/></symbol><symbol fill="none" viewBox="0 0 186.999 59" id="logo" xmlns="http://www.w3.org/2000/svg"><path d="M86.62 46.17q2.01 1.26 5.41 1.26 3.47 0 5.47-1.28.7-.46 1.27-1.05 1.04-1.07 1.61-2.59.89-2.35.89-5.55V24.94q0-3.23-.89-5.54-.56-1.48-1.58-2.51-.58-.59-1.3-1.04-2-1.22-5.47-1.22-3.4 0-5.41 1.22-.79.48-1.4 1.13-.96 1-1.49 2.42-.87 2.31-.87 5.54v11.98q0 3.24.87 5.61.56 1.52 1.59 2.59.57.59 1.3 1.05zm83.5-.12q2 1.38 5.52 1.38 3.4 0 5.27-1.25.82-.54 1.43-1.26.78-.94 1.2-2.17.75-2.2.75-5.04v-2.57h-5.61v2.88q0 1.43-.16 2.58-.16 1.14-.78 1.83-.6.7-2.06.7-1.26 0-2-.57l-.04-.04q-.7-.57-.97-1.67-.27-1.13-.27-2.87V24.07q0-1.45.19-2.62.21-1.17.89-1.85.69-.7 2.2-.7 1.5 0 2.11.66.62.65.75 1.76.14 1.09.14 2.45v2.75h5.61v-2.68q0-2.77-.79-4.86-.43-1.14-1.19-2-.62-.71-1.48-1.22-1.87-1.13-5.19-1.13-3.52 0-5.52 1.31-.69.46-1.24 1.05-1.02 1.1-1.54 2.67-.79 2.4-.79 5.68v11.42q0 3.13.79 5.52.47 1.4 1.35 2.46.61.74 1.43 1.31zM56.82 14.99L56.27 47h4.38l.43-22.33L65.72 47h3.51l4.54-22.25.47 22.25h4.35L78 14.99h-5.85l-4.74 22.17-4.54-22.17h-6.05zm48.84 0V47h5.81V32.53h6.56V47h5.8V14.99h-5.8v13.4h-6.56v-13.4h-5.81zm23.08 0V47h13.51v-4.04h-7.67V32.37h5.98v-4.06h-5.98V19.1h7.59v-4.11h-13.43zm16.99 0V47h5.8V32.25h1.19L158.25 47h5.93l-6.56-16.92 6.09-15.09h-5.81l-5.18 13.43h-1.19V14.99h-5.8zM94.18 42.5q-.69.63-2.15.63-1.42 0-2.13-.63-.08-.07-.15-.14-.59-.62-.79-1.61-.21-1.11-.21-2.41V23.6q0-1.34.23-2.4.21-.93.78-1.52.08-.08.17-.16.72-.62 2.1-.62 1.46 0 2.15.62.06.06.13.12.59.59.8 1.56.24 1.06.24 2.4v14.74q0 1.3-.24 2.41-.23 1.06-.87 1.69l-.06.06z" fill="#FFF" fill-rule="evenodd"/><mask id="pa" maskUnits="userSpaceOnUse" x="53.942" y="29.968" width="133.058" height="17.981"><path fill="#FFC501" d="M53.942 29.968H187v17.981H53.942z"/></mask><g mask="url(#pa)"><path d="M86.62 46.17q2.01 1.26 5.41 1.26 3.47 0 5.47-1.28.7-.46 1.27-1.05 1.04-1.07 1.61-2.59.89-2.35.89-5.55V24.94q0-3.23-.89-5.54-.56-1.48-1.58-2.51-.58-.59-1.3-1.04-2-1.22-5.47-1.22-3.4 0-5.41 1.22-.79.48-1.4 1.13-.96 1-1.49 2.42-.87 2.31-.87 5.54v11.98q0 3.24.87 5.61.56 1.52 1.59 2.59.57.59 1.3 1.05zm83.5-.12q2 1.38 5.52 1.38 3.4 0 5.27-1.25.82-.54 1.43-1.26.78-.94 1.2-2.17.75-2.2.75-5.04v-2.57h-5.61v2.88q0 1.43-.16 2.58-.16 1.14-.78 1.83-.6.7-2.06.7-1.26 0-2-.57l-.04-.04q-.7-.57-.97-1.67-.27-1.13-.27-2.87V24.07q0-1.45.19-2.62.21-1.17.89-1.85.69-.7 2.2-.7 1.5 0 2.11.66.62.65.75 1.76.14 1.09.14 2.45v2.75h5.61v-2.68q0-2.77-.79-4.86-.43-1.14-1.19-2-.63-.71-1.48-1.22-1.87-1.13-5.19-1.13-3.52 0-5.52 1.31-.69.46-1.24 1.05-1.02 1.1-1.54 2.67-.79 2.4-.79 5.68v11.42q0 3.13.79 5.52.47 1.4 1.35 2.46.61.74 1.43 1.31zM56.82 14.99L56.27 47h4.38l.43-22.33L65.72 47h3.51l4.54-22.25.47 22.25h4.35L78 14.99h-5.85l-4.74 22.17-4.54-22.17h-6.05zm48.84 0V47h5.81V32.53h6.56V47h5.8V14.99h-5.8v13.4h-6.56v-13.4h-5.81zm23.08 0V47h13.51v-4.04h-7.67V32.37h5.98v-4.06h-5.98V19.1h7.59v-4.11h-13.43zm16.99 0V47h5.8V32.25h1.19L158.25 47h5.93l-6.56-16.92 6.09-15.09h-5.81l-5.18 13.43h-1.19V14.99h-5.8zM94.18 42.5q-.69.63-2.15.63-1.42 0-2.13-.63-.08-.07-.15-.14-.59-.62-.79-1.61-.21-1.11-.21-2.41V23.6q0-1.34.23-2.4.21-.93.78-1.52.08-.08.17-.16.72-.62 2.1-.62 1.46 0 2.15.62.06.06.13.12.59.59.8 1.56.24 1.06.24 2.4v14.74q0 1.3-.24 2.41-.23 1.06-.87 1.69l-.06.06z" fill="#FFC501" fill-rule="evenodd"/></g><path d="M1.07 27.82h18.79c.55 0 1 .45 1 1v12.02c0 .55-.45 1-1 1H1.07c-.55 0-1-.45-1-1V28.82c0-.55.45-1 1-1zM23.45 27.82h18.79c.55 0 1 .45 1 1v12.02c0 .55-.45 1-1 1H23.45c-.55 0-1-.45-1-1V28.82c0-.55.45-1 1-1zM1.07 11.86h18.79c.55 0 1 .45 1 1v12.01c0 .55-.45 1-1 1H1.07c-.55 0-1-.45-1-1V12.86c0-.55.45-1 1-1zM23.45 11.86h18.79c.55 0 1 .45 1 1v12.01c0 .55-.45 1-1 1H23.45c-.55 0-1-.45-1-1V12.86c0-.55.45-1 1-1z" fill="#FFF"/><path d="M1 43.21h41.48c.55 0 1 .44 1 1v.96H0v-.96c0-.56.44-1 1-1z" fill="#FFC501"/><path d="M.03 45.12h6.61v2.87c0 .27-.22.5-.5.5H.53c-.27 0-.5-.23-.5-.5v-2.87zM36.85 45.12h6.63v2.87c0 .27-.22.5-.5.5h-5.63c-.27 0-.5-.23-.5-.5v-2.87zM19.8 45.12h4.02v2.87c0 .27-.23.5-.5.5H20.3c-.28 0-.5-.23-.5-.5v-2.87z" fill="#FFC501"/></symbol><symbol viewBox="0 0 512 512" id="phone-solid" xmlns="http://www.w3.org/2000/svg"><!--!Font Awesome Free 6.7.2 by @fontawesome - https://fontawesome.com License - https://fontawesome.com/license/free Copyright 2025 Fonticons, Inc.--><path d="M164.9 24.6c-7.7-18.6-28-28.5-47.4-23.2l-88 24C12.1 30.2 0 46 0 64c0 247.4 200.6 448 448 448 18 0 33.8-12.1 38.6-29.5l24-88c5.3-19.4-4.6-39.7-23.2-47.4l-96-40c-16.3-6.8-35.2-2.1-46.3 11.6L304.7 368c-70.4-33.3-127.4-90.3-160.7-160.7l49.3-40.3c13.7-11.2 18.4-30 11.6-46.3l-40-96z"/></symbol><symbol viewBox="0 0 512 512" fill="#ffc501" id="phone-solid-footer" xmlns="http://www.w3.org/2000/svg"><path d="M164.9 24.6c-7.7-18.6-28-28.5-47.4-23.2l-88 24C12.1 30.2 0 46 0 64c0 247.4 200.6 448 448 448 18 0 33.8-12.1 38.6-29.5l24-88c5.3-19.4-4.6-39.7-23.2-47.4l-96-40c-16.3-6.8-35.2-2.1-46.3 11.6L304.7 368c-70.4-33.3-127.4-90.3-160.7-160.7l49.3-40.3c13.7-11.2 18.4-30 11.6-46.3l-40-96z"/></symbol><symbol fill="none" viewBox="0 0 67.399 52.369" id="why-1" xmlns="http://www.w3.org/2000/svg"><path d="M0 36.22h67.39v3.15H0v-3.15z" fill="#312C21"/><path d="M67.39 36.22H0v3.15h67.39v-3.15zM1.15 38.21v-.83h65.09v.83H1.15z" fill="#FFF" fill-rule="evenodd"/><path d="M0 49.21h67.39v3.15H0v-3.15z" fill="#312C21"/><path d="M67.39 49.21H0v3.15h67.39v-3.15zm-66.24 2v-.84h65.09v.84H1.15z" fill="#FFF" fill-rule="evenodd"/><path d="M0 40.34h3.47v7.9H0v-7.9z" fill="#312C21"/><path d="M3.47 40.34H0v7.9h3.47v-7.9zm-2.17 6.6v-5.3h.87v5.3H1.3z" fill="#FFF" fill-rule="evenodd"/><path d="M31.95 40.34h3.48v7.9h-3.48v-7.9z" fill="#312C21"/><path d="M35.43 40.34h-3.48v7.9h3.48v-7.9zm-2.18 6.6v-5.3h.88v5.3h-.88z" fill="#FFF" fill-rule="evenodd"/><path d="M63.92 40.34h3.47v7.9h-3.47v-7.9z" fill="#312C21"/><path d="M67.39 40.34h-3.47v7.9h3.47v-7.9zm-2.17 6.6v-5.3h.87v5.3h-.87z" fill="#FFF" fill-rule="evenodd"/><path d="M0 18.11h67.39v3.15H0v-3.15z" fill="#312C21"/><path d="M67.39 18.11H0v3.15h67.39v-3.15zM1.15 20.1v-.84h65.09v.84H1.15z" fill="#FFF" fill-rule="evenodd"/><path d="M0 31.1h67.39v3.15H0V31.1z" fill="#312C21"/><path d="M67.39 31.1H0v3.15h67.39V31.1zM1.15 33.09v-.83h65.09v.83H1.15z" fill="#FFF" fill-rule="evenodd"/><path d="M0 22.23h3.47v7.9H0v-7.9z" fill="#312C21"/><path d="M3.47 22.23H0v7.9h3.47v-7.9zm-2.17 6.6v-5.3h.87v5.3H1.3z" fill="#FFF" fill-rule="evenodd"/><path d="M31.95 22.23h3.48v7.9h-3.48v-7.9z" fill="#312C21"/><path d="M35.43 22.23h-3.48v7.9h3.48v-7.9zm-2.18 6.6v-5.3h.88v5.3h-.88z" fill="#FFF" fill-rule="evenodd"/><path d="M63.92 22.23h3.47v7.9h-3.47v-7.9z" fill="#312C21"/><path d="M67.39 22.23h-3.47v7.9h3.47v-7.9zm-2.17 6.6v-5.3h.87v5.3h-.87z" fill="#FFF" fill-rule="evenodd"/><path d="M0 0h67.39v3.15H0V0z" fill="#312C21"/><path d="M67.39 0H0v3.15h67.39V0zM1.15 1.99v-.84h65.09v.84H1.15z" fill="#FFF" fill-rule="evenodd"/><path d="M0 12.99h67.39v3.15H0v-3.15z" fill="#312C21"/><path d="M67.39 12.99H0v3.15h67.39v-3.15zM1.15 14.98v-.83h65.09v.83H1.15z" fill="#FFF" fill-rule="evenodd"/><path d="M0 4.12h3.47v7.89H0V4.12z" fill="#312C21"/><path d="M3.47 4.12H0v7.89h3.47V4.12zM1.3 10.71V5.42h.87v5.29H1.3z" fill="#FFF" fill-rule="evenodd"/><path d="M31.95 4.12h3.48v7.89h-3.48V4.12z" fill="#312C21"/><path d="M35.43 4.12h-3.48v7.89h3.48V4.12zm-2.18 6.59V5.42h.88v5.29h-.88z" fill="#FFF" fill-rule="evenodd"/><path d="M63.92 4.12h3.47v7.89h-3.47V4.12z" fill="#312C21"/><path d="M67.39 4.12h-3.47v7.89h3.47V4.12zm-2.17 6.59V5.42h.87v5.29h-.87z" fill="#FFF" fill-rule="evenodd"/></symbol><symbol fill="none" viewBox="0 0 66.406 52.932" id="why-2" xmlns="http://www.w3.org/2000/svg"><path d="M65.3 47.84h-3.32V1.01c0-.56-.5-1.01-1.11-1.01h-6.64c-.61 0-1.11.45-1.11 1.01v46.83H49.8V11.19c0-.56-.49-1.02-1.11-1.02h-6.64c-.61 0-1.1.46-1.1 1.02v36.65h-3.32V6.1c0-.56-.5-1.02-1.11-1.02h-6.64c-.61 0-1.11.46-1.11 1.02v41.74h-3.32v-28.5c0-.57-.49-1.02-1.1-1.02H17.7c-.61 0-1.1.45-1.1 1.02v28.5h-3.32V11.19c0-.56-.5-1.02-1.11-1.02H5.53c-.61 0-1.11.46-1.11 1.02v36.65H1.1c-.61 0-1.1.45-1.1 1.02v3.05c0 .56.49 1.02 1.1 1.02h64.19c.61 0 1.11-.46 1.11-1.02v-3.05c0-.57-.49-1.02-1.1-1.02zM55.34 2.03h4.42v45.81h-4.42V2.03zM43.16 12.21h4.43v35.63h-4.43V12.21zM30.99 7.12h4.42v40.72h-4.42V7.12zM18.81 20.35h4.43v27.49h-4.43V20.35zM6.64 12.21h4.42v35.63H6.64V12.21zm57.55 38.68H2.21v-1.02h61.98v1.02z" fill="#000"/><path d="M61.98 47.04v.8h3.32c.61 0 1.1.45 1.1 1.02v3.05c0 .56-.5 1.02-1.11 1.02H1.1c-.61 0-1.1-.46-1.1-1.02v-3.05c0-.57.49-1.02 1.1-1.02h3.32V11.19c0-.56.5-1.02 1.11-1.02h6.64c.61 0 1.11.46 1.11 1.02v36.65h3.32v-28.5c0-.57.49-1.02 1.1-1.02h6.65c.61 0 1.1.45 1.1 1.02v28.5h3.32V6.1c0-.56.5-1.02 1.11-1.02h6.64c.61 0 1.11.46 1.11 1.02V47.84h3.32V11.19c0-.56.49-1.02 1.1-1.02h6.64c.62 0 1.11.46 1.11 1.02v36.65h3.32V1.01c0-.56.5-1.01 1.11-1.01h6.64c.61 0 1.11.45 1.11 1.01v46.03zm-.8-46.03V48.64h4.12q.1 0 .18.05.03.01.06.03.05.05.06.11V51.91q0 .07-.03.12-.07.1-.28.1H1.1q-.2 0-.27-.1-.03-.05-.03-.12v-3.05q0-.08.03-.13.07-.09.27-.09h4.12V11.19q0-.07.04-.12.07-.1.27-.1h6.64q.2 0 .27.1.04.05.04.12v37.45h4.92v-29.3q0-.08.03-.13.07-.09.27-.09h6.65q.2 0 .27.09.03.05.03.13v29.3h4.92V6.1q0-.07.04-.12.06-.1.27-.1h6.64q.2 0 .27.1.04.05.04.12v42.54h4.92V11.19q0-.07.03-.12.07-.1.27-.1h6.64q.11 0 .19.05l.06.04q.05.05.06.11V48.64h4.92V1.01q0-.07.04-.12.06-.09.27-.09h6.64q.2 0 .27.09.04.05.04.12zm-.62 47.63V1.23h-6.02v47.41h6.02zm-.8-46.61h-4.42V47.84h4.42V2.03zM36.21 48.64V6.32h-6.02v42.32h6.02zM31.79 7.12h3.62v40.72h-4.42V7.12h.8zM11.86 48.64V11.41H5.84v37.23h6.02zm36.53 0V11.41h-6.03v37.23h6.03zM11.06 12.21H6.64V47.84h4.42V12.21zm36.53 0h-4.43v35.63h4.43V12.21zM24.04 48.64V19.55h-6.03v29.09h6.03zm-.8-28.29h-4.43v27.49h4.43V20.35zM1.41 49.07v2.62h63.58v-2.62H1.41zm1.6.8h61.18v1.02H2.21v-1.02h.8z" fill="#FFF" fill-rule="evenodd"/></symbol><symbol fill="none" viewBox="0 0 47.542 55" id="why-3" xmlns="http://www.w3.org/2000/svg"><path d="M.53 40.28C.26 43.27.01 53.73 0 54.17c-.01.22.08.43.23.58.16.16.38.25.61.25H46.7c.22 0 .44-.09.6-.25.16-.16.25-.37.24-.59l-.53-13.42c.02-.49.02-3.76-3.98-5.4-2.95-1.22-9.97-4-12.69-5.08 1.87-1.75 3.31-3.88 4.21-6.24 1.08-2.76 1.75-5.65 2.01-8.59.32-.11.54-.39.56-.71.56-9.19-4.24-12.56-7.15-13.75C25.34-.92 19.71.16 17.29 2.34c-1.6.11-3.08.85-4.08 2.05-2.81 3.31-1.85 9.41-1.81 9.66.05.33.31.59.64.66.2 3.6 1.02 7.13 2.44 10.46.77 1.7 1.86 3.25 3.2 4.58l-14.16 5.8c-1.76.99-2.89 2.77-2.99 4.73zm23.11-2.04l-2.03-1.29.28-1.84h3.5l.28 1.84-2.03 1.29zm-.47 1.65c.29.18.65.18.94 0l.68-.44.91 13.93h-4.12l.91-13.93.68.44zM14.52 5.4c.78-.92 1.95-1.46 3.19-1.47.22-.01.42-.1.57-.26 1.88-1.93 7-2.87 11.03-1.22 2.88 1.18 6.19 4.03 6.17 10.87-.41-.2-.87-.28-1.33-.22-.33-1.44-1.26-2.68-2.57-3.45a.842.842 0 00-.71-.08c-2.53.77-5.17 1.18-7.82 1.22-2.38.1-4.74-.47-6.78-1.65a.857.857 0 00-1.11.16c-.73.83-1.16 1.86-1.25 2.93-.34-.01-.68.06-.98.21-.11-1.85-.04-5.12 1.59-7.04zm1.5 19.12a29.653 29.653 0 01-2.33-10.64c.07-.03.14-.04.21-.03l.61.22c.27.09.57.05.79-.12a.78.78 0 00.34-.7l-.04-.61c-.03-.61.13-1.22.45-1.74 2.16 1.06 4.57 1.57 7 1.5 2.69-.03 5.37-.43 7.95-1.18.81.54 1.35 1.38 1.49 2.32l-.03.58c-.01.26.11.51.33.67.22.17.51.21.77.13l.58-.17c.27-.11.58-.05.78.15a29.84 29.84 0 01-1.93 8.53c-1.53 3.72-4.62 7.7-8.69 7.7-3.84 0-6.86-3.56-8.28-6.61zM4.23 37.01l14.86-6.09a8.924 8.924 0 005.21 1.83c1.61-.02 3.18-.48 4.52-1.34 1.52.6 10.18 4.03 13.55 5.41 3.09 1.27 2.96 3.75 2.95 3.85v.1l.5 12.61H27.38l-.97-14.97.63-.4c.27-.18.41-.48.37-.79l-.46-3.04a.832.832 0 00-.83-.69h-4.96c-.42 0-.77.3-.83.69l-.46 3.04c-.05.31.1.61.37.79l.63.4-.97 14.97H1.7c.07-2.59.29-10.5.51-12.96.05-1.38.81-2.65 2.02-3.41z" fill="#000"/><path d="M.53 40.28C.26 43.27.01 53.73 0 54.17c-.01.22.08.43.23.58.16.16.38.25.61.25H46.7c.22 0 .44-.09.6-.25.16-.16.25-.37.24-.59l-.53-13.42c.02-.49.02-3.76-3.98-5.4-2.77-1.14-9.12-3.66-12.14-4.86-.2-.08-.38-.15-.55-.22.14-.13.29-.27.42-.41 1.67-1.67 2.96-3.66 3.79-5.83 1.08-2.76 1.75-5.65 2.01-8.59.32-.11.54-.39.56-.71.56-9.19-4.24-12.56-7.15-13.75C25.34-.92 19.71.16 17.29 2.34c-1.6.11-3.08.85-4.08 2.05-2.81 3.31-1.85 9.41-1.81 9.66.05.33.31.59.64.66.2 3.6 1.02 7.13 2.44 10.46.69 1.52 1.64 2.93 2.79 4.16.14.14.27.28.41.42l-.54.22-13.62 5.58c-1.76.99-2.89 2.77-2.99 4.73zm3.23-4.24q-1.36.77-2.04 1.94-.58 1.02-.65 2.33v.02Q.79 43.45.53 54.18q0 .04.01.08.02.06.07.11.04.03.07.05.07.04.16.04H46.7q.08 0 .14-.04.05-.02.08-.05.05-.05.07-.11.01-.04.01-.08l-.53-13.44v-.02q.05-1.15-.36-2.08-.79-1.78-3.28-2.8l-6.21-2.5-7.27-2.89.62-.58q1.62-1.52 2.75-3.35.78-1.27 1.33-2.69.92-2.38 1.44-4.84.37-1.78.54-3.61l.03-.35.33-.11q.11-.04.16-.11.03-.06.04-.13.41-6.8-2.79-10.42-1.58-1.78-4.04-2.79-.62-.26-1.27-.44-2.64-.77-5.62-.37-3.42.46-5.22 2.08l-.14.13-.18.01q-1.24.08-2.23.63-.83.45-1.48 1.22l-.14.18q-2.51 3.15-1.55 9.06.01.07.05.12.06.07.18.1l.4.08.02.41q.13 2.37.61 4.66.61 2.87 1.78 5.61.44.97 1.01 1.85.88 1.38 2.08 2.56l.58.57-14.88 6.11zM17.71 3.93c-1.24.01-2.41.55-3.19 1.47-1.47 1.73-1.67 4.57-1.62 6.46l.03.58c.17-.08.34-.14.53-.18.15-.02.3-.03.45-.03.09-1.07.52-2.1 1.25-2.93.27-.32.75-.39 1.11-.16 2.04 1.18 4.4 1.75 6.78 1.65 2.65-.04 5.29-.45 7.82-1.22.24-.08.5-.05.71.08 1.31.77 2.24 2.01 2.57 3.45.26-.04.53-.02.79.03.19.05.37.11.54.19v-.59c-.17-6.41-3.37-9.13-6.17-10.28-4.03-1.65-9.15-.71-11.03 1.22-.15.16-.35.25-.57.26zm5.35 7.4q-2.02.08-3.9-.41-1.64-.44-3.16-1.31l-.01-.01h-.01q-.12-.08-.23-.06-.1.01-.18.11-.57.65-.85 1.4-.22.58-.27 1.22l-.04.52-.52-.02q-.21-.01-.41.04-.16.04-.31.11l-.73.36-.05-.81q-.3-5.04 1.72-7.41.65-.77 1.47-1.19.94-.47 2.11-.48.07-.01.13-.04.04-.02.07-.05 1.62-1.66 5.03-2.12 2.93-.39 5.51.39.55.17 1.08.38 2.21.91 3.67 2.5 2.86 3.12 2.84 8.88v.86l-.78-.38q-.22-.12-.47-.16-.27-.05-.56-.02l-.48.06-.11-.47q-.21-.91-.69-1.62-.6-.89-1.62-1.48-.07-.04-.14-.05-.07-.01-.13.01-1.84.57-3.72.87-2.11.35-4.26.38zm-9.33 1.99q-.12.01-.23.05l-.36.14.01.38q.08 2.55.57 5 .6 2.98 1.8 5.84h.01v.01q2.44 5.25 6.22 6.53 1.21.4 2.55.4 1.25 0 2.38-.36 4.21-1.34 6.81-7.69.92-2.39 1.43-4.86.39-1.88.54-3.82l.02-.24-.18-.18q-.29-.28-.62-.36-.34-.07-.72.08l-.56.17q-.09.02-.17.01-.06-.02-.12-.06-.07-.05-.1-.12-.01-.04-.01-.1l.03-.63-.01-.05q-.11-.79-.49-1.43-.44-.73-1.24-1.26l-.21-.13-.23.07q-1.57.45-3.17.73-2.3.39-4.65.42-1.93.06-3.75-.37-1.54-.36-2.99-1.08l-.44-.21-.26.41q-.31.5-.44 1.05-.12.48-.09 1v.01l.04.62q0 .06-.01.1-.03.07-.1.13-.06.04-.13.05-.08.02-.17-.01l-.66-.23-.06-.01q-.12-.02-.24 0zm20.41 1.43l-.58.17a.85.85 0 01-.77-.13.79.79 0 01-.33-.67l.03-.58c-.14-.94-.68-1.78-1.49-2.32-2.58.75-5.26 1.15-7.95 1.18-2.43.07-4.84-.44-7-1.5-.32.52-.48 1.13-.45 1.74l.04.61a.78.78 0 01-.34.7c-.22.17-.52.21-.79.12l-.28-.1-.28-.1-.05-.02c-.07-.01-.14 0-.21.03.11 3.65.9 7.25 2.33 10.64 1.42 3.05 4.44 6.61 8.28 6.61 4.07 0 7.16-3.98 8.69-7.7a29.84 29.84 0 001.93-8.53c-.2-.2-.51-.26-.78-.15zM21.49 31.66q-1.1-.42-2.08-1.17l-.24-.18-15.23 6.24-.03.03q-1.13.71-1.69 1.73-.5.92-.55 2.08-.24 2.7-.51 12.98l-.01.55H20.4l1.03-15.79-.9-.58q-.09-.05-.11-.13-.03-.05-.02-.12l.46-3.04q.02-.1.07-.15.08-.08.23-.08h4.96q.15 0 .22.08.06.05.08.15l.45 3.04q.01.07-.01.12-.02.08-.11.13l-.9.58 1.03 15.79h19.5l-.52-13.17v-.05q.07-.97-.27-1.77-.68-1.65-3.02-2.61l-6.2-2.5-7.61-3.02-.23.15q-.87.56-1.83.87-1.14.37-2.39.39-1.5-.04-2.82-.55zM2.21 40.42c-.21 2.31-.41 9.41-.5 12.42 0 .2-.01.38-.01.54h18.2l.97-14.97-.63-.4c-.27-.18-.42-.48-.37-.79l.46-3.04c.06-.39.41-.69.83-.69h4.96c.42 0 .77.3.83.69l.46 3.04c.04.31-.1.61-.37.79l-.63.4.97 14.97H45.82l-.02-.54-.48-12.07v-.1c.01-.1.14-2.58-2.95-3.85-3.37-1.38-12.03-4.81-13.55-5.41a8.564 8.564 0 01-4.52 1.34c-1.9-.05-3.73-.69-5.21-1.83L4.23 37.01c-1.21.76-1.97 2.03-2.02 3.41zm19.22-5.85l-.35 2.3-.05.34 2.61 1.67 2.61-1.67-.4-2.64h-4.42zm.18 2.38l.28-1.84h3.5l.28 1.84-2.03 1.29-2.03-1.29zm3.66 1.55l-1.45.93q-.09.06-.18.06t-.18-.06l-1.45-.93-1 15.42h5.26l-1-15.42zm-.44 1.57l.83 12.77.04.54h-4.12l.04-.54.83-12.77.04-.62.52.33.16.11c.29.18.65.18.94 0l.16-.11.52-.33.04.62z" fill="#FFF" fill-rule="evenodd"/></symbol><symbol fill="none" viewBox="0 0 79 79" id="why-4" xmlns="http://www.w3.org/2000/svg"><defs><clipPath id="va"><rect rx="-.056" width="78.887" height="78.887" transform="translate(.056 .056)" fill="#fff" fill-opacity="0"/></clipPath></defs><rect rx="-.056" width="78.887" height="78.887" transform="translate(.056 .056)" fill="none"/><g clip-path="url(#va)"><path d="M53.54 47.72c4.06-3.85 6.39-9.18 6.39-14.79 0-11.26-9.15-20.41-20.41-20.41s-20.41 9.15-20.41 20.41c0 5.61 2.33 10.94 6.39 14.79L15.43 57.8c-.19.19-.25.48-.15.71.11.25.34.41.61.41h6.79v6.8c0 .26.16.5.41.6.08.04.17.05.25.05.17 0 .34-.06.46-.19l13.02-13.03c.94.12 1.83.19 2.69.19.87 0 1.75-.07 2.68-.19l13.02 13.03c.14.13.29.19.47.19.07 0 .17-.01.25-.05.25-.1.4-.34.4-.6v-6.8h6.8c.26 0 .5-.16.6-.41.11-.25.04-.52-.14-.71L53.54 47.72zM24 64.12v-5.86c0-.37-.29-.66-.66-.66h-5.86l8.99-8.99c2.54 2.12 5.55 3.58 8.77 4.28L24 64.12zm12.68-12.29c-3.65-.56-7.03-2.14-9.81-4.6a19.07 19.07 0 01-6.44-14.3c0-10.53 8.56-19.09 19.09-19.09s19.09 8.56 19.09 19.09c0 5.47-2.34 10.68-6.44 14.3a18.925 18.925 0 01-9.81 4.6c-2 .26-3.68.26-5.68 0zm19.02 5.78a.65.65 0 00-.66.65v5.86L43.8 52.88c3.23-.69 6.21-2.16 8.76-4.28l9 9.01H55.7z" fill="#000"/><path d="M53.8 47.47c3.89-3.82 6.13-9.05 6.13-14.54 0-11.26-9.15-20.41-20.41-20.41s-20.41 9.15-20.41 20.41c0 5.49 2.24 10.72 6.14 14.54.08.09.16.17.25.25l-.25.24-9.82 9.84c-.19.19-.25.48-.15.71.11.25.34.41.61.41h6.79v6.8c0 .26.16.5.41.6.08.04.17.05.25.05.17 0 .34-.06.46-.19l13.02-13.03c.94.12 1.83.19 2.69.19.87 0 1.75-.07 2.68-.19l13.02 13.03c.14.13.29.19.47.19.07 0 .17-.01.25-.05.25-.1.4-.34.4-.6v-6.8h6.8c.26 0 .5-.16.6-.41.11-.25.04-.52-.14-.71l-9.8-9.84-.25-.24c.09-.08.17-.16.26-.25zm5.58-17.4q.2 1.41.2 2.86 0 1.03-.11 2.05-.1 1.01-.31 2.01-.18.88-.44 1.74-.33 1.07-.78 2.12-.37.83-.8 1.62-.53.98-1.18 1.9-.51.74-1.09 1.43-.73.87-1.57 1.66l-.26.25 10.3 10.34q.04.04.07.09.01.03.02.07.01.04 0 .08 0 .04-.02.09-.02.06-.07.1-.02.02-.05.04-.03.03-.07.04-.05.01-.09.01h-7.15v7.15q0 .04-.01.08t-.04.08q-.02.03-.04.05-.04.04-.1.07h-.01l-.01.01q-.03.01-.09.01h-.07q-.08-.02-.15-.09L42.32 52.79l-.17.02q-1.43.18-2.64.18-1.21 0-2.65-.18l-.17-.02-13.14 13.15h-.01l-.04.04q-.07.04-.16.04-.06 0-.09-.01l-.01-.01h-.02q-.05-.03-.1-.07-.02-.02-.04-.05-.02-.03-.04-.08-.01-.04-.01-.08v-7.15h-7.14q-.05 0-.09-.01-.04-.01-.08-.04-.01-.01-.03-.02-.06-.05-.09-.13 0-.01-.01-.02-.02-.07 0-.14.01-.05.04-.1l.04-.06L26 47.71l-.26-.25q-.83-.79-1.57-1.66-.58-.69-1.09-1.43-.65-.92-1.19-1.91-.43-.79-.78-1.61-.46-1.05-.79-2.13-.25-.85-.44-1.73-.21-1-.31-2.01-.11-1.02-.11-2.05 0-1.44.21-2.86.08-.59.2-1.18.19-.94.48-1.86.29-.97.69-1.9.31-.74.68-1.45.53-1.01 1.17-1.96.49-.73 1.04-1.41.67-.81 1.41-1.56.75-.74 1.56-1.41.68-.55 1.41-1.04.95-.64 1.97-1.17.7-.37 1.44-.68.94-.4 1.9-.69.92-.29 1.86-.48.59-.12 1.18-.21 1.42-.2 2.86-.2t2.86.2q.59.09 1.18.21.94.19 1.86.48.97.29 1.9.69.74.31 1.45.68 1.01.53 1.96 1.17.73.49 1.41 1.04.81.67 1.56 1.41.74.75 1.41 1.56.55.68 1.04 1.41.64.95 1.17 1.97.37.7.68 1.44.4.93.69 1.89.29.92.48 1.87.12.59.21 1.18zM26.63 47.49h.01q1.27 1.13 2.7 2.01.94.59 1.96 1.06 1.07.5 2.18.87 1.48.48 3.03.72l.01.01.11.01q1.53.2 2.89.2 1.37 0 2.9-.2 1.38-.2 2.7-.6 1.34-.4 2.62-1 .87-.41 1.69-.9 1.58-.94 2.98-2.18.76-.67 1.45-1.42.71-.78 1.33-1.63.58-.78 1.07-1.62.55-.92.99-1.9.43-.95.75-1.94.31-.95.52-1.94.22-1.02.33-2.04.11-1.03.11-2.07 0-1.39-.19-2.75-.08-.59-.2-1.16-.19-.92-.47-1.81-.28-.94-.67-1.84-.3-.72-.66-1.42-.51-.97-1.13-1.88-.48-.71-1.01-1.37-.64-.79-1.37-1.51-.72-.72-1.5-1.36-.66-.54-1.37-1.02-.92-.61-1.89-1.12-.69-.36-1.42-.67-.9-.38-1.83-.67-.89-.28-1.81-.47-.58-.11-1.17-.2-1.36-.19-2.75-.19t-2.75.19q-.59.09-1.16.2-.93.19-1.82.47-.93.29-1.83.67-.73.31-1.42.67-.97.51-1.89 1.12-.7.48-1.37 1.02-.78.64-1.5 1.36-.72.72-1.36 1.5-.54.67-1.02 1.38-.62.91-1.12 1.88-.37.69-.67 1.42-.38.9-.67 1.83-.28.9-.47 1.82-.11.58-.2 1.16-.19 1.36-.19 2.75 0 1.04.11 2.06.11 1.03.33 2.05.21.98.52 1.94.32.98.75 1.94.44.98.99 1.9.49.84 1.07 1.62.63.85 1.33 1.63.69.75 1.45 1.42zm10.05 4.34c-3.65-.56-7.03-2.14-9.81-4.6a19.07 19.07 0 01-6.44-14.3c0-10.53 8.56-19.09 19.09-19.09s19.09 8.56 19.09 19.09c0 5.47-2.34 10.68-6.44 14.3a18.925 18.925 0 01-9.81 4.6c-2 .26-3.68.26-5.68 0zm18.71 13.14v-6.71q0-.07.03-.14l.06-.08q.04-.03.08-.05.06-.03.14-.03h6.71l-9.83-9.83-.25.2q-1.39 1.16-2.93 2.04-.55.31-1.12.59-1.29.64-2.65 1.07-.94.3-1.9.51l-.63.13 12.29 12.3zm-31.77-6.85q.03.07.03.14v6.71l12.29-12.28-.62-.14q-1.34-.29-2.61-.75-1-.36-1.96-.83-1.01-.49-1.95-1.09-1.1-.7-2.1-1.54l-.25-.2-9.82 9.82h6.71q.08 0 .14.03.04.02.08.05.04.04.06.08zm32.08-.51a.65.65 0 00-.66.65v5.86l-.35-.35-10.6-10.6-.29-.29.4-.09c3.08-.72 5.92-2.16 8.36-4.19l9 9.01H55.7zM24 63.63v-5.37c0-.37-.29-.66-.66-.66h-5.86l.35-.35 8.64-8.64c2.44 2.03 5.3 3.46 8.37 4.19l.4.09-.29.29-10.6 10.59-.35.35v-.49z" fill="#FFF" fill-rule="evenodd"/><path d="M52.8 29.08c.19-.17.25-.43.18-.67a.683.683 0 00-.53-.44l-8.57-1.25-3.83-7.77c-.23-.45-.97-.45-1.19 0l-3.83 7.77-8.57 1.25c-.25.04-.45.21-.53.44-.08.24-.01.5.17.67l6.2 6.05-1.46 8.53c-.04.25.05.5.26.65.2.14.48.17.7.05l7.67-4.03 7.66 4.03c.09.05.2.08.3.08.13 0 .28-.04.38-.13.2-.15.31-.4.27-.65l-1.47-8.53 6.19-6.05zM39.76 39a.68.68 0 00-.31-.08c-.1 0-.21.03-.3.08l-6.78 3.57 1.29-7.56a.684.684 0 00-.18-.58l-5.49-5.36 7.58-1.1c.21-.03.39-.18.5-.36l3.4-6.87 3.39 6.87c.1.2.28.33.5.36l7.59 1.1-5.49 5.36c-.16.16-.23.37-.19.58l1.29 7.56-6.8-3.57z" fill="#000"/><path d="M46.61 35.13l6.19-6.05c.19-.17.25-.43.18-.67a.683.683 0 00-.53-.44l-8.57-1.25-3.83-7.77c-.23-.45-.97-.45-1.19 0l-3.83 7.77-8.57 1.25c-.25.04-.45.21-.53.44-.08.24-.01.5.17.67l6.2 6.05-1.46 8.53c-.04.25.05.5.26.65.2.14.48.17.7.05l7.67-4.03 7.66 4.03c.09.05.2.08.3.08.13 0 .28-.04.38-.13.2-.15.31-.4.27-.65l-1.47-8.53zm6.01-6.66q.01.03.02.05.02.04.02.08t-.01.09q-.01.04-.03.08-.03.03-.05.06h-.01l-6.32 6.18 1.49 8.71q.01.04 0 .08 0 .04-.02.09-.02.05-.06.09l-.04.04-.02.01-.01.01q-.05.05-.15.05-.05 0-.1-.02-.01-.01-.03-.02l-7.83-4.12-7.83 4.12q-.03.01-.05.02-.06.02-.12.01-.06 0-.11-.03-.02-.01-.05-.03h-.01q-.03-.02-.05-.05-.03-.04-.05-.08-.01-.02-.01-.05-.01-.06 0-.12l1.49-8.71-6.34-6.18q-.03-.03-.05-.06-.02-.04-.03-.08-.01-.05-.01-.09 0-.04.01-.08.02-.05.06-.1l.04-.04q.03-.03.07-.05l.08-.02 8.75-1.27 3.91-7.94.02-.02q.03-.05.08-.08h.01q.08-.04.17-.04.1 0 .18.04.06.04.09.09.01 0 .01.01l3.91 7.94 8.75 1.27.06.02q.05.02.1.05.04.04.07.09zM39.35 39.29q.05-.02.1-.02.06 0 .1.02.02.01.03.01l.01.01 7.44 3.9-1.41-8.26q-.02-.07 0-.13.02-.08.08-.14l6-5.85-8.29-1.21h-.01q-.08-.01-.14-.06-.05-.04-.08-.1l-3.71-7.51-3.71 7.49q-.03.06-.08.1-.01.01-.03.02-.05.04-.11.05-.01.01-.02.01l-8.29 1.21 6 5.85.01.01q.04.05.06.11.02.06.02.11v.04l-1.41 8.26 7.41-3.9v-.01q.02 0 .03-.01zm-3.28-11.68c-.11.18-.29.33-.5.36l-7.15 1.04-.43.06.31.31 5.18 5.05c.14.15.22.37.18.58l-1.22 7.12-.07.44.39-.21L39.15 39c.09-.05.2-.08.3-.08.11 0 .21.03.31.08l6.41 3.36.39.21-.07-.44-1.22-7.12c-.04-.21.03-.42.19-.58l5.17-5.05.32-.31-.44-.06-7.15-1.04a.647.647 0 01-.5-.36l-3.2-6.48-.19-.39-.2.39-3.2 6.48z" fill="#FFF" fill-rule="evenodd"/></g></symbol><symbol fill="none" viewBox="0 0 82 82" id="why-5" xmlns="http://www.w3.org/2000/svg"><defs><clipPath id="wa"><rect rx="-.059" width="81.883" height="81.883" transform="translate(.059 .059)" fill="#fff" fill-opacity="0"/></clipPath></defs><rect rx="-.059" width="81.883" height="81.883" transform="translate(.059 .059)" fill="none"/><g clip-path="url(#wa)"><path d="M69.33 43.85c.48-.25.67-.83.41-1.31a.973.973 0 00-1.31-.41l-10.62 5.53v-1.9l11.52-6.01c.48-.25.67-.83.41-1.31-.24-.47-.82-.65-1.31-.41l-10.62 5.53v-1.8l11.52-6a.98.98 0 00.53-.87.986.986 0 00-.56-.87l-17.84-8.61a.975.975 0 00-.85 0l-38 18.57c-.34.16-.55.5-.55.88 0 .37.22.7.55.87l18.99 9.22c.14.07.29.11.43.11.15 0 .31-.04.45-.12l12.26-6.38v1.81l-12.72 6.62-18.57-9.02c-.47-.23-1.05-.02-1.29.45a.968.968 0 00.45 1.29l19 9.24c.14.06.28.09.43.09.15 0 .31-.04.44-.11l12.26-6.39v1.91l-12.72 6.62-18.56-9c-.48-.25-1.06-.04-1.3.45a.97.97 0 00.45 1.29l19 9.22c.14.07.28.11.43.11.15 0 .31-.04.44-.12l12.26-6.38v1.78l-12.72 6.62-18.56-9.01a.986.986 0 00-1.3.46.974.974 0 00.45 1.3l19 9.22c.14.08.28.1.43.1.15 0 .3-.04.44-.12l24.81-12.9 12.04-6.28c.48-.24.67-.83.41-1.31a.964.964 0 00-1.31-.41l-10.62 5.54v-1.79l11.52-5.99zm-18.29-16.5l15.68 7.58-9.96 5.18-15.86-7.8 10.14-4.96zM32.02 52.99l-16.76-8.15 12.02-5.87 16.28 8.01-11.54 6.01zm14.67-5.44l6.23-3.24c.47-.25.65-.83.41-1.31a.955.955 0 00-1.3-.41l-6.32 3.28-16.22-7.98 9.21-4.5 17.16 8.45v10.79l-9.17 4.78v-9.86z" fill="#000"/><path d="M57.81 41.76v1.8l.66-.34 9.96-5.19c.49-.24 1.07-.06 1.31.41.26.48.07 1.06-.41 1.31l-11.52 6.01v1.9l.66-.34 9.96-5.19a.973.973 0 011.31.41c.26.48.07 1.06-.41 1.31l-11.52 5.99v1.79l.66-.34 9.96-5.2a.964.964 0 011.31.41c.26.48.07 1.07-.41 1.31l-12.04 6.28-24.81 12.9c-.14.08-.29.12-.44.12-.15 0-.29-.02-.43-.1l-19-9.22a.974.974 0 01-.45-1.3c.24-.49.82-.68 1.3-.46l18.56 9.01 12.72-6.62v-1.78l-.65.34-11.61 6.04c-.13.08-.29.12-.44.12-.15 0-.29-.04-.43-.11l-19-9.22a.97.97 0 01-.45-1.29c.24-.49.82-.7 1.3-.45l18.56 9 12.72-6.62v-1.91l-.65.34-11.61 6.05c-.13.07-.29.11-.44.11-.15 0-.29-.03-.43-.09l-19-9.24a.968.968 0 01-.45-1.29c.24-.47.82-.68 1.29-.45l18.57 9.02 12.72-6.62v-1.81l-.66.34-11.6 6.04a.92.92 0 01-.45.12.98.98 0 01-.43-.11l-18.99-9.22a.988.988 0 01-.55-.87c0-.38.21-.72.55-.88l38-18.57c.27-.13.59-.13.85 0l17.84 8.61c.34.16.55.5.56.87 0 .36-.2.7-.53.87l-11.52 6zM12.9 45.14q-.11-.06-.15-.15-.03-.06-.03-.13 0-.11.05-.18.04-.07.12-.11l38-18.57q.1-.05.19-.03.05.01.1.03l17.83 8.61q.1.04.14.12.05.07.05.17 0 .11-.05.18-.04.06-.11.09h-.01l-11.88 6.19v3.29l11.58-6.03q.08-.04.15-.04.05 0 .1.01.05.02.09.04.06.05.09.12.04.06.04.12.01.06-.01.11-.02.06-.05.1-.04.06-.11.09l-11.88 6.19v3.39l11.58-6.04q.14-.07.25-.04.11.03.18.18.04.06.04.12.01.06-.01.11-.02.06-.05.1-.04.06-.11.09l-11.88 6.17v3.28l11.59-6.05q.12-.07.22-.04.12.03.21.19.02.05.03.1.01.06-.01.12-.02.05-.05.09-.04.06-.11.1L56.98 53.5 32.17 66.41l-.01.01q-.03.01-.05.02-.03.01-.07.01-.08 0-.1-.01l-.02-.01L12.9 57.2q-.07-.04-.11-.09-.04-.04-.06-.1-.02-.05-.01-.11 0-.06.03-.13.07-.14.17-.17.11-.04.25.02l18.86 9.16 13.37-6.97v-3.25l-13.23 6.89h-.01q-.02.01-.05.02-.03.01-.07.01-.06 0-.14-.04l-19.01-9.22q-.05-.02-.08-.06-.05-.05-.07-.12-.03-.07-.02-.14.01-.05.03-.09.03-.07.08-.11.05-.04.11-.06.04-.02.09-.02.07 0 .14.04l18.86 9.15 13.37-6.96v-3.39l-13.21 6.89q-.08.03-.15.03-.09 0-.14-.02l-19.01-9.24q-.06-.03-.09-.07-.04-.05-.06-.1-.03-.08-.02-.15.01-.05.03-.09.07-.15.18-.18.1-.03.24.03l18.86 9.17 13.36-6.97v-3.28l-13.23 6.88-.01.01-.04.02q-.04.01-.08.01-.06 0-.14-.04L12.9 45.14zm43.87-4.29l10.25-5.34 1.16-.6-17.14-8.28-11.63 5.68 17.36 8.54zm9.21-6.27l.74.35-.73.38-9.23 4.8-15.12-7.43-.74-.37.74-.36 9.4-4.6 14.94 7.23zm-13.2 8.98q-.03.1-.16.16h-.01l-6.57 3.43v11.34l10.48-5.46v-11.6L38.7 32.66 28 37.89l17.72 8.71 6.61-3.43q.06-.03.12-.04.05 0 .11.02.07.02.12.06.04.04.07.09.07.15.03.26zm-6.09 3.99l6.23-3.24c.47-.25.65-.83.41-1.31a.955.955 0 00-1.3-.41l-6.32 3.28-15.47-7.61-.75-.37.75-.36 8.46-4.14 17.16 8.45v10.79l-8.51 4.44-.66.34v-9.86zm-19.41-9.31l-12.31 6.01-1.21.6 18.27 8.88 12.99-6.76-17.74-8.73zm-11.27 6.97l-.75-.37.75-.36 11.27-5.51 15.55 7.65.73.36-.72.38-10.82 5.63-16.01-7.78z" fill="#FFF" fill-rule="evenodd"/><path d="M29.42 27.86c7.84 0 13.76-2.79 13.76-6.49s-5.91-6.5-13.76-6.5c-7.84 0-13.75 2.8-13.75 6.5s5.91 6.49 13.75 6.49zm0-11.05c6.96 0 11.81 2.4 11.81 4.55s-4.85 4.55-11.81 4.55c-6.96 0-11.8-2.4-11.8-4.55s4.85-4.55 11.8-4.55z" fill="#000"/><path d="M29.42 27.86c7.84 0 13.76-2.79 13.76-6.49s-5.91-6.5-13.76-6.5c-7.84 0-13.75 2.8-13.75 6.5s5.91 6.49 13.75 6.49zm13.09-6.8q.01.15.01.31 0 .15-.01.3-.11.96-.87 1.84-.93 1.07-2.68 1.9-1.8.85-4.2 1.31-2.5.49-5.34.49-2.83 0-5.33-.49-2.4-.46-4.2-1.31-1.75-.83-2.67-1.9-.77-.88-.87-1.84-.02-.15-.02-.3 0-.16.02-.31.1-.96.87-1.84.92-1.07 2.67-1.9 1.8-.85 4.2-1.31 2.5-.48 5.33-.48 2.84 0 5.34.48 2.4.46 4.2 1.31 1.75.83 2.68 1.9.76.88.87 1.84zm-.62.36v-.06-.06q-.02-.54-.3-1.06-.27-.51-.78-.98-.95-.89-2.62-1.59-1.7-.71-3.87-1.1-2.32-.42-4.9-.42-2.57 0-4.89.42-2.17.39-3.87 1.1-1.67.7-2.62 1.59-.51.47-.78.98-.28.52-.3 1.06v.12q.02.54.3 1.06.27.51.77.98.96.89 2.63 1.59 1.7.71 3.87 1.1 2.32.42 4.89.42 2.58 0 4.9-.42 2.17-.39 3.87-1.1 1.67-.7 2.62-1.59.51-.47.78-.98.28-.52.3-1.06zm-12.47-4.61c6.96 0 11.81 2.4 11.81 4.55s-4.85 4.55-11.81 4.55c-6.96 0-11.8-2.4-11.8-4.55s4.85-4.55 11.8-4.55z" fill="#FFF" fill-rule="evenodd"/><path d="M42.95 27.01c.22-.49 0-1.07-.49-1.28a.981.981 0 00-1.29.49c-.66 1.49-5.34 3.1-11.74 3.1-6.39 0-11.07-1.61-11.75-3.1-.22-.49-.8-.71-1.28-.49-.5.22-.71.8-.49 1.28 1.32 2.92 7.93 4.25 13.52 4.25s12.21-1.33 13.51-4.25h.01z" fill="#000"/><path d="M42.94 27.01h.01c.22-.49 0-1.07-.49-1.28a.981.981 0 00-1.29.49c-.66 1.49-5.34 3.1-11.74 3.1-6.39 0-11.07-1.61-11.75-3.1-.22-.49-.8-.71-1.28-.49-.5.22-.71.8-.49 1.28 1.32 2.92 7.93 4.25 13.52 4.25s12.21-1.33 13.51-4.25zm-.58-.3q.02-.04.02-.08 0-.07-.02-.13-.03-.07-.08-.11-.03-.04-.08-.06h-.01q-.06-.03-.13-.03-.05 0-.11.02t-.1.06q-.05.04-.08.11-.34.76-1.49 1.41-1.05.6-2.65 1.06-1.66.47-3.68.73-2.16.28-4.52.28-2.35 0-4.52-.28-2.02-.26-3.68-.73-1.6-.46-2.65-1.06-1.15-.65-1.49-1.41-.03-.06-.08-.11-.04-.03-.1-.06-.07-.02-.13-.02-.05.01-.11.03-.08.04-.13.1-.02.03-.04.08-.02.06-.02.12 0 .05.03.11.39.87 1.62 1.6 1.22.73 3.11 1.26 1.79.49 3.98.75 2.09.25 4.21.25t4.21-.25q2.19-.26 3.98-.75 1.9-.53 3.11-1.26 1.23-.73 1.62-1.59l.01-.04z" fill="#FFF" fill-rule="evenodd"/><path d="M30.4 33.96c0-.54-.43-.97-.97-.97-6.39 0-11.07-1.61-11.75-3.1a.97.97 0 10-1.77.8c1.32 2.91 7.93 4.24 13.52 4.24.53 0 .97-.43.97-.97z" fill="#000"/><path d="M30.4 33.96v-.02c0-.25-.1-.47-.25-.63a.952.952 0 00-.72-.32c-6.39 0-11.07-1.61-11.75-3.1a.97.97 0 10-1.77.8c1.32 2.91 7.93 4.24 13.52 4.24.53 0 .97-.43.97-.97zm-.65-.02q-.01-.06-.03-.11-.02-.05-.07-.09-.04-.05-.09-.07-.06-.02-.13-.02-2.35 0-4.52-.28-2.02-.26-3.68-.74-1.6-.46-2.65-1.06-1.15-.65-1.5-1.41-.02-.05-.06-.09-.04-.05-.12-.08-.06-.02-.13-.02-.05.01-.1.03-.08.03-.12.09-.03.04-.05.09-.02.05-.02.1 0 .07.03.14.39.86 1.62 1.6 1.22.72 3.11 1.25 1.79.49 3.98.76 2.09.25 4.21.25.06 0 .12-.03.05-.02.1-.07.05-.04.07-.1.03-.06.03-.12v-.02z" fill="#FFF" fill-rule="evenodd"/><path d="M23.39 37.68c.47 0 .88-.34.96-.83.07-.53-.29-1.03-.82-1.1-4.08-.61-5.63-1.64-5.88-2.1a.965.965 0 00-1.32-.39c-.47.26-.65.85-.39 1.32.99 1.8 4.52 2.67 7.3 3.09.05 0 .1.01.15.01z" fill="#000"/><path d="M23.51 37.67c.42-.05.77-.37.84-.82.07-.53-.29-1.03-.82-1.1-4.08-.61-5.63-1.64-5.88-2.1a.965.965 0 00-1.32-.39c-.47.26-.65.85-.39 1.32.99 1.8 4.52 2.67 7.3 3.09h.03c.04.01.08.01.12.01.04 0 .08 0 .12-.01zm-.12-.65q.06 0 .11-.01.05-.02.09-.06.04-.03.07-.07.03-.06.04-.12.01-.07-.01-.14-.01-.05-.05-.1-.04-.06-.09-.09-.05-.03-.11-.04-2.8-.41-4.54-1.15-.71-.29-1.18-.62t-.65-.66q-.03-.05-.07-.09-.05-.04-.12-.06-.05-.02-.11-.01-.06 0-.13.04-.05.03-.09.07-.04.05-.06.12-.02.06-.01.13.01.05.03.1.28.5.96.95.66.44 1.67.81 1.69.62 4.2 1h.05z" fill="#FFF" fill-rule="evenodd"/><path d="M17.59 37.16c-.3-.45-.9-.55-1.35-.25-.44.3-.55.91-.24 1.35.53.77 1.77 1.39 3.78 1.87.08.02.15.03.23.03.44 0 .84-.3.95-.74a.98.98 0 00-.72-1.18c-2.24-.54-2.63-1.06-2.65-1.08z" fill="#000"/><path d="M17.59 37.16c-.3-.45-.9-.55-1.35-.25-.44.3-.55.91-.24 1.35.53.77 1.77 1.39 3.78 1.87.08.02.15.03.23.03.44 0 .84-.3.95-.74a.98.98 0 00-.72-1.18c-2.24-.54-2.63-1.06-2.65-1.08zm-.98.29q-.05.03-.08.07-.03.06-.05.13-.01.07.01.13.01.05.05.1.3.45 1.09.84.87.43 2.31.78h.07q.05 0 .09-.01.05-.01.11-.05.04-.04.07-.08.03-.04.04-.1.02-.06.01-.12t-.04-.11q-.04-.05-.08-.09-.05-.04-.13-.06-1.43-.35-2.25-.77-.5-.26-.73-.52l-.03-.03-.02-.04q-.04-.05-.08-.08-.05-.03-.12-.04-.05-.01-.11-.01-.07.02-.13.06zm.5.15z" fill="#FFF" fill-rule="evenodd"/><path d="M41.85 38.19c2.23-.92 4.32-.98 4.68-.12.35.85-1.16 2.3-3.39 3.22-2.23.93-4.32.99-4.68.13-.36-.86 1.16-2.3 3.39-3.23z" fill="#000"/><path d="M41.85 38.19c-2.23.93-3.75 2.37-3.39 3.23.36.86 2.45.8 4.68-.13 2.23-.92 3.74-2.37 3.39-3.22-.36-.86-2.45-.8-4.68.12zm.27.6l-.02.01q-.77.32-1.42.72-.62.39-1.04.79-.38.36-.52.65-.05.11-.06.18 0 .02.01.03 0 .01.02.02.05.05.16.08.3.11.83.1.58-.02 1.29-.18.75-.18 1.52-.5t1.42-.73q.62-.38 1.04-.78.38-.36.52-.66.05-.1.05-.17.01-.03 0-.03 0-.01-.02-.03-.05-.04-.16-.08-.31-.11-.83-.09-.58.01-1.29.18-.74.17-1.5.49z" fill="#FFF" fill-rule="evenodd"/></g></symbol><symbol fill="none" viewBox="0 0 115 115" id="why-6" xmlns="http://www.w3.org/2000/svg"><defs><clipPath id="xa"><rect rx="-.082" width="114.836" height="114.836" transform="translate(.082 .082)" fill="#fff" fill-opacity="0"/></clipPath></defs><rect rx="-.082" width="114.836" height="114.836" transform="translate(.082 .082)" fill="none"/><g clip-path="url(#xa)"><path d="M29.95 35.64c-.79.01-1.43.65-1.43 1.44 0 .79.64 1.43 1.43 1.43h39.63v32.75H51.5c-.5-3.43-3.44-6.09-6.97-6.09-3.54 0-6.47 2.66-6.97 6.09h-6.17v-6.23c0-.39-.15-.75-.42-1.02-.27-.28-.64-.43-1.02-.43a1.5 1.5 0 00-1.02.43c-.26.27-.41.64-.41 1.02v7.67c0 .79.64 1.43 1.43 1.43h7.77c.81 3.04 3.55 5.31 6.81 5.31 3.25 0 6-2.27 6.8-5.31h26.23c.8 3.04 3.55 5.31 6.8 5.31 3.26 0 6-2.27 6.8-5.31h6.54c.79 0 1.43-.64 1.43-1.43V59.35c0-.18-.03-.37-.1-.54l-5.38-13.34c-.22-.54-.74-.9-1.33-.9H72.46v-7.49c0-.79-.65-1.43-1.44-1.43l-41.07-.01zm-6.26 9.1c-.38 0-.75.15-1.02.42-.26.27-.41.64-.41 1.02 0 .79.64 1.43 1.43 1.43h21.69c.38.01.75-.14 1.02-.41a1.446 1.446 0 000-2.04c-.27-.27-.64-.42-1.02-.42H23.69zm48.77 2.71h18.89l4.22 10.47H72.46V47.45zm-55.25 6.46c-.39-.01-.75.14-1.02.41-.27.27-.43.64-.43 1.02.01.38.16.75.43 1.02.27.26.64.41 1.02.41h28.17c.38 0 .75-.15 1.02-.41a1.446 1.446 0 000-2.04c-.27-.27-.64-.42-1.02-.41H17.21zm55.25 6.88h23.8v10.47h-4.93c-.5-3.43-3.43-6.09-6.97-6.09-3.53 0-6.46 2.66-6.96 6.09h-4.94V60.79zm-28.04 7.25h.11c2.31 0 4.17 1.87 4.17 4.26 0 2.38-1.86 4.26-4.17 4.26-2.31 0-4.17-1.88-4.17-4.26 0-2.35 1.81-4.2 4.06-4.26zm39.84 0h.1c2.31 0 4.18 1.87 4.18 4.26 0 2.38-1.87 4.26-4.18 4.26-2.3 0-4.16-1.88-4.16-4.26 0-2.35 1.8-4.2 4.06-4.26z" fill="#000"/><path d="M72.46 43.47v-6.39c0-.79-.65-1.43-1.44-1.43l-41.07-.01c-.79.01-1.43.65-1.43 1.44 0 .79.64 1.43 1.43 1.43h39.63v32.75H51.5c-.5-3.43-3.44-6.09-6.97-6.09-3.54 0-6.47 2.66-6.97 6.09h-6.17v-6.23c0-.39-.15-.75-.42-1.02-.27-.28-.64-.43-1.02-.43a1.5 1.5 0 00-1.02.43c-.26.27-.41.64-.41 1.02v7.67c0 .79.64 1.43 1.43 1.43h7.77c.81 3.04 3.55 5.31 6.81 5.31 3.25 0 6-2.27 6.8-5.31h26.23c.8 3.04 3.55 5.31 6.8 5.31 3.26 0 6-2.27 6.8-5.31h6.54c.79 0 1.43-.64 1.43-1.43V59.35c0-.18-.03-.37-.1-.54l-5.3-13.14-.08-.2a1.14 1.14 0 00-.1-.19c-.25-.43-.72-.71-1.23-.71H72.46v-1.1zm20.17 2.41q-.04-.1-.12-.15-.08-.06-.19-.06H71.36v-8.59q0-.17-.08-.25-.09-.08-.26-.08l-41.07-.01q-.16.01-.25.09-.08.08-.08.25 0 .16.08.24.09.09.25.09h40.73v34.95H50.55l-.14-.94q-.38-2.62-1.89-3.91-1.47-1.24-3.99-1.24-2.52 0-3.99 1.24-1.51 1.29-1.89 3.91l-.14.94h-8.22v-7.33q0-.08-.03-.15-.02-.05-.07-.1-.04-.05-.1-.07-.06-.03-.14-.03-.06 0-.12.03-.06.02-.11.07-.06.05-.08.12-.02.05-.02.12v7.68q0 .16.08.25.08.08.25.08h8.62l.22.82q.61 2.3 2.1 3.43 1.42 1.06 3.64 1.06t3.63-1.06q1.5-1.13 2.11-3.43l.22-.82H78.4l.22.82q.61 2.3 2.11 3.43 1.42 1.06 3.63 1.06 2.22 0 3.63-1.06 1.5-1.12 2.11-3.43l.21-.82h7.39q.17 0 .25-.08.08-.08.08-.25V59.35v-.07l-.02-.06-5.38-13.34zm-68.94-1.14c-.38 0-.75.15-1.02.42-.26.27-.41.64-.41 1.02 0 .79.64 1.43 1.43 1.43h21.69c.38.01.75-.14 1.02-.41a1.446 1.446 0 000-2.04c-.27-.27-.64-.42-1.02-.42H23.69zm-.24 1.2h.01q.05-.06.12-.08.05-.02.11-.02h21.69q.07 0 .13.02.06.03.11.08t.07.1q.03.06.03.14 0 .07-.02.13-.03.06-.08.11-.04.04-.1.06-.06.03-.14.03H23.69q-.16 0-.25-.08-.08-.08-.08-.25 0-.07.02-.13t.07-.11zM97.2 59.02l-4.83-11.99-.28-.68H71.36v12.67H97.2zm-5.85-11.57H72.46V57.92H95.57l-.44-1.1-3.78-9.37zm-74.14 6.46c-.39-.01-.75.14-1.02.41-.27.27-.43.64-.43 1.02.01.38.16.75.43 1.02.27.26.64.41 1.02.41h28.17c.38 0 .75-.15 1.02-.41a1.446 1.446 0 000-2.04c-.27-.27-.64-.42-1.02-.41H17.21zm-.32 1.3q.02-.06.07-.11.05-.04.1-.06.07-.03.15-.03h28.17q.07 0 .13.02t.11.07q.06.06.08.12.02.06.02.12 0 .07-.02.12-.03.06-.08.11-.04.05-.1.07-.06.03-.14.03H17.2q-.07 0-.13-.02t-.11-.08q-.05-.05-.08-.12-.02-.05-.02-.11 0-.07.03-.13zm80.47 17.15V59.69h-26v12.67h6.99l.13-.94q.39-2.62 1.9-3.91 1.47-1.24 3.98-1.24 2.52 0 3.98 1.24 1.51 1.28 1.9 3.91l.13.94h6.99zm-24.9-11.57h23.8V71.26h-4.93c-.5-3.43-3.43-6.09-6.97-6.09-3.53 0-6.46 2.66-6.96 6.09h-4.94V60.79zm-25.89 6.55q-.94-.4-2.04-.4h-.13q-1.08.03-1.99.43-.91.4-1.66 1.18-.69.72-1.06 1.59-.43.98-.43 2.16 0 1.18.43 2.18.39.88 1.1 1.61.78.79 1.72 1.19.93.38 2.02.38 1.09 0 2.02-.38.94-.4 1.72-1.19.71-.73 1.1-1.61.43-1 .43-2.18 0-1.19-.44-2.19-.38-.88-1.1-1.61-.76-.77-1.69-1.16zm39.83 0q-.93-.4-2.04-.4h-.13q-1.07.03-1.98.43-.91.4-1.66 1.18-.7.72-1.07 1.59-.42.98-.42 2.16 0 1.18.43 2.18.38.88 1.1 1.61.77.79 1.72 1.19.92.38 2.01.38 1.09 0 2.02-.38.94-.4 1.72-1.19.72-.73 1.1-1.62.44-.99.44-2.17 0-1.19-.44-2.19-.38-.88-1.1-1.61-.77-.77-1.7-1.16zm-41.91.7h.04c2.31 0 4.17 1.87 4.17 4.26 0 2.38-1.86 4.26-4.17 4.26-2.31 0-4.17-1.88-4.17-4.26 0-2.35 1.81-4.2 4.06-4.26h.07zm39.84 0h.03c2.31 0 4.18 1.87 4.18 4.26 0 2.38-1.87 4.26-4.18 4.26-2.3 0-4.16-1.88-4.16-4.26 0-2.35 1.8-4.2 4.06-4.26h.07z" fill="#FFF" fill-rule="evenodd"/></g></symbol><symbol fill="none" viewBox="0 0 91 91" id="why-7" xmlns="http://www.w3.org/2000/svg"><defs><clipPath id="ya"><rect rx="-.065" width="90.87" height="90.87" transform="translate(.065 .065)" fill="#fff" fill-opacity="0"/></clipPath></defs><rect rx="-.065" width="90.87" height="90.87" transform="translate(.065 .065)" fill="none"/><g clip-path="url(#ya)"><path d="M71.48 24.11a4.369 4.369 0 00-5.88-1.89l-2.52 1.3c-1.94 1-2.8 3.24-2.14 5.25l-3.3 1.53c-2.46.87-4.74.59-7.05-.3-2.94-1.13-3.62-.1-4.86 0h-.02c-1.4.34-3.8.91-4.92 1.18l-1.76-1.11c-3.52-2.2-6.7-1.5-7.6-1.57.22-1.77-.6-3.32-1.95-4.19l-2.38-1.54a4.373 4.373 0 00-6.04 1.31l-9.91 15.39a4.355 4.355 0 001.3 6.03l2.38 1.54c1.46.94 3.4.98 4.98-.21.3.41.63.81 1.03 1.14l1.53 1.28-.18.19c-1.35 1.45-1.27 3.74.17 5.1l1.08 1.02c.63.59 1.43.92 2.29.96.15.73.52 1.43 1.1 1.98l.84.78c.7.67 1.62 1.03 2.59 1.03.06 0 .11-.01.17-.02.18.67.54 1.28 1.05 1.76l.8.75c.6.57 1.36.9 2.17 1 .14.48.39.91.76 1.26l2.31 2.18c.52.48 1.19.75 1.9.75.76 0 1.5-.32 2.02-.87 1.65 1.53 1.84 1.7 2.47 2 .59.27 1.22.4 1.84.4 1.19 0 2.36-.48 3.21-1.41.77-.82 1.13-1.87 1.14-2.91 1.04-.1 2.06-.54 2.82-1.37.76-.82 1.13-1.86 1.14-2.9 1.04-.1 2.05-.54 2.81-1.37.76-.82 1.13-1.87 1.13-2.92a4.27 4.27 0 002.8-1.36c1-1.08 1.34-2.54 1.05-3.89l5.42-4.35 2.55-.94a4.357 4.357 0 005.64 1.49l2.52-1.3c2.14-1.1 2.98-3.74 1.88-5.88l-8.38-16.3zM16.41 44.59l-2.38-1.53c-.68-.44-.87-1.34-.44-2.02l9.92-15.38c.43-.68 1.33-.88 2.01-.44l2.38 1.54c.68.43.87 1.33.44 2.01l-9.92 15.38c-.42.66-1.36.86-2.01.44zm7.95 7.83a.71.71 0 01-.03-1c.16-.18 2.11-2.26 1.97-2.12.57-.6 1.49-.59 2.05-.06.58.55.61 1.47.06 2.05-.14.15-2.1 2.26-1.97 2.11-.27.3-.73.3-1 .04l-1.08-1.02zm5.3 4.74l-.84-.78a.879.879 0 01-.06-1.19c.13-.15 3.17-3.39 3.03-3.25.52-.55 1.41-.64 2.05-.04.58.54.6 1.45.06 2.03.15-.16-2.18 2.32-3 3.19a.9.9 0 01-1.24.04zm3.82 2.77a.877.877 0 01-.06-1.23l2.08-2.22c.57-.61 1.49-.6 2.05-.07.59.56.61 1.48.07 2.05l-2.07 2.19a.94.94 0 01-1.28.03l-.79-.75zm5.94 5.09l-2.11-1.98.82-.87c.52-.56 1.44-.62 2.05-.04.27.26.44.61.45 1 .01.38-.13.74-.39 1.02l-.82.87zm19.24-11.71c-.51.55-1.4.67-2.08.05l-4.44-3.8c-.6-.52-1.52-.45-2.05.16-.52.61-.45 1.53.16 2.05l4.39 3.76c0 .01 0 .01.01.01.58.54.62 1.46.08 2.05-.54.59-1.45.62-2.01.12l-.02-.02-3.79-3.65c-.5-.49-1.44-.6-2.05.03h-.01c-.59.62-.47 1.57.04 2.06l.02.02 3.79 3.66.01.01c.57.55.61 1.45.07 2.04-.54.59-1.46.62-2.03.1l-2.77-2.67c-.53-.52-1.68-.84-2.38-.08-.55.59-.51 1.51.08 2.06l3.06 2.82c.59.54.63 1.46.09 2.05-.44.47-1.12.6-1.7.33-.2-.09-.26-.14-1.77-1.54l-.14-.13c.22-.55.34-1.15.32-1.76a4.369 4.369 0 00-1.39-3.06c-.45-.42-.98-.71-1.54-.89.67-1.69.24-3.57-1.06-4.8-.66-.62-1.5-.97-2.38-1.08.07-1.25-.37-2.52-1.36-3.45-1.15-1.09-2.88-1.37-4.36-.9a4.28 4.28 0 00-1.11-1.74c-1.61-1.52-4.33-1.49-5.95.01l-1.68-1.4c-.45-.37-.77-.84-.95-1.38l8.31-12.89c2.29.06 4.13-.57 6.71.7a5.278 5.278 0 00-3.7 6.35c.7 2.77 3.46 4.47 6.34 3.82h.01l6.16-1.38c.53-.14 1.1-.01 1.53.33 15.71 13.67 10.29 8.95 11.46 9.97.59.55.63 1.47.08 2.06zm6.97-8.69l-5.32 4.27c-13.36-12.29-1.01-1.02-11.37-9.88-1.14-.91-2.66-1.24-4.03-.89l-6.11 1.37h-.01c-1.47.33-2.61-.6-2.88-1.69-.32-1.26.45-2.54 1.68-2.86 1.81-.43-.03 0 7.47-1.79.04 0 .08.01.12 0 0-.01.01-.01.01-.01l1.15-.29c2.08-.5 1.82-.66 3.21-.13 3.05 1.16 5.95 1.43 9.19.27l3.47-1.61 6.24 12.12c-2.4.91-2.5.86-2.82 1.12zm11.01-.92L74.13 45c-.7.36-1.61.06-1.96-.63l-7.97-15.5c-.01 0-.01-.01-.01-.01 0-.01-.01-.01-.01-.02l-.4-.77c-.36-.71-.08-1.59.63-1.96l2.52-1.3c.72-.37 1.6-.08 1.96.63l8.38 16.3c.37.71.09 1.59-.63 1.96z" fill="#000"/><path d="M69.82 46.1a4.357 4.357 0 005.64 1.49l2.52-1.3c2.14-1.1 2.98-3.74 1.88-5.88l-8.38-16.3a4.369 4.369 0 00-5.88-1.89l-2.52 1.3c-1.94 1-2.8 3.24-2.14 5.25l-3.3 1.53c-2.46.87-4.74.59-7.05-.3-2.13-.81-3.07-.5-3.9-.23-.32.1-.62.2-.96.23h-.02c-1.4.34-3.8.91-4.92 1.18l-1.76-1.11c-2.55-1.6-4.93-1.67-6.39-1.61-.18.01-.35.02-.51.02-.3.02-.54.03-.7.02.02-.14.03-.28.03-.42.05-1.59-.74-2.97-1.98-3.77l-2.38-1.54a4.373 4.373 0 00-6.04 1.31l-9.91 15.39a4.355 4.355 0 001.3 6.03l2.38 1.54c1.4.9 3.23.97 4.76-.06.08-.05.15-.1.22-.15.09.12.18.24.28.36.22.28.47.55.75.78l.61.51.92.77-.18.19c-.13.14-.25.29-.36.45-.96 1.45-.77 3.43.53 4.65l1.08 1.02c.63.59 1.43.92 2.29.96.15.73.52 1.43 1.1 1.98l.84.78c.7.67 1.62 1.03 2.59 1.03.06 0 .11-.01.17-.02.18.67.54 1.28 1.05 1.76l.8.75c.6.57 1.36.9 2.17 1 .14.48.39.91.76 1.26l2.31 2.18c.52.48 1.19.75 1.9.75.76 0 1.5-.32 2.02-.87 1.65 1.53 1.84 1.7 2.47 2 .59.27 1.22.4 1.84.4 1.19 0 2.36-.48 3.21-1.41.77-.82 1.13-1.87 1.14-2.91 1.04-.1 2.06-.54 2.82-1.37.76-.82 1.13-1.86 1.14-2.9 1.04-.1 2.05-.54 2.81-1.37.76-.82 1.13-1.87 1.13-2.92a4.27 4.27 0 002.8-1.36c1-1.08 1.34-2.54 1.05-3.89l5.42-4.35 2.55-.94zM45.93 31.18l-2.15.52-3.2.76-2.19-1.38-.14-.08q-2.51-1.51-6.05-1.32-.62.04-.86.02l-1.25-.1.15-1.24q.12-1.02-.25-1.79-.36-.74-1.16-1.25l-2.38-1.54q-1.33-.86-2.43-.62-1.09.24-1.95 1.57l-9.92 15.39q-.85 1.33-.62 2.42.24 1.1 1.57 1.96l2.38 1.53q.89.57 1.77.55.93-.02 1.84-.71l.98-.74.72 1q.41.58.82.92l2.51 2.09-1.05 1.12q-.82.88-.79 1.73.03.85.91 1.68l1.07 1.01q.26.25.57.4.43.21.96.24l.92.05.19.9q.09.45.31.81.18.3.44.54l.84.79q.38.35.82.53.42.16.9.17l.17-.02.95-.04.26.92q.13.48.4.86.14.19.31.35l.8.75q.22.21.48.36.45.25 1.01.32l.8.09.22.77q.09.32.27.56.07.08.15.16l2.32 2.17q.22.22.49.33.27.1.58.1.33 0 .62-.12t.53-.37l.82-.87.87.81q1.68 1.57 2.15 1.79.36.16.73.23.3.06.61.06.67 0 1.24-.24.61-.25 1.09-.78.35-.38.55-.82.26-.59.27-1.29l.01-1.09 1.08-.1q.75-.06 1.33-.4.4-.23.72-.58.34-.38.54-.81.27-.59.28-1.3l.02-1.08 1.07-.1q.74-.07 1.32-.4.4-.23.72-.58.35-.38.55-.84.26-.58.26-1.27l.01-1.09 1.08-.1q.74-.07 1.32-.41.39-.23.71-.57.54-.58.73-1.26.21-.73.03-1.56l-.16-.73 6.15-4.94 3.63-1.34.52.8q.78 1.19 1.81 1.46 1.02.27 2.28-.38l2.52-1.3q1.41-.72 1.75-1.79.34-1.06-.38-2.47l-8.39-16.3q-.31-.6-.79-1-.45-.38-1.07-.57-.62-.2-1.23-.15-.6.05-1.17.35l-2.52 1.3q-1.19.61-1.58 1.55-.39.95.03 2.25l.33 1.01-4.31 2.01-.06.02q-.76.27-1.55.42-3 .55-6.33-.73-1.71-.66-3.08-.22-.01 0-.02.01-.67.22-1.13.27zm28.75 14.88l2.51-1.29q1.18-.61 1.47-1.5.29-.89-.32-2.08l-8.38-16.3q-.25-.49-.64-.82-.39-.32-.91-.49-.51-.17-1.01-.13-.52.04-1.02.3l-2.52 1.29q-1.18.61-1.46 1.5-.29.9.32 2.08l.39.76v.01l.01.01 7.98 15.52q.23.44.58.75.4.37.97.55.57.18 1.11.13.47-.06.92-.29zm-10.5-17.22l-.4-.77c-.36-.71-.08-1.59.63-1.96l2.52-1.3c.72-.37 1.6-.08 1.96.63l8.38 16.3c.37.71.09 1.59-.63 1.96L74.13 45c-.7.36-1.61.06-1.96-.63l-7.97-15.5c-.01 0-.01-.01-.01-.01 0-.01-.01-.01-.01-.02zm-51.56 14.5q.29.42.76.72l2.38 1.54q.4.26.85.36.55.12 1.15-.01.6-.13 1.05-.47.36-.27.62-.68l9.91-15.38q.3-.46.39-.96.09-.5-.02-1.04-.11-.53-.4-.95-.29-.42-.76-.72l-2.38-1.54q-1.12-.72-2.04-.52-.91.2-1.63 1.32l-9.91 15.38q-.3.46-.39.96-.1.5.02 1.04.11.53.4.95zm3.79 1.25l-2.38-1.53c-.68-.44-.87-1.34-.44-2.02l9.92-15.38c.43-.68 1.33-.88 2.01-.44l2.38 1.54c.68.43.87 1.33.44 2.01l-9.92 15.38c-.42.66-1.36.86-2.01.44zm39.24 1.64q2.21 2.04 3.85 3.54l.76.7 6.12-4.91q.05-.04.64-.25.96-.35 1.85-.69l1.26-.47-7.38-14.34-4.46 2.07q-1.06.38-2.16.53-2.96.41-6.15-.81-.86-.33-1.71-.33-.62 0-1.24.16-.57.15-.99.25l-1.04.27-.14.02-.04.01-6.57 1.57-.95.23q-1.69.43-2.34 1.49-.65 1.09-.22 2.82.41 1.63 1.44 2.28 1.05.67 2.74.32h.02l.14-.04h.02l6.09-1.36.01-.01q.76-.19 1.46-.06.8.15 1.52.72 3.25 2.79 4.25 3.54.37.28.67.41.52.47 2.55 2.34zm-1.22-2.75c.02.02.05.04.07.06.45.41 1.08.99 1.96 1.8.95.88 2.21 2.04 3.85 3.55l5.32-4.27c.26-.21.37-.21 1.68-.7.31-.11.68-.25 1.14-.42l-.56-1.07-5.68-11.05-3.47 1.61c-3.24 1.16-6.14.89-9.19-.27-1.11-.42-1.17-.41-2.21-.13-.26.07-.58.16-1 .26l-1.15.29s-.01 0-.01.01h-.12c-5.34 1.28-5.95 1.42-6.51 1.56-.22.06-.44.11-.96.23-1.23.32-2 1.6-1.68 2.86.27 1.09 1.41 2.02 2.88 1.69h.01l6.11-1.37c1.37-.35 2.89-.02 4.03.89 1.7 1.46 2.79 2.37 3.48 2.93.06.05.12.1.18.14 1.15.94 1 .72.91.6-.02-.02-.03-.05-.03-.05.01-.01.19.15.95.85zm1.34 10.77l-4.41-3.78q-.09-.08-.18-.07-.09 0-.18.1-.03.04-.04.08-.02.05-.02.11.01.05.03.09.02.05.06.08l4.36 3.74q.02.01.04.03l.02.01.01.02q.97.9 1.01 1.84.04.93-.86 1.9-.89.97-1.82 1.02-.92.04-1.88-.82l-.07-.07-3.76-3.63q-.09-.09-.18-.09-.04 0-.08.02l-.07.14-.11.05q-.01.03-.01.07 0 .08.08.17l.03.02 3.76 3.64.02.02.02.02q.95.9.98 1.83.03.93-.86 1.88-.9.98-1.84 1.02-.92.04-1.88-.84l-.01-.01-2.78-2.69-.04-.04q-.16-.12-.39-.15-.16-.02-.23.05l-.01.01q-.04.04-.06.1-.01.04-.01.09 0 .05.02.09.02.05.06.08l3.06 2.83q.98.9 1.02 1.84.03.93-.86 1.9-.66.72-1.43.87-.77.15-1.65-.26-.4-.18-2.09-1.75l-.75-.7.31-.76q.19-.47.23-.95.01-.16.01-.33-.02-.59-.23-1.1-.25-.61-.78-1.11-.45-.42-1.1-.63l-1.21-.4.47-1.19q.4-1.01.21-1.88-.2-.86-.97-1.59-.15-.14-.31-.26-.59-.41-1.4-.51l-1.11-.15.07-1.11q.04-.8-.24-1.45-.25-.58-.75-1.06-.52-.49-1.15-.69-.91-.29-2.02.07l-1.12.35-.38-1.1q-.24-.68-.69-1.16l-.11-.11q-1.04-.98-2.1-.99-1.1-.02-2.22 1.01l-.77.72-2.49-2.08q-.45-.37-.78-.83-.34-.49-.54-1.08l-.18-.55 8.99-13.95.67.02q.57.01 1.67-.05 3.37-.19 5.54.87l2.82 1.39-3.03.85q-1.9.53-2.62 1.75-.71 1.23-.23 3.15.47 1.87 1.65 2.62 1.24.77 3.25.32l.03-.01.04-.01h.02l6.07-1.36q.7-.17 1.34-.03.64.14 1.22.6l.02.01 11.39 9.91.09.08q.04.03.07.06.93.88.97 1.8.03.94-.86 1.91-.88.95-1.8 1-.96.05-1.98-.87zm.81-.89l-4.44-3.8c-.6-.52-1.52-.45-2.05.16-.52.61-.45 1.53.16 2.05l4.39 3.76c0 .01 0 .01.01.01.58.54.62 1.46.08 2.05-.54.59-1.45.62-2.01.12l-.02-.02-3.79-3.65c-.5-.49-1.44-.6-2.05.03h-.01c-.59.62-.47 1.57.04 2.06l.02.02 3.79 3.66.01.01c.57.55.61 1.45.07 2.04-.54.59-1.46.62-2.03.1l-2.77-2.67c-.53-.52-1.68-.84-2.38-.08-.09.1-.17.2-.23.31-.29.57-.18 1.29.31 1.75l.97.9 2.09 1.92c.59.54.63 1.46.09 2.05-.44.47-1.12.6-1.7.33-.2-.09-.26-.14-1.77-1.54l-.14-.13c.22-.55.34-1.15.32-1.76 0-.1-.01-.19-.02-.29-.1-1.05-.57-2.02-1.37-2.77-.04-.03-.08-.07-.12-.11-.27-.23-.57-.42-.88-.57-.18-.08-.36-.15-.54-.21.07-.18.13-.36.17-.55.4-1.53-.06-3.15-1.23-4.25-.66-.62-1.5-.97-2.38-1.08.07-1.25-.37-2.52-1.36-3.45-1.15-1.09-2.88-1.37-4.36-.9a4.28 4.28 0 00-1.11-1.74c-1.61-1.52-4.33-1.49-5.95.01l-1.68-1.4c-.45-.37-.77-.84-.95-1.38l8.31-12.89c.61.01 1.2-.02 1.77-.05 1.06-.06 2.1-.12 3.24.14.54.12 1.1.31 1.7.61-.56.16-1.07.4-1.53.71a5.273 5.273 0 00-2.17 5.64c.7 2.77 3.46 4.47 6.34 3.82h.01l6.16-1.38c.53-.14 1.1-.01 1.53.33 6.11 5.32 9.02 7.85 10.37 9.02.47.41.75.65.91.79 0 0 .04.04.18.16 0 0 0 .01.01.01.31.29.47.7.46 1.11-.01.34-.14.67-.39.94-.51.55-1.4.67-2.08.05zm-32.15-3.81l-.98 1.05q-.65.7-.63 1.37.03.68.72 1.33l1.07 1.01q.28.26.61.39.35.14.75.13.4-.01.73-.16.32-.15.58-.41l.03-.03.01-.01.98-1.06.98-1.05q.91-.96.88-1.9-.03-.94-.99-1.84-.96-.91-1.9-.88-.92.02-1.82.97l-.02.02-.01.01-.99 1.06zm1.87-.25l-1.97 2.12a.71.71 0 00.03 1l.88.83.2.19c.27.25.72.26.99-.03.01 0 .01-.01.01-.01 0 .01-.01.01-.01.01l.01-.01c.07-.07.67-.72 1.19-1.27.38-.41.72-.78.78-.84.55-.58.52-1.5-.06-2.05-.26-.24-.59-.38-.92-.39-.4-.02-.81.12-1.12.45h-.01zm.96 6.59q.05.7.74 1.36l.84.79q.29.26.63.4.39.16.86.15.48-.02.87-.21.32-.16.57-.43l1.37-1.46 1.64-1.74v-.01h.01q.89-.96.86-1.88-.03-.93-.99-1.83-.46-.43-1-.61-.44-.15-.94-.13-.53.03-.98.23-.44.2-.81.59l-.01.01-1.52 1.63-1.55 1.65-.02.03q-.62.75-.57 1.46zm4.53-3.95l-3.03 3.25c-.29.35-.27.87.06 1.19l.84.78a.9.9 0 001.24-.04c.77-.82 2.87-3.05 3-3.19l.01-.01c.3-.32.42-.74.37-1.14a1.477 1.477 0 00-1.36-1.29c-.42-.02-.83.14-1.12.45h-.01zm2.84 3.71l-2.09 2.22-.02.02-.02.03q-.65.76-.61 1.49.04.72.76 1.4l.8.75q.76.71 1.5.69.75-.02 1.47-.78l2.07-2.19q.37-.39.55-.85.18-.48.17-1.04-.02-.56-.23-1.02-.21-.46-.61-.83-.38-.37-.84-.55-.47-.18-1.02-.17-.55.01-1.01.21-.48.21-.87.62zm-1.15 4.28a.877.877 0 01-.06-1.23l2.08-2.22c.57-.61 1.49-.6 2.05-.07.59.56.61 1.48.07 2.05l-2.07 2.19a.94.94 0 01-1.28.03l-.79-.75zm3.77 1.41l-.82.87-.82.88 3.86 3.63 1.64-1.75q.37-.39.55-.86.18-.47.17-1.02-.02-.55-.23-1.01-.21-.46-.6-.83-.42-.39-.92-.57-.46-.17-1-.16-.57.02-1.05.25-.43.2-.78.57zm.93 2.52l-.87-.82.82-.87v-.01a1.45 1.45 0 012.05-.03c.27.26.44.61.45 1 .01.38-.13.74-.39 1.02l-.82.87-1.24-1.16z" fill="#FFF" fill-rule="evenodd"/></g></symbol><symbol fill="none" viewBox="0 0 98 98" id="why-8" xmlns="http://www.w3.org/2000/svg"><defs><clipPath id="za"><rect rx="-.07" width="97.86" height="97.86" transform="translate(.07 .07)" fill="#fff" fill-opacity="0"/></clipPath></defs><rect rx="-.07" width="97.86" height="97.86" transform="translate(.07 .07)" fill="none"/><g clip-path="url(#za)"><path d="M60.72 46.48c-.79 0-1.55-.32-2.1-.88-.56-.55-.87-1.3-.86-2.08 0-.82-.66-1.48-1.48-1.48h-4.44v-2.96c0-.82-.66-1.48-1.48-1.48H37.04c-.82 0-1.48.66-1.48 1.48v14.8c0 .82.66 1.48 1.48 1.48 0 1.58.84 3.05 2.22 3.84 1.37.8 3.07.8 4.44 0a4.443 4.443 0 002.22-3.84h5.92c0 1.58.85 3.05 2.22 3.84 1.37.8 3.07.8 4.44 0a4.443 4.443 0 002.22-3.84c.82 0 1.48-.66 1.48-1.48v-5.92c0-.82-.66-1.48-1.48-1.48zM54.98 45c.26 1.02.8 1.96 1.56 2.7a5.83 5.83 0 002.7 1.55v3.15h-7.4V45h3.14zm-13.5 11.84c-.82 0-1.48-.67-1.48-1.48h2.96c0 .81-.66 1.48-1.48 1.48zm2.54-4.44h-5.5V40.56h10.36V52.4h-4.86zm12.26 4.44c-.82 0-1.48-.67-1.48-1.48h2.96c0 .81-.66 1.48-1.48 1.48z" fill="#000"/><path d="M60.72 55.36c.82 0 1.48-.66 1.48-1.48v-5.92c0-.82-.66-1.48-1.48-1.48-.79 0-1.55-.32-2.1-.88-.56-.55-.87-1.3-.86-2.08 0-.82-.66-1.48-1.48-1.48h-4.44v-2.96c0-.82-.66-1.48-1.48-1.48H37.04c-.82 0-1.48.66-1.48 1.48v14.8c0 .82.66 1.48 1.48 1.48 0 1.59.85 3.05 2.22 3.84 1.37.8 3.07.8 4.44 0a4.431 4.431 0 002.22-3.84h5.92c0 1.58.85 3.05 2.22 3.84 1.37.8 3.07.8 4.44 0a4.443 4.443 0 002.22-3.84zm-2.92-8.94q-.61-.6-.91-1.33-.3-.73-.29-1.58 0-.15-.08-.23-.08-.08-.24-.08h-5.6v-4.12q0-.07-.03-.13-.02-.05-.07-.1-.04-.05-.1-.07-.05-.02-.12-.02H37.04q-.16 0-.24.08-.08.08-.08.24v14.8q0 .16.08.24.08.08.24.08h1.16v1.16q0 .94.41 1.65t1.23 1.19q.82.47 1.64.47t1.64-.47q.82-.48 1.23-1.19.41-.71.41-1.65V54.2H53v1.16q0 .94.41 1.65t1.23 1.19q.82.47 1.64.47t1.64-.47q.82-.48 1.23-1.18.41-.71.41-1.66V54.2h1.16q.16 0 .24-.08.08-.08.08-.24v-5.92q0-.16-.08-.24-.08-.08-.24-.08-.86 0-1.59-.31-.73-.3-1.33-.91zm-20.44-7.03v14.17h12.68V39.39H37.36zm1.16 11.85V40.56h10.36V52.4H38.52v-1.16zm19.84-3.58q-.54-.32-1-.78l-.01-.01q-.47-.46-.78-1-.3-.54-.46-1.16l-.22-.88h-5.21v9.73h9.72v-5.21l-.87-.22q-.62-.17-1.17-.47zM54.98 45c.26 1.02.8 1.96 1.56 2.7a5.83 5.83 0 002.7 1.55v3.15h-7.4V45h3.14zm-10.86 9.2h-5.29l.01 1.16q0 1.32.66 1.98.66.66 1.98.66 1.32 0 1.98-.66.66-.66.66-1.98V54.2zm14.8 0h-5.28v1.16q0 1.32.66 1.98.66.66 1.98.66 1.32 0 1.98-.66.66-.66.66-1.98V54.2zm-3.56 2.32c.26.2.57.32.92.32a1.48 1.48 0 001.48-1.48H54.8c0 .47.22.89.56 1.16zm-14.8 0a1.48 1.48 0 01-.56-1.16h2.96c0 .47-.22.89-.57 1.16a1.467 1.467 0 01-1.83 0z" fill="#FFF" fill-rule="evenodd"/><path d="M60 69.73a24.13 24.13 0 01-17.91.79 24.046 24.046 0 01-13.52-11.77 24.15 24.15 0 01-1.68-17.85l1.81 3.67a1.49 1.49 0 001.99.67c.73-.36 1.03-1.25.67-1.98l-3.35-6.76c-.03-.05-.08-.11-.12-.16-.1-.18-.25-.32-.44-.42-.05-.04-.1-.07-.15-.11-.02-.01-.05-.01-.07-.01-.1-.04-.2-.06-.31-.07-.08-.02-.17-.04-.26-.04-.09.01-.18.02-.26.05-.1.01-.2.04-.3.07-.02.01-.05.01-.07.02l-6.75 3.34c-.73.37-1.03 1.25-.67 1.98.36.74 1.25 1.04 1.98.68l3.44-1.71a27.139 27.139 0 00.41 16.51 27.05 27.05 0 009.92 13.2 27.1 27.1 0 0015.75 4.98c3.83 0 7.61-.81 11.11-2.38.74-.34 1.07-1.22.73-1.96-.33-.74-1.21-1.08-1.95-.74z" fill="#000"/><path d="M23.64 41.61c-1.15 4.98-.88 10.18.8 15.02a27.05 27.05 0 009.92 13.2 27.1 27.1 0 0015.75 4.98c3.83 0 7.61-.81 11.11-2.38.74-.34 1.07-1.22.73-1.96-.33-.74-1.21-1.08-1.95-.74a24.13 24.13 0 01-17.91.79 24.046 24.046 0 01-13.52-11.77 24.092 24.092 0 01-2.12-16.12c.12-.58.27-1.15.44-1.73l.78 1.58 1.03 2.09a1.49 1.49 0 001.99.67c.73-.36 1.03-1.25.67-1.98l-3.35-6.76c-.03-.05-.08-.11-.12-.16-.1-.18-.25-.32-.44-.42-.05-.04-.1-.07-.15-.11-.02-.01-.05-.01-.07-.01-.1-.04-.2-.06-.31-.07-.08-.02-.17-.04-.26-.04-.09.01-.18.02-.26.05-.1.01-.2.04-.3.07-.02.01-.05.01-.07.02l-6.75 3.34c-.73.37-1.03 1.25-.67 1.98.36.74 1.25 1.04 1.98.68l2.05-1.02 1.39-.69c-.14.5-.27 1-.39 1.49zm2.8-4.69l.08-.02q.03-.01.05-.02l.07-.01.04-.01.04.01.06.01.03.02.08.04.05.09.08.08 3.29 6.66q.08.15.04.25-.04.11-.18.18-.06.03-.12.03-.06.01-.12-.01-.07-.02-.11-.06-.05-.04-.08-.1l-3.13-6.33-.84 2.85q-1.43 4.85-.99 9.53.44 4.67 2.75 9.17 2.31 4.51 5.86 7.59 3.54 3.09 8.31 4.75 4.79 1.67 9.48 1.46 4.69-.21 9.29-2.29.15-.07.25-.03.11.04.17.19.07.14.03.25-.04.1-.18.17-2.51 1.13-5.14 1.7-2.68.58-5.49.58-4.15.01-7.91-1.17-3.77-1.2-7.16-3.6-3.39-2.4-5.77-5.56-2.37-3.15-3.73-7.07-1.36-3.91-1.46-7.86-.1-3.95 1.07-7.94l.74-2.54-5.81 2.87q-.14.07-.25.04-.11-.04-.18-.18-.07-.14-.03-.25.03-.11.17-.17l6.65-3.3z" fill="#FFF" fill-rule="evenodd"/><path d="M79.16 56.24c-.18-.36-.48-.63-.86-.75-.37-.13-.77-.1-1.13.07l-3.44 1.71a27.13 27.13 0 00-1.92-20.02 27.113 27.113 0 00-15.18-13.18 27.042 27.042 0 00-20.08.9c-.75.34-1.08 1.21-.74 1.96.34.74 1.21 1.07 1.96.73a24.177 24.177 0 0117.91-.79A24.146 24.146 0 0169.2 38.64a24.109 24.109 0 011.67 17.85l-1.81-3.67a1.469 1.469 0 00-1.98-.66c-.73.36-1.03 1.24-.67 1.98l3.34 6.75c.14.29.38.52.66.66.02.01.03.02.05.03.03.01.05.01.07.02.17.07.35.11.53.11l.01.01c.21-.01.41-.06.59-.14.02-.01.05-.01.07-.02l6.76-3.34c.73-.36 1.03-1.25.67-1.98z" fill="#000"/><path d="M79.16 56.24c-.18-.36-.48-.63-.86-.75-.37-.13-.77-.1-1.13.07l-2.05 1.02-1.39.69c.14-.5.27-.99.39-1.49 1.44-6.24.64-12.8-2.31-18.53a27.113 27.113 0 00-15.18-13.18 27.042 27.042 0 00-20.08.9c-.75.34-1.08 1.21-.74 1.96.34.74 1.21 1.07 1.96.73a24.177 24.177 0 0117.91-.79A24.146 24.146 0 0169.2 38.64a24.212 24.212 0 012.12 16.12c-.13.58-.28 1.16-.45 1.73l-.78-1.58-1.03-2.09a1.469 1.469 0 00-1.98-.66c-.73.36-1.03 1.24-.67 1.98l3.34 6.75c.14.29.38.52.66.66.02.01.03.02.05.03.03.01.05.01.07.02.17.07.35.11.53.11l.01.01c.21-.01.41-.06.59-.14.02-.01.05-.01.07-.02l6.76-3.34c.73-.36 1.03-1.25.67-1.98zm-8.08 4.31q.02 0 .04-.01.03 0 .05-.02h.02l.01-.01q.06-.03.13-.05l6.64-3.28q.06-.03.1-.08.04-.04.06-.11.02-.06.02-.12t-.03-.12l-.01-.01q-.03-.05-.07-.09-.05-.04-.11-.06-.06-.02-.12-.02-.06.01-.12.04l-5.82 2.87.74-2.54q1.46-4.97 1-9.76-.46-4.79-2.83-9.39-2.37-4.61-6.01-7.77-3.63-3.15-8.52-4.85-4.89-1.71-9.69-1.49-4.81.21-9.53 2.35-.15.06-.19.17-.04.1.03.25.06.14.17.18.1.04.25-.02 4.6-2.09 9.29-2.3 4.7-.21 9.48 1.46 4.77 1.67 8.32 4.76 3.54 3.08 5.85 7.58 2.31 4.5 2.75 9.18.44 4.67-.99 9.53l-.84 2.85-3.07-6.21-.06-.12q-.07-.14-.18-.18-.1-.03-.25.04-.14.07-.17.17-.04.11.03.25l3.34 6.76q.01.02.03.04.04.05.1.08l.07.03q.02.01.04.01.03.01.05.01z" fill="#FFF" fill-rule="evenodd"/></g></symbol></svg>